<svg width="20" height="20" viewBox="0 0 20 20" fill="none" xmlns="http://www.w3.org/2000/svg">
<path fill-rule="evenodd" clip-rule="evenodd" d="M14.0404 14.9646C12.7133 16.0828 10.9994 16.7565 9.12824 16.7565C4.91528 16.7565 1.5 13.3412 1.5 9.12824C1.5 4.91528 4.91528 1.5 9.12824 1.5C13.3412 1.5 16.7565 4.91528 16.7565 9.12824C16.7565 10.9992 16.0829 12.7129 14.965 14.0399L18.3089 17.3838C18.5643 17.6392 18.5643 18.0531 18.3089 18.3085C18.0536 18.5638 17.6396 18.5638 17.3842 18.3085L14.0404 14.9646ZM2.8077 9.12824C2.8077 5.6375 5.6375 2.8077 9.12824 2.8077C12.619 2.8077 15.4488 5.6375 15.4488 9.12824C15.4488 10.8378 14.7701 12.3888 13.6674 13.5266C13.641 13.546 13.6158 13.5676 13.5919 13.5915C13.568 13.6154 13.5464 13.6406 13.527 13.667C12.3892 14.7699 10.838 15.4488 9.12824 15.4488C5.6375 15.4488 2.8077 12.619 2.8077 9.12824Z" fill="#9CA6B5"/>
</svg>
