<svg width="17" height="18" viewBox="0 0 17 18" fill="none" xmlns="http://www.w3.org/2000/svg">
<path d="M8.67676 1.92437L12.4732 5.72075C12.7511 5.99874 12.7511 6.44944 12.4732 6.72742C12.1952 7.00541 11.7445 7.00541 11.4665 6.72742L8.88525 4.14619L8.88525 15.7151C8.88525 16.1082 8.56656 16.4269 8.17343 16.4269C7.7803 16.4269 7.46161 16.1082 7.46161 15.7151L7.46161 4.14619L4.88038 6.72742C4.60239 7.00541 4.15169 7.00541 3.87371 6.72742C3.59572 6.44944 3.59572 5.99874 3.87371 5.72075L7.6701 1.92437C7.73525 1.85921 7.80989 1.80933 7.88957 1.77472C7.89335 1.77307 7.89715 1.77146 7.90096 1.76989C7.98488 1.73509 8.07691 1.71588 8.17343 1.71588C8.26995 1.71588 8.36198 1.73509 8.4459 1.76989C8.52986 1.80463 8.60852 1.85612 8.67676 1.92437Z" fill="#022954"/>
</svg>
