<svg width="17" height="17" viewBox="0 0 17 17" fill="none" xmlns="http://www.w3.org/2000/svg">
<g clip-path="url(#clip0_88_3195)">
<path d="M8.67579 1.127L12.4722 4.92339C12.7502 5.20137 12.7502 5.65208 12.4722 5.93006C12.1942 6.20804 11.7435 6.20804 11.4655 5.93006L8.88428 3.34883L8.88427 14.9177C8.88427 15.3108 8.56558 15.6295 8.17245 15.6295C7.77932 15.6295 7.46063 15.3108 7.46063 14.9177L7.46063 3.34883L4.8794 5.93006C4.60141 6.20804 4.15071 6.20804 3.87273 5.93006C3.59475 5.65207 3.59475 5.20137 3.87273 4.92339L7.66912 1.127C7.73427 1.06185 7.80891 1.01197 7.88859 0.977355C7.89238 0.975711 7.89617 0.974101 7.89998 0.972526C7.98391 0.937723 8.07594 0.918514 8.17245 0.918514C8.26897 0.918514 8.361 0.937724 8.44493 0.972527C8.52888 1.00726 8.60754 1.05876 8.67579 1.127Z" fill="#F0F2F4"/>
</g>
<defs>
<clipPath id="clip0_88_3195">
<rect width="16.3456" height="16.3456" fill="white" transform="matrix(-1 0 0 -1 16.3447 16.4469)"/>
</clipPath>
</defs>
</svg>
