<svg width="17" height="17" viewBox="0 0 17 17" fill="none" xmlns="http://www.w3.org/2000/svg">
<path d="M7.66894 15.3199L3.87255 11.5235C3.59457 11.2455 3.59457 10.7948 3.87255 10.5168C4.15054 10.2389 4.60124 10.2389 4.87922 10.5168L7.46045 13.0981L7.46045 1.52921C7.46045 1.13608 7.77915 0.817383 8.17227 0.817383C8.5654 0.817383 8.8841 1.13608 8.8841 1.52921L8.8841 13.0981L11.4653 10.5168C11.7433 10.2389 12.194 10.2389 12.472 10.5168C12.75 10.7948 12.75 11.2455 12.472 11.5235L8.67561 15.3199C8.61046 15.385 8.53582 15.4349 8.45614 15.4695C8.45235 15.4712 8.44855 15.4728 8.44475 15.4744C8.36082 15.5092 8.26879 15.5284 8.17227 15.5284C8.07576 15.5284 7.98373 15.5092 7.8998 15.4744C7.81584 15.4396 7.73719 15.3881 7.66894 15.3199Z" fill="#F0F2F4"/>
</svg>
