<svg width="140" height="141" viewBox="0 0 140 141" fill="none" xmlns="http://www.w3.org/2000/svg">
<path fill-rule="evenodd" clip-rule="evenodd" d="M135.29 26.8919C133.308 35.3976 131.631 42.5931 131.56 42.882C131.303 43.94 126.03 45.0048 125.331 44.1405C124.725 43.3923 126.663 33.1896 130.252 18.2236C130.836 15.7937 129.913 17.0966 126.869 23.0055C94.737 85.3862 59.9478 120.867 14.9002 137.2C5.12528 140.744 1.81611 141.261 0.912945 139.382C0.161274 137.821 3.42736 135.798 9.67574 133.953C36.2975 126.093 66.1162 103.616 88.3414 74.6525C97.4171 62.8265 107.806 46.2871 115.876 30.8185C125.716 11.9559 125.544 12.6562 119.199 17.3336C113.913 21.2303 110.764 21.9068 110.192 19.2685C109.908 17.9572 128.412 3.39201 132.71 1.54424C134.273 0.871567 136.494 0.52788 137.645 0.780418C139.605 1.20909 139.711 1.56293 139.315 6.33284C139.082 9.13463 137.271 18.3863 135.29 26.8919Z" fill="#FFA65B"/>
</svg>
