<svg width="48" height="45" viewBox="0 0 48 45" fill="none" xmlns="http://www.w3.org/2000/svg">
<g id="Group">
<g id="Group_2">
<path id="Vector" d="M20.0299 39.9772C16.6415 38.1585 14.1625 34.7593 13.3614 30.1802C12.5603 25.601 13.5996 20.7404 15.927 16.551C18.2545 12.3615 21.8702 8.88658 26.222 7.06791C30.5738 5.26006 34.839 5.47657 38.2166 7.28442C41.5941 9.09227 44.084 12.4915 44.885 17.0706C45.6861 21.6498 44.6469 26.5104 42.3194 30.6998C39.9919 34.8893 36.3763 38.375 32.0244 40.1829C27.6618 42.0016 23.4074 41.785 20.0299 39.9772Z" fill="url(#paint0_linear_8951_27790)"/>
<g id="Group_3">
<g id="Clip path group">
<mask id="mask0_8951_27790" style="mask-type:luminance" maskUnits="userSpaceOnUse" x="19" y="7" width="27" height="35">
<g id="SVGID_00000060030505996200508030000000588847064865118133_">
<path id="Vector_2" d="M37.8603 7.06738L38.683 7.55453C41.8332 9.42733 44.1282 12.7183 44.8968 17.0809C45.6979 21.6601 44.6586 26.5207 42.3312 30.7101C40.0037 34.8996 36.388 38.3745 32.0362 40.1932C27.6735 42.001 23.4191 41.7845 20.0416 39.9767L19.2189 39.4895C22.6072 41.2974 26.8616 41.5139 31.2134 39.706C35.5653 37.8982 39.181 34.4124 41.5084 30.223C43.8359 26.0335 44.8751 21.1729 44.074 16.5938C43.3054 12.2311 40.9996 8.94018 37.8603 7.06738Z" fill="white"/>
</g>
</mask>
<g mask="url(#mask0_8951_27790)">
<path id="Vector_3" d="M20.0299 39.9767L19.2072 39.4895C22.5955 41.2974 26.8499 41.5139 31.2017 39.706C35.5536 37.8982 39.1692 34.4124 41.4967 30.223C43.8242 26.0335 44.8634 21.1729 44.0623 16.5938C43.2937 12.2311 40.9987 8.92936 37.8485 7.06738L38.6713 7.55453C41.8215 9.42733 44.1165 12.7183 44.8851 17.0809C45.6861 21.6601 44.6469 26.5207 42.3194 30.7101C39.992 34.8996 36.3763 38.3745 32.0245 40.1932C27.6618 42.001 23.4074 41.7845 20.0299 39.9767Z" fill="url(#paint1_linear_8951_27790)"/>
</g>
</g>
</g>
<g id="Group_4">
<g id="Clip path group_2">
<mask id="mask1_8951_27790" style="mask-type:luminance" maskUnits="userSpaceOnUse" x="18" y="39" width="3" height="1">
<g id="SVGID_00000172399616747846419290000006467898599161903744_">
<path id="Vector_4" d="M19.5758 39.7176L18.7531 39.2305C18.9046 39.3171 19.0562 39.4037 19.2077 39.4903L20.0305 39.9774C19.8681 39.8908 19.7165 39.815 19.5758 39.7176Z" fill="white"/>
</g>
</mask>
<g mask="url(#mask1_8951_27790)">
<path id="Vector_5" d="M19.5758 39.7176L18.7531 39.2305C18.9046 39.3171 19.0562 39.4037 19.2077 39.4903L20.0305 39.9774C19.8681 39.8908 19.7165 39.815 19.5758 39.7176Z" fill="url(#paint2_linear_8951_27790)"/>
</g>
</g>
</g>
<path id="Vector_6" d="M17.9408 42.4459L14.141 40.1834C10.4712 38.0074 7.77568 34.1319 6.87717 29.0332C5.93536 23.6854 7.15863 17.9804 9.87581 13.0981C12.593 8.21587 16.8366 4.12386 21.9137 2.0129C27.0016 -0.0980596 32.003 0.150925 35.9434 2.27271C36.1275 2.37014 39.2777 4.25376 39.4617 4.36201L40.2844 4.84916C40.1112 4.7409 39.9272 4.64348 39.7432 4.54605C35.7919 2.42426 30.8014 2.17528 25.7134 4.28624C20.6255 6.3972 16.3927 10.4892 13.6755 15.3715C10.9584 20.2537 9.73508 25.9587 10.6769 31.3065C11.5754 36.3945 14.2709 40.2591 17.9408 42.4459Z" fill="url(#paint3_linear_8951_27790)"/>
<path id="Vector_7" d="M32.5123 43.009C37.6002 40.8981 41.833 36.8061 44.561 31.9238C47.2782 27.0415 48.4906 21.3257 47.5596 15.978C46.6178 10.641 43.7058 6.64644 39.7653 4.52466C35.8249 2.40288 30.8235 2.15389 25.7356 4.26485C20.6476 6.37581 16.4149 10.4678 13.6869 15.3501C10.9697 20.2324 9.75722 25.9374 10.6882 31.2851C11.6192 36.6329 14.5421 40.6275 18.4825 42.7384C22.4338 44.871 27.4243 45.12 32.5123 43.009ZM20.0306 39.9779C16.6422 38.1593 14.1632 34.7601 13.3621 30.1809C12.561 25.6018 13.6002 20.7412 15.9277 16.5517C18.2552 12.3623 21.8709 8.88731 26.2227 7.06864C30.5745 5.26079 34.8397 5.4773 38.2173 7.28514C41.5948 9.09299 44.0847 12.4922 44.8857 17.0713C45.6868 21.6505 44.6476 26.5111 42.3201 30.7005C39.9926 34.89 36.3769 38.3758 32.0251 40.1836C27.6625 42.0023 23.4081 41.7858 20.0306 39.9779Z" fill="url(#paint4_linear_8951_27790)"/>
<path id="Vector_8" d="M20.0299 39.9772C16.6415 38.1585 14.1625 34.7594 13.3614 30.1802C12.5603 25.601 13.5996 20.7404 15.927 16.551C18.2545 12.3615 21.8702 8.88658 26.222 7.06791C30.5738 5.26006 34.839 5.47657 38.2166 7.28442C41.5941 9.09227 44.084 12.4915 44.885 17.0706C45.6861 21.6498 44.6469 26.5104 42.3194 30.6998C39.9919 34.8893 36.3763 38.375 32.0244 40.1829C27.6618 42.0016 23.4074 41.7851 20.0299 39.9772Z" stroke="url(#paint5_linear_8951_27790)" stroke-width="0.614438" stroke-miterlimit="10"/>
<path id="Vector_9" d="M37.276 19.1497L36.4532 18.6625L39.0405 17.5908L39.8524 18.078L37.276 19.1497Z" fill="url(#paint6_linear_8951_27790)"/>
<g id="Group_5">
<g id="Clip path group_3">
<mask id="mask2_8951_27790" style="mask-type:luminance" maskUnits="userSpaceOnUse" x="33" y="22" width="2" height="6">
<g id="SVGID_00000165201587101706870570000002603759605015391140_">
<path id="Vector_10" d="M34.1363 27.0734L33.3136 26.5863C33.7683 25.0923 33.9523 23.6742 33.8657 22.3535L34.6884 22.8407C34.7642 24.1722 34.5802 25.5795 34.1363 27.0734Z" fill="white"/>
</g>
</mask>
<g mask="url(#mask2_8951_27790)">
<g id="Group_6">
<g id="Clip path group_4">
<mask id="mask3_8951_27790" style="mask-type:luminance" maskUnits="userSpaceOnUse" x="33" y="22" width="2" height="6">
<g id="SVGID_00000040541916214293832990000017809806878423615132_">
<path id="Vector_11" d="M34.67 22.3263L33.1661 22.3772L33.3263 27.1051L34.8301 27.0541L34.67 22.3263Z" fill="white"/>
</g>
</mask>
<g mask="url(#mask3_8951_27790)">
<path id="Vector_12" d="M34.1363 27.0734L33.3136 26.5863C33.7683 25.0923 33.9523 23.6742 33.8657 22.3535L34.6884 22.8407C34.7642 24.1722 34.5802 25.5795 34.1363 27.0734Z" fill="url(#paint7_linear_8951_27790)"/>
</g>
</g>
</g>
</g>
</g>
</g>
<g id="Group_7">
<g id="Clip path group_5">
<mask id="mask4_8951_27790" style="mask-type:luminance" maskUnits="userSpaceOnUse" x="32" y="18" width="3" height="3">
<g id="SVGID_00000164487313120577616960000005394958597659482793_">
<path id="Vector_13" d="M32.5665 18.9102L33.3893 19.3973C33.7032 19.5813 33.9738 19.9277 34.2012 20.4365L33.3784 19.9494C33.1403 19.4406 32.8805 19.0942 32.5665 18.9102Z" fill="white"/>
</g>
</mask>
<g mask="url(#mask4_8951_27790)">
<path id="Vector_14" d="M34.1914 20.4365L33.3687 19.9494C33.1413 19.4406 32.8707 19.0942 32.5568 18.9102L33.3795 19.3973C33.6934 19.5813 33.9641 19.9277 34.1914 20.4365Z" fill="url(#paint8_linear_8951_27790)"/>
</g>
</g>
</g>
<path id="Vector_15" d="M30.8882 21.8023L30.0763 21.3152L33.3672 19.9512L34.19 20.4383L30.8882 21.8023Z" fill="url(#paint9_linear_8951_27790)"/>
<g id="Group_8">
<path id="Vector_16" d="M24.9555 28.2968L24.1328 27.8097C24.4576 27.9829 24.8256 27.9937 25.2045 27.8313C25.5942 27.6689 25.8865 27.3875 26.0814 26.9869C26.2762 26.5864 26.417 26.0559 26.5036 25.4172L27.3263 25.9044C27.2397 26.5539 27.099 27.0735 26.9041 27.4741C26.7093 27.8746 26.417 28.1669 26.0273 28.3184C25.6484 28.4808 25.2803 28.4808 24.9555 28.2968Z" fill="url(#paint10_linear_8951_27790)"/>
<g id="Clip path group_6">
<mask id="mask5_8951_27790" style="mask-type:luminance" maskUnits="userSpaceOnUse" x="24" y="25" width="4" height="4">
<g id="SVGID_00000036249121834887475930000006957422452539966638_">
<path id="Vector_17" d="M24.9557 28.2966L24.1329 27.8094C24.4577 27.9826 24.8258 27.9934 25.2047 27.8311C25.5944 27.6687 25.8867 27.3872 26.0815 26.9867C26.2764 26.5861 26.4171 26.0557 26.5037 25.417L27.3264 25.9041C27.2398 26.5537 27.0991 27.0733 26.9042 27.4738C26.7094 27.8744 26.4171 28.1666 26.0274 28.3182C25.6485 28.4806 25.2804 28.4806 24.9557 28.2966Z" fill="white"/>
</g>
</mask>
<g mask="url(#mask5_8951_27790)">
<g id="Group_9">
<g id="Clip path group_7">
<mask id="mask6_8951_27790" style="mask-type:luminance" maskUnits="userSpaceOnUse" x="24" y="25" width="4" height="4">
<g id="SVGID_00000134220220312757603970000002708319496011559858_">
<path id="Vector_18" d="M27.3064 25.3832L24.0607 25.4932L24.1618 28.4793L27.4076 28.3693L27.3064 25.3832Z" fill="white"/>
</g>
</mask>
<g mask="url(#mask6_8951_27790)">
<path id="Vector_19" d="M24.9557 28.2966L24.1329 27.8094C24.4577 27.9826 24.8258 27.9934 25.2047 27.8311C25.5944 27.6687 25.8867 27.3872 26.0815 26.9867C26.2764 26.5861 26.4171 26.0557 26.5037 25.417L27.3264 25.9041C27.2398 26.5537 27.0991 27.0733 26.9042 27.4738C26.7094 27.8744 26.4171 28.1666 26.0274 28.3182C25.6485 28.4806 25.2804 28.4806 24.9557 28.2966Z" fill="url(#paint11_linear_8951_27790)"/>
</g>
</g>
</g>
</g>
</g>
</g>
<g id="Group_10">
<g id="Clip path group_8">
<mask id="mask7_8951_27790" style="mask-type:luminance" maskUnits="userSpaceOnUse" x="24" y="27" width="1" height="2">
<g id="SVGID_00000116945546768406775120000001453268519262638492_">
<path id="Vector_20" d="M24.9127 28.2634L24.09 27.7871L24.1441 27.8088L24.956 28.2959L24.9127 28.2634Z" fill="white"/>
</g>
</mask>
<g mask="url(#mask7_8951_27790)">
<path id="Vector_21" d="M24.9127 28.2634L24.09 27.7871L24.1441 27.8088L24.956 28.2959L24.9127 28.2634Z" fill="url(#paint12_linear_8951_27790)"/>
</g>
</g>
</g>
<g id="Group_11">
<g id="Clip path group_9">
<mask id="mask8_8951_27790" style="mask-type:luminance" maskUnits="userSpaceOnUse" x="26" y="14" width="9" height="10">
<g id="SVGID_00000093156357035327073570000010624936113749648009_">
<path id="Vector_22" d="M34.1358 15.1654L34.9585 15.6526C34.9261 15.6309 34.8828 15.6093 34.8503 15.5876C33.7569 14.9922 32.5661 14.9598 31.2887 15.4902C30.2495 15.9232 29.47 16.5294 28.9288 17.3305C28.3983 18.1316 28.0411 18.9868 27.8571 19.9286C27.673 20.8596 27.5539 21.953 27.489 23.2196L26.6663 22.7324C26.7312 21.4658 26.8503 20.3725 27.0343 19.4415C27.2184 18.5105 27.5756 17.6445 28.106 16.8434C28.6365 16.0423 29.4267 15.4361 30.466 15.0031C31.7542 14.4726 32.9342 14.5051 34.0275 15.1005C34.06 15.133 34.1033 15.1546 34.1358 15.1654Z" fill="white"/>
</g>
</mask>
<g mask="url(#mask8_8951_27790)">
<g id="Group_12">
<g id="Clip path group_10">
<mask id="mask9_8951_27790" style="mask-type:luminance" maskUnits="userSpaceOnUse" x="26" y="14" width="10" height="10">
<g id="SVGID_00000155838568239292263630000009181517949315412621_">
<path id="Vector_23" d="M34.9201 14.5359L26.3948 14.8247L26.6799 23.2418L35.2052 22.953L34.9201 14.5359Z" fill="white"/>
</g>
</mask>
<g mask="url(#mask9_8951_27790)">
<path id="Vector_24" d="M27.4792 23.2205L26.6565 22.7334C26.7214 21.4668 26.8405 20.3734 27.0246 19.4425C27.2086 18.5115 27.5658 17.6454 28.0963 16.8444C28.6267 16.0433 29.417 15.437 30.4562 15.004C31.7444 14.4736 32.9244 14.5061 34.0178 15.1015C34.0503 15.1231 34.0936 15.1448 34.126 15.1664L34.9488 15.6536C34.9163 15.6319 34.873 15.6103 34.8405 15.5886C33.7471 14.9932 32.5563 14.9607 31.2789 15.4912C30.2397 15.9242 29.4603 16.5304 28.919 17.3315C28.3886 18.1326 28.0313 18.9878 27.8473 19.9296C27.6633 20.8606 27.5442 21.954 27.4792 23.2205Z" fill="url(#paint13_linear_8951_27790)"/>
</g>
</g>
</g>
</g>
</g>
</g>
<path id="Vector_25" d="M23.6031 24.8335L22.7804 24.3464L26.6667 22.7334L27.4786 23.2205L23.6031 24.8335Z" fill="url(#paint14_linear_8951_27790)"/>
<g id="Group_13">
<g id="Clip path group_11">
<mask id="mask10_8951_27790" style="mask-type:luminance" maskUnits="userSpaceOnUse" x="20" y="28" width="4" height="4">
<g id="SVGID_00000093893328830922682510000012416209247584772498_">
<path id="Vector_26" d="M23.3975 31.9768L22.5747 31.4896C21.5463 30.8726 20.7669 29.7142 20.2365 28.0146L21.0592 28.5018C21.5788 30.2014 22.3582 31.3597 23.3975 31.9768Z" fill="white"/>
</g>
</mask>
<g mask="url(#mask10_8951_27790)">
<path id="Vector_27" d="M23.3975 31.9768L22.5747 31.4896C21.5463 30.8726 20.7669 29.7142 20.2365 28.0146L21.0592 28.5018C21.5788 30.2014 22.3582 31.3597 23.3975 31.9768Z" fill="url(#paint15_linear_8951_27790)"/>
</g>
</g>
</g>
<path id="Vector_28" d="M18.0277 27.1493L17.2158 26.6621L19.7381 25.6121L20.5609 26.0992L18.0277 27.1493Z" fill="url(#paint16_linear_8951_27790)"/>
<path id="Vector_29" d="M18.4607 29.5857L17.638 29.0986L17.2158 26.6628L18.0277 27.15L18.4607 29.5857Z" fill="url(#paint17_linear_8951_27790)"/>
<g id="Group_14">
<g id="Clip path group_12">
<mask id="mask11_8951_27790" style="mask-type:luminance" maskUnits="userSpaceOnUse" x="19" y="18" width="3" height="9">
<g id="SVGID_00000044884039866515166620000001522974736036843944_">
<path id="Vector_30" d="M20.5605 26.0993L19.7378 25.6122C19.5863 24.3781 19.5863 23.1548 19.7378 21.9207C19.8894 20.6974 20.1492 19.6365 20.5281 18.7705L21.3508 19.2577C20.9719 20.1345 20.7121 21.1846 20.5605 22.4078C20.409 23.6419 20.409 24.8652 20.5605 26.0993Z" fill="white"/>
</g>
</mask>
<g mask="url(#mask11_8951_27790)">
<g id="Group_15">
<g id="Clip path group_13">
<mask id="mask12_8951_27790" style="mask-type:luminance" maskUnits="userSpaceOnUse" x="19" y="18" width="3" height="9">
<g id="SVGID_00000026126382057045864750000015972791787350808468_">
<path id="Vector_31" d="M21.3328 18.738L19.4503 18.8018L19.6984 26.1262L21.5809 26.0624L21.3328 18.738Z" fill="white"/>
</g>
</mask>
<g mask="url(#mask12_8951_27790)">
<path id="Vector_32" d="M20.5605 26.0993L19.7378 25.6122C19.5863 24.3781 19.5863 23.1548 19.7378 21.9207C19.8894 20.6974 20.1492 19.6365 20.5281 18.7705L21.3508 19.2577C20.9719 20.1345 20.7121 21.1846 20.5605 22.4078C20.409 23.6419 20.409 24.8652 20.5605 26.0993Z" fill="url(#paint18_linear_8951_27790)"/>
</g>
</g>
</g>
</g>
</g>
</g>
<path id="Vector_33" d="M29.3294 30.3003C28.7989 31.1014 28.0195 31.7076 27.0019 32.1298C25.7353 32.6602 24.5554 32.6169 23.4836 32.0215C22.4119 31.4261 21.6 30.2461 21.0587 28.5033L18.4606 29.5858L18.0385 27.1501L20.5716 26.1C20.42 24.8659 20.42 23.6426 20.5716 22.4085C20.7232 21.1853 20.983 20.1244 21.3619 19.2583L24.4255 19.4207C24.1007 20.2218 23.8625 21.0987 23.711 22.0405C23.5594 22.9931 23.5269 23.9241 23.6027 24.8334L27.4782 23.2204C27.5432 21.9539 27.6623 20.8605 27.8463 19.9295C28.0303 18.9985 28.3876 18.1325 28.918 17.3314C29.4485 16.5303 30.2387 15.9241 31.2779 15.4911C32.5662 14.9606 33.7461 14.9931 34.8395 15.5885C35.9329 16.1839 36.7448 17.3747 37.2644 19.1501L39.8409 18.0784L40.2631 20.5141L37.7299 21.5642C37.9248 23.6318 37.7407 25.4721 37.1778 27.1068L34.1142 27.0743C34.5689 25.5804 34.7529 24.1623 34.6663 22.8416L30.715 24.487C30.6717 25.7319 30.5526 26.8145 30.3794 27.7347C30.2171 28.644 29.8598 29.51 29.3294 30.3003ZM30.8882 21.8023L34.19 20.4275C33.941 19.8646 33.6379 19.5073 33.2915 19.3341C32.9342 19.1717 32.5554 19.1609 32.1548 19.3341C31.7651 19.4965 31.4728 19.7888 31.2888 20.1893C31.0939 20.6115 30.9532 21.142 30.8882 21.8023ZM24.9559 28.2976C25.2807 28.4708 25.6487 28.4816 26.0276 28.3192C26.4173 28.1568 26.7096 27.8754 26.9045 27.4748C27.0993 27.0743 27.2401 26.5439 27.3267 25.9052L24.1223 27.2367C24.3497 27.7671 24.6311 28.1244 24.9559 28.2976Z" fill="url(#paint19_linear_8951_27790)"/>
<path id="Vector_34" d="M21.3511 19.2468L20.5392 18.7705L23.6028 18.9329L24.4255 19.42L21.3511 19.2468Z" fill="url(#paint20_linear_8951_27790)"/>
<path id="Vector_35" d="M29.3294 30.3003C28.7989 31.1014 28.0195 31.7076 27.0019 32.1298C25.7353 32.6602 24.5554 32.6169 23.4836 32.0215C22.4119 31.4261 21.6 30.2461 21.0587 28.5033L18.4606 29.5858L18.0385 27.1501L20.5716 26.1C20.42 24.8659 20.42 23.6426 20.5716 22.4085C20.7232 21.1853 20.983 20.1244 21.3619 19.2583L24.4255 19.4207C24.1007 20.2218 23.8625 21.0987 23.711 22.0405C23.5594 22.9931 23.5269 23.9241 23.6027 24.8334L27.4782 23.2204C27.5432 21.9539 27.6623 20.8605 27.8463 19.9295C28.0303 18.9985 28.3876 18.1325 28.918 17.3314C29.4485 16.5303 30.2387 15.9241 31.2779 15.4911C32.5662 14.9606 33.7461 14.9931 34.8395 15.5885C35.9329 16.1839 36.7448 17.3747 37.2644 19.1501L39.8409 18.0784L40.2631 20.5141L37.7299 21.5642C37.9248 23.6318 37.7407 25.4721 37.1778 27.1068L34.1142 27.0743C34.5689 25.5804 34.7529 24.1623 34.6663 22.8416L30.715 24.487C30.6717 25.7319 30.5526 26.8145 30.3794 27.7347C30.2171 28.644 29.8598 29.51 29.3294 30.3003ZM30.8882 21.8023L34.19 20.4275C33.941 19.8646 33.6379 19.5073 33.2915 19.3341C32.9342 19.1717 32.5554 19.1609 32.1548 19.3341C31.7651 19.4965 31.4728 19.7888 31.2888 20.1893C31.0939 20.6115 30.9532 21.142 30.8882 21.8023ZM24.9559 28.2976C25.2807 28.4708 25.6487 28.4816 26.0276 28.3192C26.4173 28.1568 26.7096 27.8754 26.9045 27.4748C27.0993 27.0743 27.2401 26.5439 27.3267 25.9052L24.1223 27.2367C24.3497 27.7671 24.6311 28.1244 24.9559 28.2976Z" stroke="url(#paint21_linear_8951_27790)" stroke-width="0.614438" stroke-miterlimit="10"/>
</g>
<g id="Group_16">
<path id="Vector_36" d="M8.12299 23.092C5.81717 23.092 3.9552 21.295 3.9552 19.0866C3.9552 16.8782 5.828 15.092 8.13381 15.092C10.4396 15.092 12.3016 16.8891 12.3016 19.0974C12.3016 21.3058 10.4288 23.1029 8.12299 23.092Z" fill="url(#paint22_radial_8951_27790)"/>
<path id="Vector_37" d="M0.0695801 19.0746C0.0695801 18.2194 3.67445 17.5374 8.1237 17.5482C12.573 17.559 16.1778 18.2519 16.1778 19.1071C16.1778 19.9623 12.573 20.6443 8.1237 20.6335C3.67445 20.6335 0.0695801 19.9298 0.0695801 19.0746Z" fill="url(#paint23_radial_8951_27790)"/>
<path id="Vector_38" d="M8.1234 27.1178C7.26819 27.1178 6.57536 23.5238 6.58618 19.0854C6.58618 14.647 7.28984 11.0529 8.14505 11.0637C9.00025 11.0637 9.69308 14.6578 9.68226 19.0962C9.67143 23.5346 8.97861 27.1287 8.1234 27.1178Z" fill="url(#paint24_radial_8951_27790)"/>
<path id="Vector_39" d="M8.12371 26.7398C7.66904 26.7398 7.3118 23.319 7.32263 19.0971C7.32263 14.8752 7.70152 11.4543 8.14536 11.4543C8.60003 11.4543 8.95727 14.8752 8.94644 19.0971C8.93562 23.319 8.56755 26.7398 8.12371 26.7398Z" fill="url(#paint25_radial_8951_27790)"/>
<path id="Vector_40" d="M8.12408 22.8847C6.22963 22.8847 4.70325 21.1851 4.70325 19.085C4.70325 16.9957 6.24046 15.2961 8.13491 15.3069C10.0294 15.3069 11.5557 17.0065 11.5557 19.1067C11.5557 21.1851 10.0185 22.8847 8.12408 22.8847Z" fill="url(#paint26_radial_8951_27790)"/>
<path id="Vector_41" d="M0.459351 19.0748C0.459351 18.6309 3.89101 18.2737 8.13458 18.2737C12.3673 18.2845 15.799 18.6526 15.799 19.0964C15.799 19.5403 12.3673 19.8975 8.12376 19.8975C3.89101 19.8975 0.459351 19.5294 0.459351 19.0748Z" fill="url(#paint27_radial_8951_27790)"/>
</g>
<g id="Group_17">
<path id="Vector_42" d="M20.5401 6.16045C19.3601 6.16045 18.4075 5.24029 18.4075 4.10362C18.4075 2.96695 19.3709 2.05762 20.5509 2.05762C21.7309 2.05762 22.6835 2.97778 22.6835 4.11445C22.6727 5.25112 21.7201 6.17128 20.5401 6.16045Z" fill="url(#paint28_radial_8951_27790)"/>
<path id="Vector_43" d="M16.4045 4.10291C16.4045 3.66989 18.2557 3.31266 20.5399 3.32348C22.824 3.33431 24.6643 3.69155 24.6643 4.12456C24.6643 4.55758 22.8132 4.91482 20.529 4.90399C18.2557 4.90399 16.4045 4.54675 16.4045 4.10291Z" fill="url(#paint29_radial_8951_27790)"/>
<path id="Vector_44" d="M20.529 8.22732C20.0852 8.22732 19.7388 6.387 19.7388 4.11366C19.7388 1.84032 20.096 0 20.5399 0C20.9837 0 21.3301 1.84032 21.3301 4.11366C21.3301 6.387 20.9729 8.22732 20.529 8.22732Z" fill="url(#paint30_radial_8951_27790)"/>
<path id="Vector_45" d="M20.5288 8.03195C20.3015 8.03195 20.1174 6.27823 20.1174 4.11314C20.1174 1.94806 20.3123 0.194336 20.5396 0.194336C20.767 0.194336 20.951 1.94806 20.951 4.11314C20.951 6.27823 20.767 8.03195 20.5288 8.03195Z" fill="url(#paint31_radial_8951_27790)"/>
<path id="Vector_46" d="M20.5401 6.05137C19.5658 6.05137 18.7864 5.17451 18.7864 4.10279C18.7864 3.03107 19.5766 2.16504 20.5401 2.16504C21.5144 2.16504 22.2938 3.0419 22.2938 4.11362C22.2938 5.18533 21.5036 6.06219 20.5401 6.05137Z" fill="url(#paint32_radial_8951_27790)"/>
<path id="Vector_47" d="M16.6106 4.10179C16.6106 3.87446 18.3751 3.69043 20.5402 3.69043C22.7161 3.69043 24.4699 3.88529 24.4699 4.11262C24.4699 4.33995 22.7053 4.52399 20.5402 4.52399C18.3643 4.52399 16.6106 4.33995 16.6106 4.10179Z" fill="url(#paint33_radial_8951_27790)"/>
</g>
</g>
<defs>
<linearGradient id="paint0_linear_8951_27790" x1="8.81445" y1="45.369" x2="48.5561" y2="2.83656" gradientUnits="userSpaceOnUse">
<stop stop-color="#D2AB5A"/>
<stop offset="0.0610851" stop-color="#BA9443"/>
<stop offset="0.1898" stop-color="#7C5808"/>
<stop offset="0.2069" stop-color="#735000"/>
<stop offset="0.2274" stop-color="#775200"/>
<stop offset="0.3376" stop-color="#8A5D00"/>
<stop offset="0.4146" stop-color="#916100"/>
<stop offset="0.4344" stop-color="#976707"/>
<stop offset="0.5154" stop-color="#CA982D"/>
<stop offset="0.5538" stop-color="#C49128"/>
<stop offset="0.6086" stop-color="#B47F19"/>
<stop offset="0.6414" stop-color="#A8700D"/>
<stop offset="0.6805" stop-color="#815400"/>
<stop offset="0.8029" stop-color="#B38116"/>
<stop offset="0.8267" stop-color="#A27114"/>
<stop offset="0.8802" stop-color="#815110"/>
<stop offset="0.9247" stop-color="#6C3D0E"/>
<stop offset="0.9545" stop-color="#65360D"/>
<stop offset="0.9581" stop-color="#6F3F0D"/>
<stop offset="0.9701" stop-color="#8A580C"/>
<stop offset="0.9807" stop-color="#9B670C"/>
<stop offset="0.9886" stop-color="#A16C0C"/>
</linearGradient>
<linearGradient id="paint1_linear_8951_27790" x1="52.9444" y1="49.4546" x2="34.5814" y2="29.3186" gradientUnits="userSpaceOnUse">
<stop stop-color="#A16C0C"/>
<stop offset="0.2318" stop-color="#BE9134"/>
<stop offset="0.5559" stop-color="#A8700D"/>
<stop offset="1" stop-color="#432400"/>
</linearGradient>
<linearGradient id="paint2_linear_8951_27790" x1="19.3766" y1="39.2145" x2="19.4032" y2="39.9993" gradientUnits="userSpaceOnUse">
<stop stop-color="#A16C0C"/>
<stop offset="0.1816" stop-color="#C9BF70"/>
<stop offset="0.3268" stop-color="#BE9134"/>
<stop offset="0.433" stop-color="#A8700D"/>
<stop offset="0.7067" stop-color="#C09F46"/>
<stop offset="0.8492" stop-color="#A16C0C"/>
<stop offset="1" stop-color="#602400"/>
</linearGradient>
<linearGradient id="paint3_linear_8951_27790" x1="39.3741" y1="-9.26249" x2="7.2548" y2="37.3151" gradientUnits="userSpaceOnUse">
<stop offset="0.1136" stop-color="#D7AC4C"/>
<stop offset="0.1816" stop-color="#FFFFB0"/>
<stop offset="0.3268" stop-color="#F4D174"/>
<stop offset="0.3659" stop-color="#FBED99"/>
<stop offset="0.3939" stop-color="#FAEC97"/>
<stop offset="0.433" stop-color="#DEB04D"/>
<stop offset="0.5275" stop-color="#DFB24F"/>
<stop offset="0.5615" stop-color="#E2B756"/>
<stop offset="0.5858" stop-color="#E7C161"/>
<stop offset="0.6053" stop-color="#EECF72"/>
<stop offset="0.6207" stop-color="#F6DF86"/>
<stop offset="0.7529" stop-color="#F2D87E"/>
<stop offset="0.7672" stop-color="#F1D77D"/>
<stop offset="0.7716" stop-color="#EBCD71"/>
<stop offset="0.7804" stop-color="#E2BE60"/>
<stop offset="0.7913" stop-color="#DCB455"/>
<stop offset="0.8066" stop-color="#D8AE4E"/>
<stop offset="0.8492" stop-color="#D7AC4C"/>
<stop offset="1" stop-color="#966424"/>
</linearGradient>
<linearGradient id="paint4_linear_8951_27790" x1="11.6465" y1="46.338" x2="50.4247" y2="-4.03813" gradientUnits="userSpaceOnUse">
<stop stop-color="#D2AB5A"/>
<stop offset="0.0610851" stop-color="#BA9443"/>
<stop offset="0.1898" stop-color="#7C5808"/>
<stop offset="0.2069" stop-color="#735000"/>
<stop offset="0.2274" stop-color="#775200"/>
<stop offset="0.3376" stop-color="#8A5D00"/>
<stop offset="0.4146" stop-color="#916100"/>
<stop offset="0.4344" stop-color="#976707"/>
<stop offset="0.4986" stop-color="#D8B364"/>
<stop offset="0.5246" stop-color="#D4AE5D"/>
<stop offset="0.5617" stop-color="#CA9F4A"/>
<stop offset="0.6053" stop-color="#B9882C"/>
<stop offset="0.6414" stop-color="#A8700D"/>
<stop offset="0.6805" stop-color="#815400"/>
<stop offset="0.8029" stop-color="#B38116"/>
<stop offset="0.8267" stop-color="#A27114"/>
<stop offset="0.8802" stop-color="#815110"/>
<stop offset="0.9247" stop-color="#6C3D0E"/>
<stop offset="0.9545" stop-color="#65360D"/>
<stop offset="0.9581" stop-color="#6F3F0D"/>
<stop offset="0.9701" stop-color="#8A580C"/>
<stop offset="0.9807" stop-color="#9B670C"/>
<stop offset="0.9886" stop-color="#A16C0C"/>
</linearGradient>
<linearGradient id="paint5_linear_8951_27790" x1="41.1393" y1="9.30885" x2="17.1004" y2="37.9667" gradientUnits="userSpaceOnUse">
<stop stop-color="#D2AB5A"/>
<stop offset="0.0610851" stop-color="#BA9443"/>
<stop offset="0.1898" stop-color="#7C5808"/>
<stop offset="0.2069" stop-color="#735000"/>
<stop offset="0.2274" stop-color="#775200"/>
<stop offset="0.3376" stop-color="#8A5D00"/>
<stop offset="0.4146" stop-color="#916100"/>
<stop offset="0.4344" stop-color="#976707"/>
<stop offset="0.4986" stop-color="#D8B364"/>
<stop offset="0.5246" stop-color="#D4AE5D"/>
<stop offset="0.5617" stop-color="#CA9F4A"/>
<stop offset="0.6053" stop-color="#B9882C"/>
<stop offset="0.6414" stop-color="#A8700D"/>
<stop offset="0.6805" stop-color="#815400"/>
<stop offset="0.8029" stop-color="#B38116"/>
<stop offset="0.8267" stop-color="#A27114"/>
<stop offset="0.8802" stop-color="#815110"/>
<stop offset="0.9247" stop-color="#6C3D0E"/>
<stop offset="0.9545" stop-color="#65360D"/>
<stop offset="0.9581" stop-color="#6F3F0D"/>
<stop offset="0.9701" stop-color="#8A580C"/>
<stop offset="0.9807" stop-color="#9B670C"/>
<stop offset="0.9886" stop-color="#A16C0C"/>
</linearGradient>
<linearGradient id="paint6_linear_8951_27790" x1="37.941" y1="15.4487" x2="38.1943" y2="18.9102" gradientUnits="userSpaceOnUse">
<stop stop-color="#A16C0C"/>
<stop offset="0.2318" stop-color="#BE9134"/>
<stop offset="0.5559" stop-color="#A8700D"/>
<stop offset="1" stop-color="#432400"/>
</linearGradient>
<linearGradient id="paint7_linear_8951_27790" x1="34.7478" y1="31.9013" x2="33.9035" y2="23.7962" gradientUnits="userSpaceOnUse">
<stop stop-color="#A16C0C"/>
<stop offset="0.2318" stop-color="#BE9134"/>
<stop offset="0.5559" stop-color="#A8700D"/>
<stop offset="1" stop-color="#432400"/>
</linearGradient>
<linearGradient id="paint8_linear_8951_27790" x1="32.247" y1="16.6204" x2="33.5767" y2="20.2086" gradientUnits="userSpaceOnUse">
<stop stop-color="#A16C0C"/>
<stop offset="0.2318" stop-color="#BE9134"/>
<stop offset="0.5559" stop-color="#A8700D"/>
<stop offset="1" stop-color="#432400"/>
</linearGradient>
<linearGradient id="paint9_linear_8951_27790" x1="41.9192" y1="24.1107" x2="32.5899" y2="21.029" gradientUnits="userSpaceOnUse">
<stop stop-color="#A16C0C"/>
<stop offset="0.2318" stop-color="#BE9134"/>
<stop offset="0.5559" stop-color="#A8700D"/>
<stop offset="1" stop-color="#432400"/>
</linearGradient>
<linearGradient id="paint10_linear_8951_27790" x1="25.6844" y1="25.4422" x2="25.7857" y2="28.4284" gradientUnits="userSpaceOnUse">
<stop stop-color="#A16C0C"/>
<stop offset="0.2318" stop-color="#BE9134"/>
<stop offset="0.5559" stop-color="#A8700D"/>
<stop offset="1" stop-color="#432400"/>
</linearGradient>
<linearGradient id="paint11_linear_8951_27790" x1="27.1475" y1="32.8472" x2="25.7966" y2="27.1273" gradientUnits="userSpaceOnUse">
<stop stop-color="#A16C0C"/>
<stop offset="0.2318" stop-color="#BE9134"/>
<stop offset="0.5559" stop-color="#A8700D"/>
<stop offset="1" stop-color="#432400"/>
</linearGradient>
<linearGradient id="paint12_linear_8951_27790" x1="24.5144" y1="27.7686" x2="24.5328" y2="28.3108" gradientUnits="userSpaceOnUse">
<stop stop-color="#A16C0C"/>
<stop offset="0.1816" stop-color="#DBBF7D"/>
<stop offset="0.3268" stop-color="#BE9134"/>
<stop offset="0.433" stop-color="#A8700D"/>
<stop offset="0.7067" stop-color="#D9AA59"/>
<stop offset="0.8492" stop-color="#A16C0C"/>
<stop offset="1" stop-color="#602400"/>
</linearGradient>
<linearGradient id="paint13_linear_8951_27790" x1="35.6099" y1="4.9135" x2="29.2356" y2="22.1789" gradientUnits="userSpaceOnUse">
<stop stop-color="#A16C0C"/>
<stop offset="0.2318" stop-color="#BE9134"/>
<stop offset="0.5559" stop-color="#A8700D"/>
<stop offset="1" stop-color="#432400"/>
</linearGradient>
<linearGradient id="paint14_linear_8951_27790" x1="25.0061" y1="20.184" x2="25.1539" y2="24.4265" gradientUnits="userSpaceOnUse">
<stop stop-color="#A16C0C"/>
<stop offset="0.2318" stop-color="#BE9134"/>
<stop offset="0.5559" stop-color="#A8700D"/>
<stop offset="1" stop-color="#432400"/>
</linearGradient>
<linearGradient id="paint15_linear_8951_27790" x1="25.143" y1="34.1605" x2="21.5549" y2="29.8547" gradientUnits="userSpaceOnUse">
<stop stop-color="#A16C0C"/>
<stop offset="0.2318" stop-color="#BE9134"/>
<stop offset="0.5559" stop-color="#A8700D"/>
<stop offset="1" stop-color="#432400"/>
</linearGradient>
<linearGradient id="paint16_linear_8951_27790" x1="15.3614" y1="23.7244" x2="19.2873" y2="26.6794" gradientUnits="userSpaceOnUse">
<stop stop-color="#A16C0C"/>
<stop offset="0.2318" stop-color="#BE9134"/>
<stop offset="0.5559" stop-color="#A8700D"/>
<stop offset="1" stop-color="#432400"/>
</linearGradient>
<linearGradient id="paint17_linear_8951_27790" x1="20.404" y1="32.194" x2="17.048" y2="26.875" gradientUnits="userSpaceOnUse">
<stop stop-color="#A16C0C"/>
<stop offset="0.2318" stop-color="#BE9134"/>
<stop offset="0.5559" stop-color="#A8700D"/>
<stop offset="1" stop-color="#432400"/>
</linearGradient>
<linearGradient id="paint18_linear_8951_27790" x1="26.1204" y1="16.4626" x2="20.1894" y2="22.8158" gradientUnits="userSpaceOnUse">
<stop stop-color="#A16C0C"/>
<stop offset="0.2318" stop-color="#BE9134"/>
<stop offset="0.5559" stop-color="#A8700D"/>
<stop offset="1" stop-color="#432400"/>
</linearGradient>
<linearGradient id="paint19_linear_8951_27790" x1="11.2568" y1="41.1281" x2="42.1573" y2="10.3543" gradientUnits="userSpaceOnUse">
<stop stop-color="#D2AB5A"/>
<stop offset="0.0610851" stop-color="#BA9443"/>
<stop offset="0.1898" stop-color="#7C5808"/>
<stop offset="0.2069" stop-color="#735000"/>
<stop offset="0.2274" stop-color="#775200"/>
<stop offset="0.3376" stop-color="#8A5D00"/>
<stop offset="0.4146" stop-color="#916100"/>
<stop offset="0.4344" stop-color="#976707"/>
<stop offset="0.5154" stop-color="#CA982D"/>
<stop offset="0.5538" stop-color="#C49128"/>
<stop offset="0.6086" stop-color="#B47F19"/>
<stop offset="0.6414" stop-color="#A8700D"/>
<stop offset="0.6805" stop-color="#815400"/>
<stop offset="0.8029" stop-color="#B38116"/>
<stop offset="0.8267" stop-color="#A27114"/>
<stop offset="0.8802" stop-color="#815110"/>
<stop offset="0.9247" stop-color="#6C3D0E"/>
<stop offset="0.9545" stop-color="#65360D"/>
<stop offset="0.9581" stop-color="#6F3F0D"/>
<stop offset="0.9701" stop-color="#8A580C"/>
<stop offset="0.9807" stop-color="#9B670C"/>
<stop offset="0.9886" stop-color="#A16C0C"/>
</linearGradient>
<linearGradient id="paint20_linear_8951_27790" x1="24.2135" y1="22.2737" x2="21.9128" y2="18.0524" gradientUnits="userSpaceOnUse">
<stop stop-color="#A16C0C"/>
<stop offset="0.2318" stop-color="#BE9134"/>
<stop offset="0.5559" stop-color="#A8700D"/>
<stop offset="1" stop-color="#432400"/>
</linearGradient>
<linearGradient id="paint21_linear_8951_27790" x1="36.2421" y1="14.8807" x2="21.5718" y2="32.3698" gradientUnits="userSpaceOnUse">
<stop stop-color="#D2AB5A"/>
<stop offset="0.0610851" stop-color="#BA9443"/>
<stop offset="0.1898" stop-color="#7C5808"/>
<stop offset="0.2069" stop-color="#735000"/>
<stop offset="0.2274" stop-color="#775200"/>
<stop offset="0.3376" stop-color="#8A5D00"/>
<stop offset="0.4146" stop-color="#916100"/>
<stop offset="0.4344" stop-color="#976707"/>
<stop offset="0.4986" stop-color="#D8B364"/>
<stop offset="0.5246" stop-color="#D4AE5D"/>
<stop offset="0.5617" stop-color="#CA9F4A"/>
<stop offset="0.6053" stop-color="#B9882C"/>
<stop offset="0.6414" stop-color="#A8700D"/>
<stop offset="0.6805" stop-color="#815400"/>
<stop offset="0.8029" stop-color="#B38116"/>
<stop offset="0.8267" stop-color="#A27114"/>
<stop offset="0.8802" stop-color="#815110"/>
<stop offset="0.9247" stop-color="#6C3D0E"/>
<stop offset="0.9545" stop-color="#65360D"/>
<stop offset="0.9581" stop-color="#6F3F0D"/>
<stop offset="0.9701" stop-color="#8A580C"/>
<stop offset="0.9807" stop-color="#9B670C"/>
<stop offset="0.9886" stop-color="#A16C0C"/>
</linearGradient>
<radialGradient id="paint22_radial_8951_27790" cx="0" cy="0" r="1" gradientUnits="userSpaceOnUse" gradientTransform="translate(8.12892 19.0934) rotate(90.0655) scale(4.00045 4.1721)">
<stop stop-color="white"/>
<stop offset="0.1392" stop-color="#FFF4E1" stop-opacity="0.8608"/>
<stop offset="0.4329" stop-color="#FFE0A8" stop-opacity="0.5671"/>
<stop offset="0.6847" stop-color="#FFD17E" stop-opacity="0.3153"/>
<stop offset="0.8819" stop-color="#FFC864" stop-opacity="0.1181"/>
<stop offset="1" stop-color="#FFC55B" stop-opacity="0"/>
</radialGradient>
<radialGradient id="paint23_radial_8951_27790" cx="0" cy="0" r="1" gradientUnits="userSpaceOnUse" gradientTransform="translate(8.1299 19.0923) rotate(-179.889) scale(8.05558 1.54581)">
<stop stop-color="white"/>
<stop offset="0.1392" stop-color="#FFF4E1" stop-opacity="0.8608"/>
<stop offset="0.4329" stop-color="#FFE0A8" stop-opacity="0.5671"/>
<stop offset="0.6847" stop-color="#FFD17E" stop-opacity="0.3153"/>
<stop offset="0.8819" stop-color="#FFC864" stop-opacity="0.1181"/>
<stop offset="1" stop-color="#FFC55B" stop-opacity="0"/>
</radialGradient>
<radialGradient id="paint24_radial_8951_27790" cx="0" cy="0" r="1" gradientUnits="userSpaceOnUse" gradientTransform="translate(8.12933 19.0923) rotate(90.0661) scale(8.02927 1.55086)">
<stop stop-color="white"/>
<stop offset="0.1392" stop-color="#FFF4E1" stop-opacity="0.8608"/>
<stop offset="0.4329" stop-color="#FFE0A8" stop-opacity="0.5671"/>
<stop offset="0.6847" stop-color="#FFD17E" stop-opacity="0.3153"/>
<stop offset="0.8819" stop-color="#FFC864" stop-opacity="0.1181"/>
<stop offset="1" stop-color="#FFC55B" stop-opacity="0"/>
</radialGradient>
<radialGradient id="paint25_radial_8951_27790" cx="0" cy="0" r="1" gradientUnits="userSpaceOnUse" gradientTransform="translate(8.12964 19.0933) rotate(90.066) scale(7.64473 0.814578)">
<stop stop-color="white"/>
<stop offset="0.1594" stop-color="#FFF0D5" stop-opacity="0.8406"/>
<stop offset="0.3495" stop-color="#FFE1A9" stop-opacity="0.6505"/>
<stop offset="0.5337" stop-color="#FFD587" stop-opacity="0.4663"/>
<stop offset="0.7078" stop-color="#FFCC6F" stop-opacity="0.2922"/>
<stop offset="0.8677" stop-color="#FFC760" stop-opacity="0.1323"/>
<stop offset="1" stop-color="#FFC55B" stop-opacity="0"/>
</radialGradient>
<radialGradient id="paint26_radial_8951_27790" cx="0" cy="0" r="1" gradientUnits="userSpaceOnUse" gradientTransform="translate(8.13002 19.0918) rotate(90.0663) scale(3.78796 3.42343)">
<stop stop-color="white"/>
<stop offset="0.1594" stop-color="#FFF0D5" stop-opacity="0.8406"/>
<stop offset="0.3495" stop-color="#FFE1A9" stop-opacity="0.6505"/>
<stop offset="0.5337" stop-color="#FFD587" stop-opacity="0.4663"/>
<stop offset="0.7078" stop-color="#FFCC6F" stop-opacity="0.2922"/>
<stop offset="0.8677" stop-color="#FFC760" stop-opacity="0.1323"/>
<stop offset="1" stop-color="#FFC55B" stop-opacity="0"/>
</radialGradient>
<radialGradient id="paint27_radial_8951_27790" cx="0" cy="0" r="1" gradientUnits="userSpaceOnUse" gradientTransform="translate(8.12984 19.0925) rotate(-179.889) scale(7.66964 0.811919)">
<stop stop-color="white"/>
<stop offset="0.1123" stop-color="#FFF1D7" stop-opacity="0.8877"/>
<stop offset="0.2389" stop-color="#FFE3B1" stop-opacity="0.7611"/>
<stop offset="0.3711" stop-color="#FFD892" stop-opacity="0.6289"/>
<stop offset="0.5084" stop-color="#FFD07A" stop-opacity="0.4916"/>
<stop offset="0.6529" stop-color="#FFCA68" stop-opacity="0.3471"/>
<stop offset="0.8095" stop-color="#FFC65E" stop-opacity="0.1905"/>
<stop offset="1" stop-color="#FFC55B" stop-opacity="0"/>
</radialGradient>
<radialGradient id="paint28_radial_8951_27790" cx="0" cy="0" r="1" gradientUnits="userSpaceOnUse" gradientTransform="translate(20.5382 4.11461) rotate(90.0655) scale(2.05064 2.13863)">
<stop stop-color="white"/>
<stop offset="0.1392" stop-color="#FFF4E1" stop-opacity="0.8608"/>
<stop offset="0.4329" stop-color="#FFE0A8" stop-opacity="0.5671"/>
<stop offset="0.6847" stop-color="#FFD17E" stop-opacity="0.3153"/>
<stop offset="0.8819" stop-color="#FFC864" stop-opacity="0.1181"/>
<stop offset="1" stop-color="#FFC55B" stop-opacity="0"/>
</radialGradient>
<radialGradient id="paint29_radial_8951_27790" cx="0" cy="0" r="1" gradientUnits="userSpaceOnUse" gradientTransform="translate(20.5382 4.11393) rotate(-179.889) scale(4.12935 0.79239)">
<stop stop-color="white"/>
<stop offset="0.1392" stop-color="#FFF4E1" stop-opacity="0.8608"/>
<stop offset="0.4329" stop-color="#FFE0A8" stop-opacity="0.5671"/>
<stop offset="0.6847" stop-color="#FFD17E" stop-opacity="0.3153"/>
<stop offset="0.8819" stop-color="#FFC864" stop-opacity="0.1181"/>
<stop offset="1" stop-color="#FFC55B" stop-opacity="0"/>
</radialGradient>
<radialGradient id="paint30_radial_8951_27790" cx="0" cy="0" r="1" gradientUnits="userSpaceOnUse" gradientTransform="translate(20.538 4.11373) rotate(90.0661) scale(4.11587 0.794983)">
<stop stop-color="white"/>
<stop offset="0.1392" stop-color="#FFF4E1" stop-opacity="0.8608"/>
<stop offset="0.4329" stop-color="#FFE0A8" stop-opacity="0.5671"/>
<stop offset="0.6847" stop-color="#FFD17E" stop-opacity="0.3153"/>
<stop offset="0.8819" stop-color="#FFC864" stop-opacity="0.1181"/>
<stop offset="1" stop-color="#FFC55B" stop-opacity="0"/>
</radialGradient>
<radialGradient id="paint31_radial_8951_27790" cx="0" cy="0" r="1" gradientUnits="userSpaceOnUse" gradientTransform="translate(20.5377 4.11372) rotate(90.066) scale(3.91869 0.417553)">
<stop stop-color="white"/>
<stop offset="0.1594" stop-color="#FFF0D5" stop-opacity="0.8406"/>
<stop offset="0.3495" stop-color="#FFE1A9" stop-opacity="0.6505"/>
<stop offset="0.5337" stop-color="#FFD587" stop-opacity="0.4663"/>
<stop offset="0.7078" stop-color="#FFCC6F" stop-opacity="0.2922"/>
<stop offset="0.8677" stop-color="#FFC760" stop-opacity="0.1323"/>
<stop offset="1" stop-color="#FFC55B" stop-opacity="0"/>
</radialGradient>
<radialGradient id="paint32_radial_8951_27790" cx="0" cy="0" r="1" gradientUnits="userSpaceOnUse" gradientTransform="translate(20.5382 4.11364) rotate(90.0663) scale(1.94172 1.75486)">
<stop stop-color="white"/>
<stop offset="0.1594" stop-color="#FFF0D5" stop-opacity="0.8406"/>
<stop offset="0.3495" stop-color="#FFE1A9" stop-opacity="0.6505"/>
<stop offset="0.5337" stop-color="#FFD587" stop-opacity="0.4663"/>
<stop offset="0.7078" stop-color="#FFCC6F" stop-opacity="0.2922"/>
<stop offset="0.8677" stop-color="#FFC760" stop-opacity="0.1323"/>
<stop offset="1" stop-color="#FFC55B" stop-opacity="0"/>
</radialGradient>
<radialGradient id="paint33_radial_8951_27790" cx="0" cy="0" r="1" gradientUnits="userSpaceOnUse" gradientTransform="translate(20.5383 4.11277) rotate(-179.889) scale(3.93145 0.416188)">
<stop stop-color="white"/>
<stop offset="0.1123" stop-color="#FFF1D7" stop-opacity="0.8877"/>
<stop offset="0.2389" stop-color="#FFE3B1" stop-opacity="0.7611"/>
<stop offset="0.3711" stop-color="#FFD892" stop-opacity="0.6289"/>
<stop offset="0.5084" stop-color="#FFD07A" stop-opacity="0.4916"/>
<stop offset="0.6529" stop-color="#FFCA68" stop-opacity="0.3471"/>
<stop offset="0.8095" stop-color="#FFC65E" stop-opacity="0.1905"/>
<stop offset="1" stop-color="#FFC55B" stop-opacity="0"/>
</radialGradient>
</defs>
</svg>
