<svg width="55" height="62" viewBox="0 0 55 62" fill="none" xmlns="http://www.w3.org/2000/svg">
<path d="M1.80902 36.6609L1.88885 36.8405L4.04409 41.2708C4.18378 41.5901 4.34343 41.9093 4.52304 42.2486L4.62282 42.4482C4.92216 43.0069 5.24145 43.5657 5.62061 44.1045C5.30132 43.5258 5.04189 42.9471 4.78246 42.3683L52.2178 16.0265L52.1779 15.9666C52.0182 15.6673 51.8586 15.3879 51.679 15.0885L48.506 9.58069C40.0247 -3.43059 24 -1.77423 13.0043 6.14828C3.28577 12.3945 -3.37952 25.7849 1.80902 36.6609Z" fill="url(#paint0_linear_8951_27382)"/>
<path d="M6.91917 21.3346C3.40692 26.9422 2.02996 33.408 3.62644 39.3748C5.24287 45.3416 9.5334 49.712 15.141 51.9471C20.7686 54.1821 27.7532 54.2619 34.7178 51.6677C41.7024 49.0934 47.3699 44.3239 50.8821 38.7163C54.3944 33.1086 55.7713 26.6429 54.1749 20.6761C52.5784 14.7092 48.2879 10.3389 42.6603 8.10382C37.0527 5.88871 30.0481 5.80888 23.0835 8.3832C16.1189 10.9775 10.4314 15.727 6.91917 21.3346Z" fill="url(#paint1_linear_8951_27382)"/>
<path d="M23.9408 11.536C29.9076 9.32093 35.8545 9.40075 40.6838 11.2966C45.4932 13.2123 49.1452 16.9241 50.5221 22.0329C51.8991 27.1416 50.7217 32.6494 47.7083 37.4588C44.695 42.2682 39.8457 46.3193 33.8788 48.5344C27.912 50.7495 21.9651 50.6697 17.1358 48.7738C12.3264 46.8581 8.67448 43.1463 7.29752 38.0375C5.92056 32.9089 7.09796 27.421 10.1113 22.6116C13.1247 17.8022 17.954 13.7312 23.9408 11.536Z" fill="url(#paint2_linear_8951_27382)"/>
<path d="M36.0346 28.2591C36.0346 28.279 36.0346 28.279 36.0346 28.299C36.0545 28.5185 36.0545 28.738 36.0545 28.9775C36.0545 29.0573 36.0545 29.1371 36.0545 29.2169C36.0545 29.3766 36.0545 29.5562 36.0346 29.7158C36.0346 29.8156 36.0146 29.8954 36.0146 29.9952C35.9946 30.2147 35.9747 30.4343 35.9348 30.6538C35.9148 30.8334 35.8749 30.993 35.835 31.1726C35.815 31.2924 35.7951 31.4121 35.7552 31.5318C35.7352 31.6715 35.6953 31.7913 35.6554 31.9309C35.6155 32.0507 35.5955 32.1704 35.5556 32.2902C35.5157 32.4099 35.4758 32.5296 35.4359 32.6294C35.396 32.7691 35.3561 32.8888 35.2962 33.0285C35.2164 33.2281 35.1365 33.4476 35.0567 33.6472L35.6554 34.625C35.7352 34.4454 35.815 34.2858 35.8749 34.1061C35.8949 34.0862 35.8949 34.0463 35.8949 34.0263C35.9348 33.9066 35.9947 33.7669 36.0346 33.6272C36.0545 33.5474 36.0944 33.4476 36.1343 33.3678C36.1343 33.3478 36.1543 33.3079 36.1543 33.288C36.1942 33.1682 36.2142 33.0485 36.2541 32.9287C36.274 32.829 36.3139 32.7292 36.3339 32.6294C36.3339 32.5895 36.3539 32.5695 36.3539 32.5296C36.3738 32.4099 36.3938 32.2902 36.4337 32.1704C36.4536 32.0706 36.4736 31.9709 36.4935 31.8711C36.5135 31.8112 36.5135 31.7314 36.5335 31.6516C36.5534 31.4919 36.5734 31.3323 36.5933 31.1726C36.5933 31.1128 36.5933 31.0529 36.6133 30.993C36.6133 30.8932 36.6332 30.8134 36.6332 30.7136C36.6332 30.6538 36.6532 30.5739 36.6532 30.5141C36.6532 30.4143 36.6532 30.3145 36.6532 30.2147C36.6532 30.1349 36.6532 30.0551 36.6532 29.9753C36.6532 29.9354 36.6532 29.9154 36.6532 29.8755C36.6532 29.6759 36.6332 29.4963 36.6332 29.2968C36.6332 29.2768 36.6332 29.2768 36.6332 29.2569C36.6133 29.0573 36.5933 28.8577 36.5734 28.6582C36.5734 28.5983 36.5534 28.5584 36.5534 28.4985L35.9547 27.5207C35.9747 27.7402 36.0146 27.9996 36.0346 28.2591Z" fill="url(#paint3_linear_8951_27382)"/>
<path d="M39.8664 24.2471L39.2876 23.2493L42.8398 21.9322L43.4385 22.93L39.8664 24.2471Z" fill="url(#paint4_linear_8951_27382)"/>
<path d="M44.0979 40.3931C43.9981 40.4929 43.8983 40.6126 43.7985 40.7124C43.7586 40.7523 43.7187 40.7923 43.6588 40.8521C43.4593 41.0517 43.2797 41.2313 43.0801 41.4309C43.0003 41.5107 42.9205 41.5905 42.8406 41.6504C42.661 41.81 42.5014 41.9697 42.3218 42.1293C42.242 42.2091 42.1621 42.269 42.0624 42.3488C41.8428 42.5284 41.6433 42.708 41.4238 42.8876C41.3839 42.9275 41.324 42.9675 41.2841 43.0074C41.0047 43.2269 40.7054 43.4664 40.426 43.6859C40.406 43.7058 40.3861 43.7058 40.3661 43.7258C40.0867 43.9253 39.8073 44.1449 39.508 44.3245C39.4481 44.3644 39.4082 44.3843 39.3484 44.4242C39.1089 44.5839 38.8694 44.7435 38.6299 44.8832C38.5302 44.9431 38.4503 45.003 38.3506 45.0628C38.1909 45.1626 38.0313 45.2624 37.8716 45.3422C37.5723 45.5218 37.2729 45.6815 36.9736 45.8611C36.8539 45.9209 36.7541 45.9808 36.6343 46.0407C36.2951 46.2203 35.9359 46.3999 35.5966 46.5595C35.5567 46.5795 35.5168 46.5994 35.4769 46.6194C35.0977 46.799 34.7186 46.9586 34.3195 47.1382C33.9802 47.2779 33.621 47.4176 33.2817 47.5573C33.0822 47.6372 32.8826 47.697 32.6831 47.7768C32.4636 47.8567 32.244 47.9365 32.0245 47.9964C31.8449 48.0562 31.6853 48.0961 31.5057 48.156C31.3061 48.2159 31.0866 48.2757 30.887 48.3356C30.7074 48.3755 30.5278 48.4354 30.3482 48.4753C30.1487 48.5352 29.9491 48.5751 29.7495 48.615C29.5699 48.6549 29.3903 48.6948 29.2307 48.7148C29.0311 48.7547 28.8116 48.7946 28.6121 48.8345C28.4324 48.8744 28.2728 48.8944 28.0932 48.9143C27.8737 48.9542 27.6741 48.9742 27.4546 49.0141C27.295 49.0341 27.1154 49.054 26.9557 49.074C26.7362 49.0939 26.5167 49.1139 26.2772 49.1338C26.1176 49.1538 25.9579 49.1538 25.7983 49.1738C25.5388 49.1937 25.2994 49.1937 25.0399 49.2137C24.9002 49.2137 24.7606 49.2336 24.6209 49.2336C24.2617 49.2336 23.8825 49.2336 23.5233 49.2336C23.4834 49.2336 23.4435 49.2336 23.4035 49.2336C22.9645 49.2137 22.5454 49.1937 22.1264 49.1538C21.9268 49.1339 21.7272 49.1139 21.5277 49.0939C21.4279 49.074 21.3481 49.074 21.2483 49.054C20.949 49.0141 20.6297 48.9742 20.3303 48.9143C19.9911 48.8545 19.6518 48.7946 19.3325 48.7148C19.3126 48.7148 19.2727 48.6948 19.2527 48.6948C18.9534 48.615 18.654 48.5551 18.3547 48.4553C18.1551 48.3955 17.9356 48.3356 17.7361 48.2558C17.6363 48.2159 17.5165 48.1959 17.4168 48.156C17.1174 48.0562 16.7981 47.9365 16.5187 47.8168C13.0664 46.4598 10.2127 44.1449 8.37671 41.0916L8.97539 42.0694C10.8313 45.1427 13.685 47.4376 17.1174 48.7946C17.4168 48.9143 17.7161 49.0141 18.0154 49.1338C18.1152 49.1738 18.235 49.1937 18.3347 49.2336C18.5343 49.2935 18.7339 49.3534 18.9334 49.4132H18.9534C19.2527 49.4931 19.5321 49.5729 19.8314 49.6327C19.8713 49.6327 19.8913 49.6527 19.9312 49.6527C20.2705 49.7325 20.5898 49.7924 20.929 49.8523H20.949C21.2483 49.9121 21.5476 49.952 21.847 49.9919C21.9468 50.0119 22.0266 50.0119 22.1264 50.0319C22.286 50.0518 22.4257 50.0718 22.5854 50.0917C22.6253 50.0917 22.6851 50.0917 22.725 50.0917C23.1441 50.1316 23.5832 50.1716 24.0022 50.1716C24.0022 50.1716 24.0022 50.1716 24.0222 50.1716C24.0621 50.1716 24.0821 50.1716 24.122 50.1716C24.4812 50.1915 24.8603 50.1915 25.2195 50.1716C25.2595 50.1716 25.2994 50.1716 25.3592 50.1716C25.459 50.1716 25.5588 50.1516 25.6586 50.1516C25.898 50.1516 26.1575 50.1316 26.4169 50.1117C26.4967 50.1117 26.5566 50.1117 26.6364 50.1117C26.7162 50.1117 26.816 50.0917 26.8958 50.0917C27.1154 50.0718 27.3349 50.0518 27.5544 50.0319C27.6542 50.0119 27.734 50.0119 27.8338 50.0119C27.9136 50.0119 27.9735 49.992 28.0533 49.972C28.2528 49.952 28.4724 49.9121 28.6919 49.8722C28.7917 49.8523 28.9114 49.8523 29.0112 49.8323C29.071 49.8123 29.1309 49.8123 29.2107 49.7924C29.4103 49.7525 29.6098 49.7126 29.8294 49.6727C29.9491 49.6527 30.0688 49.6327 30.1886 49.6128C30.2484 49.5928 30.3083 49.5928 30.3482 49.5729C30.5478 49.533 30.7473 49.4731 30.9469 49.4332C31.0666 49.3933 31.2063 49.3733 31.3261 49.3334C31.3859 49.3134 31.4258 49.3134 31.4857 49.2935C31.6853 49.2336 31.8848 49.1738 32.0844 49.1139C32.2241 49.074 32.3438 49.0341 32.4835 48.9942C32.5234 48.9742 32.5633 48.9742 32.6032 48.9542C32.8228 48.8944 33.0223 48.8145 33.2418 48.7347C33.3815 48.6948 33.5212 48.6549 33.641 48.595C33.7008 48.5751 33.7806 48.5352 33.8405 48.5152C34.1798 48.3955 34.4991 48.2558 34.8383 48.136C34.8583 48.136 34.8782 48.1161 34.8982 48.1161C35.2973 47.9564 35.6765 47.7768 36.0556 47.6172H36.0756C36.1155 47.5972 36.1554 47.5773 36.1953 47.5573C36.5346 47.3977 36.8938 47.2181 37.233 47.0385C37.2729 47.0185 37.3128 46.9986 37.3328 46.9786C37.4126 46.9387 37.4924 46.8988 37.5723 46.8389C37.8716 46.6793 38.171 46.4997 38.4703 46.3201C38.5302 46.2801 38.61 46.2402 38.6699 46.2003C38.7696 46.1404 38.8495 46.0806 38.9492 46.0207C39.049 45.9609 39.1288 45.901 39.2286 45.8411C39.4681 45.6815 39.7076 45.5218 39.947 45.3622C40.0069 45.3223 40.0468 45.3023 40.1067 45.2624C40.1266 45.2624 40.1266 45.2424 40.1466 45.2424C40.426 45.0628 40.6854 44.8633 40.9648 44.6637C40.9847 44.6438 41.0047 44.6438 41.0047 44.6238C41.2841 44.4043 41.5635 44.2047 41.8428 43.9852C41.8628 43.9852 41.8628 43.9653 41.8828 43.9653C41.9227 43.9253 41.9825 43.8854 42.0225 43.8455C42.242 43.6659 42.4615 43.4863 42.661 43.3067C42.7409 43.2269 42.8207 43.167 42.9205 43.0872C43.1001 42.9275 43.2797 42.7679 43.4393 42.6082C43.5191 42.5284 43.599 42.4486 43.6788 42.3688C43.8784 42.1692 44.0779 41.9896 44.2575 41.7901C44.2974 41.7501 44.3373 41.7102 44.3972 41.6504C44.4172 41.6304 44.4172 41.6304 44.4371 41.6104C44.5169 41.5107 44.6167 41.4309 44.6966 41.3311C44.8562 41.1515 45.0158 40.9918 45.1755 40.8122C45.2753 40.6925 45.3751 40.5727 45.4748 40.453C45.6145 40.2934 45.7542 40.1138 45.8939 39.9541C45.9937 39.8344 46.0935 39.6947 46.1932 39.575C46.313 39.4153 46.4527 39.2357 46.5724 39.0761C46.6722 38.9364 46.772 38.8166 46.8518 38.6769C46.9715 38.5173 47.0913 38.3377 47.211 38.178C47.231 38.1381 47.2709 38.0982 47.2908 38.0583C47.4305 37.8388 47.5902 37.6193 47.7299 37.3997C47.9494 37.0605 48.1489 36.7212 48.3285 36.382C48.3884 36.2822 48.4483 36.1625 48.5081 36.0627C48.6279 35.8232 48.7676 35.5838 48.8873 35.3443C48.9073 35.2844 48.9472 35.2246 48.9671 35.1846C49.007 35.0849 49.0469 35.005 49.0869 34.9053C49.1467 34.7656 49.2266 34.6059 49.2864 34.4662C49.3662 34.3066 49.4261 34.1469 49.5059 33.9673C49.5658 33.8276 49.6257 33.668 49.6855 33.5283C49.7055 33.4684 49.7255 33.4086 49.7654 33.3487C49.7853 33.2888 49.8053 33.229 49.8252 33.1691C49.9849 32.75 50.1246 32.3509 50.2443 31.9318C50.2643 31.8919 50.2643 31.8719 50.2842 31.832C50.2842 31.8121 50.2842 31.8121 50.2842 31.7921C50.404 31.393 50.5037 30.9939 50.6035 30.6147C50.6035 30.5748 50.6235 30.5349 50.6235 30.495C50.6434 30.4152 50.6634 30.3353 50.6634 30.2555C50.7232 29.9961 50.7632 29.7566 50.8031 29.4972C50.823 29.4373 50.823 29.3575 50.843 29.2976C50.8629 29.2378 50.8629 29.1579 50.8629 29.0981C50.9029 28.8786 50.9228 28.659 50.9428 28.4196C50.9627 28.3397 50.9627 28.24 50.9827 28.1601C50.9827 28.1202 50.9827 28.0604 51.0026 28.0205C51.0226 27.8209 51.0425 27.6014 51.0425 27.4018C51.0425 27.302 51.0625 27.2023 51.0625 27.0825C51.0625 27.0426 51.0625 27.0226 51.0625 26.9827C51.0625 26.7832 51.0625 26.5836 51.0625 26.3841C51.0625 26.2643 51.0625 26.1645 51.0625 26.0448C51.0625 26.0248 51.0625 26.0049 51.0625 25.965C51.0625 25.7654 51.0425 25.5659 51.0425 25.3663C51.0425 25.2466 51.0425 25.1268 51.0226 25.0071C51.0226 24.9872 51.0226 24.9672 51.0226 24.9672C51.0026 24.7676 50.9827 24.5681 50.9627 24.3685C50.9428 24.2488 50.9428 24.129 50.9228 24.0093C50.9228 23.9894 50.9228 23.9893 50.9228 23.9694C50.8829 23.7299 50.843 23.4904 50.8031 23.251C50.7831 23.1711 50.7831 23.0714 50.7632 22.9915C50.7632 22.9915 50.7632 22.9916 50.7632 22.9716C50.7033 22.6523 50.6235 22.313 50.5237 21.9937V21.9538C50.4239 21.6146 50.3241 21.2753 50.2044 20.9361C50.2044 20.9361 50.2044 20.9361 50.2044 20.9161C50.1445 20.7166 50.0647 20.517 49.9849 20.3374C49.925 20.1977 49.8851 20.0381 49.8252 19.8984C49.8252 19.8984 49.8252 19.8984 49.8252 19.8784C49.8252 19.8784 49.8252 19.8585 49.8053 19.8585C49.6656 19.5392 49.5259 19.2398 49.3862 18.9405C49.3662 18.9205 49.3662 18.9006 49.3463 18.8806C49.3463 18.8607 49.3263 18.8607 49.3263 18.8407C49.1667 18.5414 49.007 18.242 48.8274 17.9626L48.2288 16.9848C48.4084 17.2841 48.588 17.5835 48.7476 17.9028C48.7676 17.9227 48.7676 17.9427 48.7875 17.9626C48.9472 18.262 49.0869 18.5613 49.2066 18.8806C49.2066 18.8806 49.2066 18.9006 49.2266 18.9006C49.2864 19.0403 49.3463 19.1999 49.4062 19.3396C49.486 19.5392 49.5658 19.7188 49.6257 19.9183C49.7454 20.2576 49.8452 20.6168 49.945 20.976C50.0248 21.2953 50.1046 21.6345 50.1844 21.9538C50.2044 22.0536 50.2243 22.1334 50.2243 22.2332C50.2643 22.4727 50.3042 22.7122 50.3441 22.9516C50.364 23.0913 50.364 23.2111 50.384 23.3508C50.404 23.5503 50.4239 23.7499 50.4439 23.9494C50.4638 24.0891 50.4638 24.2288 50.4638 24.3685C50.4838 24.5681 50.4838 24.7676 50.4838 24.9672C50.4838 25.1069 50.4838 25.2466 50.4838 25.3863C50.4838 25.5858 50.4838 25.7854 50.4838 25.9849C50.4838 26.1246 50.4638 26.2643 50.4638 26.404C50.4439 26.6036 50.4439 26.8231 50.4239 27.0227C50.404 27.1623 50.404 27.302 50.384 27.4417C50.364 27.6612 50.3241 27.8808 50.3042 28.1003C50.2842 28.24 50.2643 28.3797 50.2443 28.5193C50.2044 28.7788 50.1445 29.0182 50.1046 29.2777C50.0847 29.3974 50.0447 29.5171 50.0248 29.6369C49.925 30.036 49.8252 30.4351 49.7055 30.8143C49.6855 30.8542 49.6855 30.8941 49.6656 30.954C49.5458 31.3731 49.4062 31.7722 49.2465 32.1912C49.2066 32.311 49.1667 32.4307 49.1068 32.5505C49.0469 32.6901 48.9871 32.8498 48.9272 32.9895C48.8673 33.1491 48.7875 33.3088 48.7077 33.4884C48.6478 33.6281 48.568 33.7877 48.5081 33.9274C48.4283 34.0671 48.3684 34.2267 48.2886 34.3664C48.1689 34.6059 48.0492 34.8454 47.9095 35.0849C47.8496 35.1846 47.7897 35.3044 47.7299 35.4042C47.5303 35.7434 47.3307 36.0827 47.1312 36.4219C46.9715 36.6813 46.7919 36.9408 46.6323 37.2002C46.5125 37.3598 46.3928 37.5394 46.2731 37.6991C46.1733 37.8388 46.0935 37.9585 45.9937 38.0982C45.874 38.2579 45.7343 38.4375 45.6145 38.5971C45.5147 38.7168 45.415 38.8565 45.3152 38.9763C45.1755 39.1359 45.0358 39.3155 44.8961 39.4752C44.7963 39.5949 44.6966 39.7146 44.5968 39.8344C44.4172 40.0539 44.2575 40.2335 44.0979 40.3931Z" fill="url(#paint5_linear_8951_27382)"/>
<mask id="mask0_8951_27382" style="mask-type:luminance" maskUnits="userSpaceOnUse" x="35" y="24" width="1" height="2">
<path d="M35.0562 24.766L35.6349 25.7438L35.6748 25.8037L35.0761 24.8059L35.0562 24.766Z" fill="white"/>
</mask>
<g mask="url(#mask0_8951_27382)">
<path d="M35.6748 25.8037L35.0761 24.8059L35.0562 24.766L35.6349 25.7438L35.6748 25.8037Z" fill="#784E4A"/>
</g>
<path d="M25.8967 31.7308C25.8767 31.8705 25.8368 32.0302 25.8169 32.1499C25.8169 32.1898 25.7969 32.2098 25.7969 32.2297C25.757 32.3495 25.737 32.4492 25.6971 32.569C25.6971 32.5889 25.6772 32.6089 25.6772 32.6288C25.6373 32.7486 25.5774 32.8883 25.5175 32.9881C25.4577 33.0878 25.3978 33.1677 25.3379 33.2475C25.298 33.2874 25.2781 33.3273 25.2381 33.3672C25.1783 33.4271 25.1184 33.487 25.0585 33.5468C25.0386 33.5668 25.0186 33.5867 24.9987 33.5867C24.8989 33.6666 24.8191 33.7264 24.6993 33.7863C24.6993 33.7863 24.6993 33.7863 24.6794 33.7863C24.5596 33.8462 24.4399 33.906 24.3202 33.9459C24.1805 34.0058 24.0408 34.0258 23.9211 34.0657H23.9011C23.7614 34.0856 23.6417 34.1056 23.5219 34.1056C23.4022 34.1056 23.2825 34.1056 23.1428 34.0856H23.1228C23.0031 34.0657 22.8833 34.0258 22.7636 33.9859C22.2647 33.8063 21.8257 33.4071 21.4465 32.7885L22.0452 33.7663C22.4244 34.385 22.8634 34.7841 23.3623 34.9637C23.4022 34.9837 23.4421 34.9837 23.482 35.0036C23.5419 35.0236 23.6217 35.0435 23.6816 35.0435C23.7015 35.0435 23.7015 35.0435 23.7215 35.0435H23.7414C23.7814 35.0435 23.8013 35.0635 23.8412 35.0635C23.8811 35.0635 23.941 35.0635 23.9809 35.0635H24.1007H24.1206H24.2204L24.3401 35.0435L24.4599 35.0236L24.5197 35.0036C24.5197 35.0036 24.5197 35.0036 24.5397 35.0036H24.5596C24.5996 35.0036 24.6395 34.9837 24.6794 34.9837C24.7193 34.9637 24.7592 34.9637 24.7991 34.9437C24.839 34.9238 24.8789 34.9238 24.9189 34.9038H24.9388L25.0386 34.8639C25.0785 34.844 25.1184 34.824 25.1384 34.824C25.1783 34.804 25.2182 34.7841 25.2381 34.7641C25.2581 34.7442 25.2781 34.7442 25.298 34.7242H25.318C25.3379 34.7242 25.3379 34.7043 25.3579 34.7043C25.3978 34.6843 25.4377 34.6644 25.4776 34.6244C25.5175 34.6045 25.5574 34.5646 25.5974 34.5247L25.6173 34.5047C25.6373 34.4848 25.6572 34.4648 25.6772 34.4648C25.7171 34.4249 25.757 34.4049 25.777 34.365C25.7969 34.3451 25.8169 34.3052 25.8368 34.2852C25.8767 34.2453 25.8967 34.2054 25.9366 34.1655C25.9566 34.1455 25.9765 34.1255 25.9965 34.1056C26.0364 34.0457 26.0763 33.9659 26.1162 33.906L26.1561 33.8262C26.196 33.7464 26.2359 33.6466 26.2759 33.5668V33.5468C26.2759 33.5269 26.2958 33.5069 26.2958 33.487C26.3158 33.4271 26.3357 33.3672 26.3557 33.3074C26.3756 33.2674 26.3756 33.2076 26.3956 33.1677C26.3956 33.1477 26.4155 33.1078 26.4155 33.0878C26.4155 33.0679 26.4355 33.0479 26.4355 33.028C26.4555 32.9282 26.4754 32.8085 26.4954 32.6887V32.6688C26.4954 32.6289 26.4954 32.6089 26.5153 32.569C26.5353 32.4692 26.5353 32.3894 26.5552 32.2896C26.5552 32.2297 26.5752 32.1699 26.5752 32.11L25.9765 31.1322C25.9566 31.2918 25.9366 31.4315 25.9166 31.5712C25.8967 31.671 25.8967 31.7109 25.8967 31.7308Z" fill="url(#paint6_linear_8951_27382)"/>
<path d="M31.2845 27.4199L30.6858 26.4421L35.0761 24.8057L35.6748 25.8035L31.2845 27.4199Z" fill="url(#paint7_linear_8951_27382)"/>
<mask id="mask1_8951_27382" style="mask-type:luminance" maskUnits="userSpaceOnUse" x="17" y="34" width="2" height="3">
<path d="M18.4336 36.6602L17.8349 35.6823C17.5954 35.3032 17.3959 34.8841 17.1963 34.4251L17.795 35.4029C17.9746 35.8619 18.1941 36.281 18.4336 36.6602Z" fill="white"/>
</mask>
<g mask="url(#mask1_8951_27382)">
<path d="M18.4336 36.6602L17.8349 35.6823C17.7351 35.5027 17.6354 35.3431 17.5356 35.1435L18.1343 36.1213C18.2141 36.3009 18.3139 36.4806 18.4336 36.6602Z" fill="#784E4A"/>
</g>
<mask id="mask2_8951_27382" style="mask-type:luminance" maskUnits="userSpaceOnUse" x="17" y="34" width="2" height="3">
<path d="M18.4336 36.6602L17.8349 35.6823C17.5954 35.3032 17.3959 34.8841 17.1963 34.4251L17.795 35.4029C17.9746 35.8619 18.1941 36.281 18.4336 36.6602Z" fill="white"/>
</mask>
<g mask="url(#mask2_8951_27382)">
<path d="M18.1338 36.1211L17.5351 35.1433C17.4154 34.9038 17.2956 34.6643 17.1959 34.4248L17.7945 35.4027C17.8943 35.6621 18.0141 35.9016 18.1338 36.1211Z" fill="#7C514D"/>
</g>
<path d="M21.1872 31.1523L20.6085 30.1745L26.0166 28.159L26.6152 29.1567L21.1872 31.1523Z" fill="url(#paint8_linear_8951_27382)"/>
<path d="M13.5247 33.9863L12.946 33.0085L16.3984 31.7113L16.9971 32.7091L13.5247 33.9863Z" fill="url(#paint9_linear_8951_27382)"/>
<path d="M14.2627 36.7002L13.664 35.7223L12.9456 33.0083L13.5243 33.9862L14.2627 36.7002Z" fill="#8A5A55"/>
<path d="M28.9501 20.3554C28.8902 20.3953 28.8503 20.4353 28.7905 20.4752C28.7106 20.535 28.6308 20.5949 28.5709 20.6348C28.5709 20.6348 28.5709 20.6348 28.551 20.6348L28.531 20.6548C28.3714 20.7745 28.2317 20.9142 28.092 21.0539C28.072 21.0738 28.0521 21.0938 28.0321 21.1138C28.0122 21.1337 28.0122 21.1537 27.9922 21.1537C27.8725 21.2934 27.7528 21.4131 27.653 21.5528C27.5532 21.6725 27.4734 21.8122 27.3736 21.9319C27.3137 22.0118 27.2738 22.0916 27.2139 22.1714C27.194 22.2113 27.174 22.2512 27.1341 22.2912C27.0343 22.4708 26.9346 22.6304 26.8547 22.81C26.8348 22.8499 26.8348 22.8699 26.8148 22.9098C26.7949 22.9697 26.755 23.0295 26.735 23.1094C26.6951 23.1892 26.6552 23.289 26.6153 23.3688C26.5754 23.4686 26.5554 23.5484 26.5155 23.6482C26.4955 23.6881 26.4955 23.728 26.4756 23.7679C26.4756 23.7879 26.4556 23.8078 26.4556 23.8477C26.4157 23.9874 26.3758 24.1271 26.3359 24.2668C26.3159 24.3466 26.296 24.4264 26.296 24.5063C26.276 24.626 26.2561 24.7457 26.2361 24.8854C26.2161 25.0251 26.1962 25.1648 26.1762 25.3045V25.3245C26.1563 25.4841 26.1363 25.6637 26.1164 25.8234C26.1164 25.9032 26.0964 26.003 26.0964 26.0828C26.0964 26.1427 26.0765 26.2025 26.0765 26.2823C26.0565 26.5418 26.0365 26.7812 26.0365 27.0606C26.0365 27.0806 26.0365 27.1005 26.0365 27.1205C26.0365 27.1604 26.0365 27.1804 26.0365 27.2203C26.0166 27.5196 26.0166 27.8389 26.0166 28.1782L26.6153 29.156C26.6153 28.8367 26.6153 28.5174 26.6352 28.2181C26.6352 28.1782 26.6352 28.1582 26.6352 28.1183C26.6552 27.8389 26.6552 27.5595 26.6751 27.2801C26.6751 27.2203 26.6951 27.1604 26.6951 27.0806C26.715 26.8212 26.735 26.5617 26.7749 26.3223C26.7749 26.3023 26.7749 26.3023 26.7749 26.2823C26.8148 26.003 26.8547 25.7435 26.8946 25.4841C26.9346 25.2446 27.0144 24.9852 27.0743 24.7457C27.0942 24.7058 27.0942 24.6659 27.1142 24.626C27.174 24.4464 27.2539 24.2668 27.3337 24.0872C27.3536 24.0273 27.3935 23.9675 27.4135 23.8876C27.5133 23.6881 27.6131 23.4686 27.7328 23.269C27.7527 23.2291 27.7727 23.1892 27.8126 23.1493C27.9523 22.9297 28.092 22.7302 28.2317 22.5306C28.3315 22.3909 28.4512 22.2512 28.5709 22.1315C28.6109 22.0916 28.6308 22.0716 28.6707 22.0317C28.8104 21.892 28.9501 21.7523 29.1098 21.6326C29.1297 21.6127 29.1297 21.6127 29.1497 21.5927C29.2295 21.5328 29.3093 21.473 29.3891 21.4131C29.4291 21.3732 29.4889 21.3333 29.5288 21.3133C29.5488 21.2934 29.5887 21.2734 29.6087 21.2534C29.7084 21.1936 29.8082 21.1137 29.908 21.0539C29.9479 21.0339 29.9878 21.014 30.0277 20.9741C30.1275 20.9142 30.2073 20.8743 30.3071 20.8144C30.347 20.7945 30.4069 20.7545 30.4668 20.7346C30.5665 20.6947 30.6663 20.6348 30.7661 20.5949C30.826 20.5749 30.8659 20.555 30.9257 20.5151C31.0654 20.4552 31.2251 20.3953 31.3648 20.3355C31.5643 20.2556 31.7639 20.1958 31.9635 20.1359C32.0034 20.1359 32.0233 20.116 32.0632 20.116C32.2428 20.0561 32.4424 20.0162 32.622 19.9763C32.642 19.9763 32.6819 19.9563 32.7018 19.9563C32.8814 19.9164 33.061 19.8964 33.2406 19.8765C33.2606 19.8765 33.3005 19.8765 33.3205 19.8765C33.5001 19.8565 33.6797 19.8565 33.8593 19.8565C33.8992 19.8565 33.9191 19.8565 33.9591 19.8565C34.1387 19.8565 34.2983 19.8565 34.458 19.8765C34.4779 19.8765 34.4979 19.8765 34.5178 19.8765C34.6974 19.8964 34.877 19.9164 35.0566 19.9563C35.1564 19.9763 35.2562 19.9962 35.356 20.0162C35.4557 20.0361 35.5555 20.0561 35.6553 20.096C35.8748 20.1559 36.0744 20.2357 36.2939 20.3155C36.8926 20.555 37.4513 20.9142 37.9303 21.3532C38.4292 21.7923 38.8682 22.351 39.2673 22.9896L38.6687 22.0118C37.8904 20.7146 36.8926 19.8166 35.6952 19.3177C35.4757 19.2379 35.2761 19.1581 35.0566 19.0982C35.0367 19.0982 35.0167 19.0782 35.0167 19.0782C34.9369 19.0583 34.8571 19.0383 34.7772 19.0184C34.6775 18.9984 34.5777 18.9785 34.4779 18.9585C34.4579 18.9585 34.438 18.9585 34.418 18.9386C34.2584 18.9186 34.1187 18.8986 33.9591 18.8787H33.9391C33.9191 18.8787 33.8992 18.8787 33.8792 18.8787C33.7794 18.8787 33.6797 18.8587 33.5599 18.8587C33.5001 18.8587 33.4202 18.8587 33.3604 18.8587C33.3205 18.8587 33.3005 18.8587 33.2606 18.8587C33.2406 18.8587 33.2207 18.8587 33.1808 18.8587C33.061 18.8587 32.9613 18.8587 32.8415 18.8787C32.8016 18.8787 32.7617 18.8787 32.7018 18.8986C32.6819 18.8986 32.642 18.8986 32.622 18.8986C32.5821 18.8986 32.5422 18.8986 32.5023 18.9186C32.4025 18.9386 32.2828 18.9385 32.183 18.9585C32.1431 18.9585 32.1031 18.9785 32.0632 18.9785C32.0433 18.9785 32.0034 18.9984 31.9834 18.9984C31.9435 18.9984 31.9036 19.0184 31.8637 19.0184C31.7439 19.0383 31.6442 19.0782 31.5244 19.0982C31.4845 19.0982 31.4646 19.1182 31.4246 19.1182C31.3847 19.1182 31.3648 19.1381 31.3249 19.1381C31.265 19.1581 31.2251 19.1581 31.1652 19.178C31.0455 19.2179 30.9257 19.2578 30.806 19.2978L30.7461 19.3177C30.6264 19.3576 30.5067 19.4175 30.3869 19.4574C30.367 19.4774 30.3271 19.4774 30.3071 19.4973C30.2472 19.5173 30.2073 19.5372 30.1475 19.5572C30.0876 19.5771 30.0477 19.5971 29.9878 19.6171C29.9479 19.637 29.888 19.657 29.8481 19.6769C29.7883 19.6969 29.7483 19.7168 29.7084 19.7567C29.6885 19.7767 29.6486 19.7767 29.6286 19.7967C29.5687 19.8366 29.4889 19.8765 29.429 19.9164C29.3891 19.9364 29.3492 19.9563 29.3093 19.9962C29.2894 19.9962 29.2894 20.0162 29.2694 20.0162C29.1696 20.076 29.0898 20.1359 28.99 20.1958C29.01 20.3155 28.99 20.3355 28.9501 20.3554Z" fill="url(#paint10_linear_8951_27382)"/>
<path d="M28.2505 22.5518C28.949 21.6339 30.0066 20.9154 31.4035 20.3966C33.1397 19.758 34.7761 19.738 36.3127 20.3766C37.8493 21.0152 39.0467 22.2924 39.8848 24.2281L43.4569 22.911L44.1953 25.6251L40.723 26.9022C41.0024 28.2792 41.0622 29.6562 40.9225 31.0531C40.7828 32.45 40.4835 33.6274 40.0046 34.6252L35.714 34.5653C36.1131 33.6473 36.4125 32.6695 36.5522 31.5919C36.7118 30.5143 36.7118 29.4765 36.5522 28.4388L31.2439 30.3945C31.2239 31.8114 31.1242 33.0686 30.9046 34.1063C30.7051 35.164 30.2461 36.1418 29.5476 37.0598C28.8492 37.9778 27.7915 38.6962 26.3746 39.235C24.6185 39.8936 22.9622 39.8936 21.4056 39.255C19.849 38.6164 18.6517 37.3192 17.8135 35.3436L14.2813 36.6407L13.543 33.9267L17.0153 32.6495C16.6361 30.3347 16.7758 28.2592 17.4743 26.4033L21.7449 26.3235C21.2061 28.0198 21.0264 29.6162 21.2061 31.1129L26.6141 29.1173C26.6141 27.7204 26.7139 26.5031 26.9135 25.4654C27.0931 24.4477 27.552 23.4698 28.2505 22.5518ZM26.5343 32.1706L22.0242 33.8469C22.4034 34.4655 22.8424 34.8647 23.3413 35.0443C23.8402 35.2239 24.3591 35.2039 24.9179 35.0043C25.4567 34.8048 25.8358 34.4655 26.0953 34.0066C26.3347 33.5077 26.4744 32.909 26.5343 32.1706ZM34.4568 24.6273C33.9779 24.4476 33.479 24.4476 32.9601 24.6472C32.4413 24.8468 32.0421 25.1661 31.7827 25.645C31.5233 26.104 31.3636 26.7027 31.2838 27.4211L35.6741 25.8047C35.3349 25.206 34.9158 24.8069 34.4568 24.6273Z" fill="url(#paint11_linear_8951_27382)"/>
<path d="M28.2505 22.5518C28.949 21.6339 30.0066 20.9154 31.4035 20.3966C33.1397 19.758 34.7761 19.738 36.3127 20.3766C37.8493 21.0152 39.0467 22.2924 39.8848 24.2281L43.4569 22.911L44.1953 25.6251L40.723 26.9022C41.0024 28.2792 41.0622 29.6562 40.9225 31.0531C40.7828 32.45 40.4835 33.6274 40.0046 34.6252L35.714 34.5653C36.1131 33.6473 36.4125 32.6695 36.5522 31.5919C36.7118 30.5143 36.7118 29.4765 36.5522 28.4388L31.2439 30.3945C31.2239 31.8114 31.1242 33.0686 30.9046 34.1063C30.7051 35.164 30.2461 36.1418 29.5476 37.0598C28.8492 37.9778 27.7915 38.6962 26.3746 39.235C24.6185 39.8936 22.9622 39.8936 21.4056 39.255C19.849 38.6164 18.6517 37.3192 17.8135 35.3436L14.2813 36.6407L13.543 33.9267L17.0153 32.6495C16.6361 30.3347 16.7758 28.2592 17.4743 26.4033L21.7449 26.3235C21.2061 28.0198 21.0264 29.6162 21.2061 31.1129L26.6141 29.1173C26.6141 27.7204 26.7139 26.5031 26.9135 25.4654C27.0931 24.4477 27.552 23.4698 28.2505 22.5518ZM26.5343 32.1706L22.0242 33.8469C22.4034 34.4655 22.8424 34.8647 23.3413 35.0443C23.8402 35.2239 24.3591 35.2039 24.9179 35.0043C25.4567 34.8048 25.8358 34.4655 26.0953 34.0066C26.3347 33.5077 26.4744 32.909 26.5343 32.1706ZM34.4568 24.6273C33.9779 24.4477 33.479 24.4476 32.9601 24.6472C32.4413 24.8468 32.0421 25.1661 31.7827 25.645C31.5233 26.104 31.3636 26.7027 31.2838 27.4211L35.6741 25.8047C35.3349 25.206 34.9158 24.8069 34.4568 24.6273Z" stroke="url(#paint12_linear_8951_27382)" stroke-width="0.378367" stroke-miterlimit="10"/>
<path d="M17.456 26.4629L21.7266 26.3631L21.1478 25.3853L16.8573 25.4651L17.456 26.4629Z" fill="url(#paint13_linear_8951_27382)"/>
<path d="M16.8159 31.1724C16.8159 31.0327 16.796 30.9129 16.796 30.7733C16.796 30.6336 16.796 30.4939 16.776 30.3542C16.776 30.2344 16.776 30.1147 16.776 29.995C16.776 29.8553 16.776 29.7156 16.796 29.5559C16.796 29.4562 16.8159 29.3364 16.8159 29.2366C16.8359 29.097 16.8359 28.9373 16.8558 28.7976C16.8758 28.6978 16.8758 28.5981 16.8958 28.4983C16.9157 28.3586 16.9556 28.1989 16.9756 28.0592C16.9955 27.9794 17.0155 27.8796 17.0355 27.7998C17.0754 27.6601 17.1153 27.5005 17.1552 27.3608C17.1751 27.281 17.1951 27.1812 17.2151 27.1014C17.2749 26.8819 17.3547 26.6424 17.4346 26.4428L16.8359 25.465C16.7561 25.6645 16.6962 25.884 16.6164 26.0836C16.6164 26.1036 16.6164 26.1036 16.5964 26.1235C16.5765 26.2033 16.5565 26.2832 16.5366 26.3829C16.4966 26.5027 16.4767 26.6224 16.4368 26.7621C16.4368 26.7821 16.4368 26.802 16.4168 26.8419C16.3969 26.9218 16.3769 27.0215 16.3569 27.1014C16.337 27.2011 16.317 27.3209 16.2971 27.4207C16.2971 27.4606 16.2971 27.5005 16.2771 27.5404C16.2572 27.6402 16.2572 27.7399 16.2372 27.8397C16.2173 27.9196 16.2173 28.0193 16.1973 28.0992C16.1973 28.159 16.1973 28.2189 16.1773 28.2788C16.1773 28.3785 16.1574 28.4983 16.1574 28.5981C16.1574 28.6779 16.1374 28.7377 16.1374 28.8176C16.1374 28.8974 16.1374 28.9573 16.1374 29.0371C16.1374 29.1568 16.1374 29.2766 16.1374 29.3963C16.1374 29.4562 16.1374 29.516 16.1374 29.5759C16.1374 29.6557 16.1374 29.7355 16.1574 29.8154C16.1574 29.9551 16.1773 30.0748 16.1773 30.2145C16.1773 30.2744 16.1773 30.3342 16.1773 30.3941C16.1773 30.4739 16.1973 30.5537 16.1973 30.6136C16.2173 30.7733 16.2372 30.9329 16.2572 31.0926C16.2572 31.1524 16.2771 31.2123 16.2771 31.2921C16.2971 31.4318 16.317 31.5914 16.337 31.7311L16.9357 32.709C16.8958 32.4895 16.8758 32.2899 16.8558 32.0704C16.8359 31.9107 16.8159 31.7511 16.796 31.5915C16.8359 31.4518 16.8359 31.3121 16.8159 31.1724Z" fill="url(#paint14_linear_8951_27382)"/>
<path d="M23.9408 11.5363C29.9076 9.32117 35.8545 9.40099 40.6838 11.2968C45.4932 13.2126 49.1452 16.9244 50.5221 22.0331C51.8991 27.1418 50.7217 32.6497 47.7083 37.4591C44.695 42.2684 39.8457 46.3195 33.8788 48.5346C27.912 50.7497 21.9651 50.6699 17.1358 48.7741C12.3264 46.8583 8.67448 43.1465 7.29752 38.0378C5.92056 32.9091 7.09796 27.4212 10.1113 22.6118C13.1247 17.8025 17.954 13.7314 23.9408 11.5363Z" stroke="url(#paint15_linear_8951_27382)" stroke-width="0.378367" stroke-miterlimit="10"/>
<path d="M24.1008 52.1672C24.001 49.3135 26.1562 46.9188 28.8902 46.819C31.6441 46.7192 33.9391 48.9743 34.0189 51.828C34.1187 54.6817 31.9634 57.0764 29.2295 57.1761C26.4955 57.256 24.1806 55.0209 24.1008 52.1672Z" fill="url(#paint16_radial_8951_27382)"/>
<path d="M28.7309 41.9893C29.7885 41.9494 30.8063 46.3995 30.9859 51.9273C31.1655 57.4551 30.4471 61.9652 29.3894 62.0051C28.3318 62.045 27.314 57.5948 27.1344 52.067C26.9548 46.5392 27.6732 42.0292 28.7309 41.9893Z" fill="url(#paint17_radial_8951_27382)"/>
<path d="M19.0924 52.3267C19.0525 51.269 23.5026 50.2513 29.0105 50.0717C34.5183 49.8921 39.0084 50.5905 39.0483 51.6681C39.0882 52.7258 34.638 53.7436 29.1302 53.9232C23.6224 54.1028 19.1323 53.3843 19.0924 52.3267Z" fill="url(#paint18_radial_8951_27382)"/>
<path d="M19.5714 52.3066C19.5514 51.7478 23.7821 51.1491 29.0305 50.9695C34.2789 50.7899 38.5495 51.1092 38.5495 51.668C38.5694 52.2268 34.3388 52.8254 29.0904 53.0051C23.8619 53.1847 19.5913 52.8654 19.5714 52.3066Z" fill="url(#paint19_radial_8951_27382)"/>
<path d="M24.3605 52.1468C24.2807 49.792 26.3362 47.8164 28.9304 47.7366C31.5247 47.6567 33.6999 49.4727 33.7797 51.8275C33.8596 54.1823 31.8041 56.158 29.2098 56.2378C26.5956 56.3376 24.4403 54.5016 24.3605 52.1468Z" fill="url(#paint20_radial_8951_27382)"/>
<path d="M28.7507 42.4679C29.3095 42.4479 29.9081 46.6985 30.0678 51.9669C30.2474 57.2353 29.9281 61.5059 29.3693 61.5258C28.8106 61.5458 28.2119 57.2951 28.0522 52.0268C27.8726 46.7584 28.1919 42.4878 28.7507 42.4679Z" fill="url(#paint21_radial_8951_27382)"/>
<path d="M35.1968 9.86109C35.2168 8.14487 36.5538 6.74796 38.2102 6.76791C39.8665 6.76791 41.1836 8.18479 41.1836 9.901C41.1636 11.6172 39.8266 13.0141 38.1702 12.9942C36.5139 12.9742 35.1769 11.5773 35.1968 9.86109Z" fill="url(#paint22_radial_8951_27382)"/>
<path d="M38.211 3.8545C38.8496 3.8545 39.3485 6.54854 39.3285 9.88119C39.3086 13.1939 38.7698 15.8879 38.1312 15.8879C37.4926 15.8879 36.9937 13.1939 37.0136 9.86124C37.0336 6.54855 37.5724 3.8545 38.211 3.8545Z" fill="url(#paint23_radial_8951_27382)"/>
<path d="M32.1832 9.84039C32.1832 9.2018 34.8773 8.7029 38.19 8.72285C41.5027 8.74281 44.1768 9.28162 44.1768 9.92021C44.1768 10.5588 41.4827 11.0577 38.17 11.0378C34.8573 11.0178 32.1832 10.479 32.1832 9.84039Z" fill="url(#paint24_radial_8951_27382)"/>
<path d="M32.4641 9.84008C32.4641 9.50083 35.0185 9.24139 38.1715 9.26135C41.3245 9.28131 43.8789 9.56069 43.8789 9.89994C43.8789 10.2392 41.3245 10.4986 38.1715 10.4787C35.0185 10.4587 32.4641 10.1793 32.4641 9.84008Z" fill="url(#paint25_radial_8951_27382)"/>
<path d="M35.3564 9.86023C35.3564 8.44336 36.6336 7.30587 38.1901 7.32582C39.7467 7.32582 41.0039 8.48327 41.0039 9.90015C41.0039 11.317 39.7267 12.4545 38.1702 12.4346C36.5936 12.4146 35.3364 11.2771 35.3564 9.86023Z" fill="url(#paint26_radial_8951_27382)"/>
<path d="M38.2102 4.15296C38.5495 4.15296 38.8089 6.72726 38.789 9.8803C38.769 13.0333 38.4896 15.6077 38.1504 15.6077C37.8111 15.6077 37.5517 13.0333 37.5716 9.8803C37.5916 6.70731 37.871 4.15296 38.2102 4.15296Z" fill="url(#paint27_radial_8951_27382)"/>
<path d="M10.8704 34.6458C10.8904 32.9296 12.2474 31.5526 13.9037 31.5726C15.5601 31.5926 16.8772 33.0094 16.8572 34.7256C16.8372 36.4418 15.4802 37.8188 13.8239 37.7989C12.1676 37.7789 10.8505 36.362 10.8704 34.6458Z" fill="url(#paint28_radial_8951_27382)"/>
<path d="M13.9437 28.6589C14.5823 28.6589 15.0613 31.373 15.0214 34.6856C14.9814 37.9983 14.4227 40.6924 13.7841 40.6924C13.1455 40.6924 12.6666 37.9784 12.7065 34.6657C12.7464 31.333 13.3051 28.6589 13.9437 28.6589Z" fill="url(#paint29_radial_8951_27382)"/>
<path d="M7.85706 34.6064C7.85706 33.9678 10.5511 33.4888 13.8638 33.5287C17.1765 33.5686 19.8506 34.1274 19.8506 34.766C19.8506 35.4046 17.1565 35.8835 13.8438 35.8436C10.5312 35.8037 7.85706 35.2449 7.85706 34.6064Z" fill="url(#paint30_radial_8951_27382)"/>
<path d="M8.15648 34.6065C8.15648 34.2672 10.7108 34.0277 13.8639 34.0676C17.0169 34.1076 19.5713 34.4069 19.5713 34.7461C19.5713 35.0854 17.0169 35.3249 13.8639 35.285C10.7108 35.2451 8.13652 34.9457 8.15648 34.6065Z" fill="url(#paint31_radial_8951_27382)"/>
<path d="M11.03 34.645C11.0499 33.2281 12.3271 32.1106 13.8837 32.1305C15.4402 32.1505 16.6975 33.3079 16.6775 34.7248C16.6575 36.1417 15.3804 37.2592 13.8238 37.2392C12.2672 37.2193 11.01 36.0618 11.03 34.645Z" fill="url(#paint32_radial_8951_27382)"/>
<path d="M13.9236 28.9586C14.2629 28.9586 14.5024 31.5329 14.4625 34.686C14.4225 37.839 14.1232 40.4133 13.784 40.4133C13.4447 40.4133 13.2052 37.839 13.2451 34.686C13.2851 31.513 13.6044 28.9387 13.9236 28.9586Z" fill="url(#paint33_radial_8951_27382)"/>
<defs>
<linearGradient id="paint0_linear_8951_27382" x1="-1.4505" y1="31.7435" x2="45.1216" y2="3.39327" gradientUnits="userSpaceOnUse">
<stop stop-color="#D2AB5A"/>
<stop offset="0.0610851" stop-color="#BA9443"/>
<stop offset="0.1898" stop-color="#7C5808"/>
<stop offset="0.2069" stop-color="#735000"/>
<stop offset="0.2274" stop-color="#775200"/>
<stop offset="0.3376" stop-color="#8A5D00"/>
<stop offset="0.4146" stop-color="#916100"/>
<stop offset="0.4344" stop-color="#976707"/>
<stop offset="0.4986" stop-color="#D8B364"/>
<stop offset="0.5246" stop-color="#D4AE5D"/>
<stop offset="0.5617" stop-color="#CA9F4A"/>
<stop offset="0.6053" stop-color="#B9882C"/>
<stop offset="0.6414" stop-color="#A8700D"/>
<stop offset="0.6805" stop-color="#815400"/>
<stop offset="0.8029" stop-color="#B38116"/>
<stop offset="0.8267" stop-color="#A27114"/>
<stop offset="0.8802" stop-color="#815110"/>
<stop offset="0.9247" stop-color="#6C3D0E"/>
<stop offset="0.9545" stop-color="#65360D"/>
<stop offset="0.9581" stop-color="#6F3F0D"/>
<stop offset="0.9701" stop-color="#8A580C"/>
<stop offset="0.9807" stop-color="#9B670C"/>
<stop offset="0.9886" stop-color="#A16C0C"/>
</linearGradient>
<linearGradient id="paint1_linear_8951_27382" x1="52.0854" y1="28.5201" x2="-11.7963" y2="32.6987" gradientUnits="userSpaceOnUse">
<stop stop-color="#D7AC4C"/>
<stop offset="0.1816" stop-color="#FFFFB0"/>
<stop offset="0.3268" stop-color="#F4D174"/>
<stop offset="0.3659" stop-color="#FBED99"/>
<stop offset="0.3939" stop-color="#FAEC97"/>
<stop offset="0.433" stop-color="#DEB04D"/>
<stop offset="0.5275" stop-color="#DFB24F"/>
<stop offset="0.5615" stop-color="#E2B756"/>
<stop offset="0.5858" stop-color="#E7C161"/>
<stop offset="0.6053" stop-color="#EECF72"/>
<stop offset="0.6207" stop-color="#F6DF86"/>
<stop offset="0.7529" stop-color="#F2D87E"/>
<stop offset="0.7672" stop-color="#F1D77D"/>
<stop offset="0.7716" stop-color="#EBCD71"/>
<stop offset="0.7804" stop-color="#E2BE60"/>
<stop offset="0.7913" stop-color="#DCB455"/>
<stop offset="0.8066" stop-color="#D8AE4E"/>
<stop offset="0.8492" stop-color="#D7AC4C"/>
<stop offset="1" stop-color="#966424"/>
</linearGradient>
<linearGradient id="paint2_linear_8951_27382" x1="69.0841" y1="28.9585" x2="-10.2612" y2="31.0853" gradientUnits="userSpaceOnUse">
<stop stop-color="#D7AC4C"/>
<stop offset="0.1816" stop-color="#FFFFB0"/>
<stop offset="0.3268" stop-color="#F4D174"/>
<stop offset="0.3659" stop-color="#FBED99"/>
<stop offset="0.3939" stop-color="#FAEC97"/>
<stop offset="0.433" stop-color="#DEB04D"/>
<stop offset="0.5275" stop-color="#DFB24F"/>
<stop offset="0.5615" stop-color="#E2B756"/>
<stop offset="0.5858" stop-color="#E7C161"/>
<stop offset="0.6053" stop-color="#EECF72"/>
<stop offset="0.6207" stop-color="#F6DF86"/>
<stop offset="0.7529" stop-color="#F2D87E"/>
<stop offset="0.7672" stop-color="#F1D77D"/>
<stop offset="0.7716" stop-color="#EBCD71"/>
<stop offset="0.7804" stop-color="#E2BE60"/>
<stop offset="0.7913" stop-color="#DCB455"/>
<stop offset="0.8066" stop-color="#D8AE4E"/>
<stop offset="0.8492" stop-color="#D7AC4C"/>
<stop offset="1" stop-color="#966424"/>
</linearGradient>
<linearGradient id="paint3_linear_8951_27382" x1="39.6568" y1="30.211" x2="12.1172" y2="36.1775" gradientUnits="userSpaceOnUse">
<stop stop-color="#A16C0C"/>
<stop offset="0.2318" stop-color="#BE9134"/>
<stop offset="0.5559" stop-color="#A8700D"/>
<stop offset="1" stop-color="#432400"/>
</linearGradient>
<linearGradient id="paint4_linear_8951_27382" x1="46.4048" y1="20.9883" x2="38.1675" y2="24.423" gradientUnits="userSpaceOnUse">
<stop stop-color="#A16C0C"/>
<stop offset="0.2318" stop-color="#BE9134"/>
<stop offset="0.5559" stop-color="#A8700D"/>
<stop offset="1" stop-color="#432400"/>
</linearGradient>
<linearGradient id="paint5_linear_8951_27382" x1="44.0889" y1="31.2752" x2="5.3119" y2="53.7375" gradientUnits="userSpaceOnUse">
<stop stop-color="#D2AB5A"/>
<stop offset="0.0610851" stop-color="#BA9443"/>
<stop offset="0.1898" stop-color="#7C5808"/>
<stop offset="0.2069" stop-color="#735000"/>
<stop offset="0.2274" stop-color="#775200"/>
<stop offset="0.3376" stop-color="#8A5D00"/>
<stop offset="0.4146" stop-color="#916100"/>
<stop offset="0.4344" stop-color="#976707"/>
<stop offset="0.4986" stop-color="#D8B364"/>
<stop offset="0.5246" stop-color="#D4AE5D"/>
<stop offset="0.5617" stop-color="#CA9F4A"/>
<stop offset="0.6053" stop-color="#B9882C"/>
<stop offset="0.6414" stop-color="#A8700D"/>
<stop offset="0.6805" stop-color="#815400"/>
<stop offset="0.8029" stop-color="#B38116"/>
<stop offset="0.8267" stop-color="#A27114"/>
<stop offset="0.8802" stop-color="#815110"/>
<stop offset="0.9247" stop-color="#6C3D0E"/>
<stop offset="0.9545" stop-color="#65360D"/>
<stop offset="0.9581" stop-color="#6F3F0D"/>
<stop offset="0.9701" stop-color="#8A580C"/>
<stop offset="0.9807" stop-color="#9B670C"/>
<stop offset="0.9886" stop-color="#A16C0C"/>
</linearGradient>
<linearGradient id="paint6_linear_8951_27382" x1="30.6278" y1="31.8852" x2="21.8997" y2="33.9205" gradientUnits="userSpaceOnUse">
<stop stop-color="#A16C0C"/>
<stop offset="0.2318" stop-color="#BE9134"/>
<stop offset="0.5559" stop-color="#A8700D"/>
<stop offset="1" stop-color="#432400"/>
</linearGradient>
<linearGradient id="paint7_linear_8951_27382" x1="37.9043" y1="24.362" x2="30.4615" y2="27.1256" gradientUnits="userSpaceOnUse">
<stop stop-color="#A16C0C"/>
<stop offset="0.2318" stop-color="#BE9134"/>
<stop offset="0.4314" stop-color="#A8700D"/>
<stop offset="1" stop-color="#432400"/>
</linearGradient>
<linearGradient id="paint8_linear_8951_27382" x1="31.5586" y1="26.2922" x2="20.4727" y2="30.9832" gradientUnits="userSpaceOnUse">
<stop stop-color="#A16C0C"/>
<stop offset="0.2318" stop-color="#BE9134"/>
<stop offset="0.5559" stop-color="#A8700D"/>
<stop offset="1" stop-color="#432400"/>
</linearGradient>
<linearGradient id="paint9_linear_8951_27382" x1="9.29017" y1="34.8449" x2="18.2169" y2="31.7119" gradientUnits="userSpaceOnUse">
<stop stop-color="#A16C0C"/>
<stop offset="0.2318" stop-color="#BE9134"/>
<stop offset="0.5559" stop-color="#A8700D"/>
<stop offset="1" stop-color="#432400"/>
</linearGradient>
<linearGradient id="paint10_linear_8951_27382" x1="37.9298" y1="22.2392" x2="10.3891" y2="28.2059" gradientUnits="userSpaceOnUse">
<stop stop-color="#A16C0C"/>
<stop offset="0.2318" stop-color="#BE9134"/>
<stop offset="0.5559" stop-color="#A8700D"/>
<stop offset="1" stop-color="#432400"/>
</linearGradient>
<linearGradient id="paint11_linear_8951_27382" x1="-11.5671" y1="35.3004" x2="56.4065" y2="26.1228" gradientUnits="userSpaceOnUse">
<stop stop-color="#D7AC4C"/>
<stop offset="0.1816" stop-color="#FFFFB0"/>
<stop offset="0.3268" stop-color="#F4D174"/>
<stop offset="0.3659" stop-color="#FBED99"/>
<stop offset="0.3939" stop-color="#FAEC97"/>
<stop offset="0.433" stop-color="#DEB04D"/>
<stop offset="0.5275" stop-color="#DFB24F"/>
<stop offset="0.5615" stop-color="#E2B756"/>
<stop offset="0.5858" stop-color="#E7C161"/>
<stop offset="0.6053" stop-color="#EECF72"/>
<stop offset="0.6207" stop-color="#F6DF86"/>
<stop offset="0.7529" stop-color="#F2D87E"/>
<stop offset="0.7672" stop-color="#F1D77D"/>
<stop offset="0.7716" stop-color="#EBCD71"/>
<stop offset="0.7804" stop-color="#E2BE60"/>
<stop offset="0.7913" stop-color="#DCB455"/>
<stop offset="0.8066" stop-color="#D8AE4E"/>
<stop offset="0.8492" stop-color="#D7AC4C"/>
<stop offset="1" stop-color="#966424"/>
</linearGradient>
<linearGradient id="paint12_linear_8951_27382" x1="34.8211" y1="38.4261" x2="23.4805" y2="22.0797" gradientUnits="userSpaceOnUse">
<stop stop-color="#D7AC4C"/>
<stop offset="0.1816" stop-color="#FFFFB0"/>
<stop offset="0.3268" stop-color="#F4D174"/>
<stop offset="0.433" stop-color="#DEB04D"/>
<stop offset="0.7067" stop-color="#F6DF86"/>
<stop offset="0.8492" stop-color="#D7AC4C"/>
<stop offset="1" stop-color="#966424"/>
</linearGradient>
<linearGradient id="paint13_linear_8951_27382" x1="15.0192" y1="26.9952" x2="22.0703" y2="25.2235" gradientUnits="userSpaceOnUse">
<stop stop-color="#A16C0C"/>
<stop offset="0.2318" stop-color="#BE9134"/>
<stop offset="0.5559" stop-color="#A8700D"/>
<stop offset="1" stop-color="#432400"/>
</linearGradient>
<linearGradient id="paint14_linear_8951_27382" x1="38.403" y1="24.4343" x2="10.8638" y2="30.4007" gradientUnits="userSpaceOnUse">
<stop stop-color="#A16C0C"/>
<stop offset="0.2318" stop-color="#BE9134"/>
<stop offset="0.5559" stop-color="#A8700D"/>
<stop offset="1" stop-color="#432400"/>
</linearGradient>
<linearGradient id="paint15_linear_8951_27382" x1="51.3042" y1="29.4353" x2="6.51043" y2="30.6359" gradientUnits="userSpaceOnUse">
<stop stop-color="#D7AC4C"/>
<stop offset="0.1816" stop-color="#FFFFB0"/>
<stop offset="0.3268" stop-color="#F4D174"/>
<stop offset="0.433" stop-color="#DEB04D"/>
<stop offset="0.7067" stop-color="#F6DF86"/>
<stop offset="0.8492" stop-color="#D7AC4C"/>
<stop offset="1" stop-color="#966424"/>
</linearGradient>
<radialGradient id="paint16_radial_8951_27382" cx="0" cy="0" r="1" gradientUnits="userSpaceOnUse" gradientTransform="translate(29.0626 51.9911) rotate(178.078) scale(4.97138 5.18466)">
<stop stop-color="white"/>
<stop offset="0.1392" stop-color="#FFF4E1" stop-opacity="0.8608"/>
<stop offset="0.4329" stop-color="#FFE0A8" stop-opacity="0.5671"/>
<stop offset="0.6847" stop-color="#FFD17E" stop-opacity="0.3153"/>
<stop offset="0.8819" stop-color="#FFC864" stop-opacity="0.1181"/>
<stop offset="1" stop-color="#FFC55B" stop-opacity="0"/>
</radialGradient>
<radialGradient id="paint17_radial_8951_27382" cx="0" cy="0" r="1" gradientUnits="userSpaceOnUse" gradientTransform="translate(29.0628 51.9905) rotate(-91.8785) scale(10.0107 1.92096)">
<stop stop-color="white"/>
<stop offset="0.1392" stop-color="#FFF4E1" stop-opacity="0.8608"/>
<stop offset="0.4329" stop-color="#FFE0A8" stop-opacity="0.5671"/>
<stop offset="0.6847" stop-color="#FFD17E" stop-opacity="0.3153"/>
<stop offset="0.8819" stop-color="#FFC864" stop-opacity="0.1181"/>
<stop offset="1" stop-color="#FFC55B" stop-opacity="0"/>
</radialGradient>
<radialGradient id="paint18_radial_8951_27382" cx="0" cy="0" r="1" gradientUnits="userSpaceOnUse" gradientTransform="translate(29.0632 51.9909) rotate(178.077) scale(9.97828 1.92722)">
<stop stop-color="white"/>
<stop offset="0.1392" stop-color="#FFF4E1" stop-opacity="0.8608"/>
<stop offset="0.4329" stop-color="#FFE0A8" stop-opacity="0.5671"/>
<stop offset="0.6847" stop-color="#FFD17E" stop-opacity="0.3153"/>
<stop offset="0.8819" stop-color="#FFC864" stop-opacity="0.1181"/>
<stop offset="1" stop-color="#FFC55B" stop-opacity="0"/>
</radialGradient>
<radialGradient id="paint19_radial_8951_27382" cx="0" cy="0" r="1" gradientUnits="userSpaceOnUse" gradientTransform="translate(29.0629 51.9908) rotate(178.077) scale(9.50007 1.01229)">
<stop stop-color="white"/>
<stop offset="0.1594" stop-color="#FFF0D5" stop-opacity="0.8406"/>
<stop offset="0.3495" stop-color="#FFE1A9" stop-opacity="0.6505"/>
<stop offset="0.5337" stop-color="#FFD587" stop-opacity="0.4663"/>
<stop offset="0.7078" stop-color="#FFCC6F" stop-opacity="0.2922"/>
<stop offset="0.8677" stop-color="#FFC760" stop-opacity="0.1323"/>
<stop offset="1" stop-color="#FFC55B" stop-opacity="0"/>
</radialGradient>
<radialGradient id="paint20_radial_8951_27382" cx="0" cy="0" r="1" gradientUnits="userSpaceOnUse" gradientTransform="translate(29.0626 51.9907) rotate(178.077) scale(4.70737 4.25439)">
<stop stop-color="white"/>
<stop offset="0.1594" stop-color="#FFF0D5" stop-opacity="0.8406"/>
<stop offset="0.3495" stop-color="#FFE1A9" stop-opacity="0.6505"/>
<stop offset="0.5337" stop-color="#FFD587" stop-opacity="0.4663"/>
<stop offset="0.7078" stop-color="#FFCC6F" stop-opacity="0.2922"/>
<stop offset="0.8677" stop-color="#FFC760" stop-opacity="0.1323"/>
<stop offset="1" stop-color="#FFC55B" stop-opacity="0"/>
</radialGradient>
<radialGradient id="paint21_radial_8951_27382" cx="0" cy="0" r="1" gradientUnits="userSpaceOnUse" gradientTransform="translate(29.0627 51.9907) rotate(-91.8781) scale(9.53139 1.00897)">
<stop stop-color="white"/>
<stop offset="0.1123" stop-color="#FFF1D7" stop-opacity="0.8877"/>
<stop offset="0.2389" stop-color="#FFE3B1" stop-opacity="0.7611"/>
<stop offset="0.3711" stop-color="#FFD892" stop-opacity="0.6289"/>
<stop offset="0.5084" stop-color="#FFD07A" stop-opacity="0.4916"/>
<stop offset="0.6529" stop-color="#FFCA68" stop-opacity="0.3471"/>
<stop offset="0.8095" stop-color="#FFC65E" stop-opacity="0.1905"/>
<stop offset="1" stop-color="#FFC55B" stop-opacity="0"/>
</radialGradient>
<radialGradient id="paint22_radial_8951_27382" cx="0" cy="0" r="1" gradientUnits="userSpaceOnUse" gradientTransform="translate(38.1763 9.87383) rotate(-179.702) scale(2.98702 3.1152)">
<stop stop-color="white"/>
<stop offset="0.1392" stop-color="#FFF4E1" stop-opacity="0.8608"/>
<stop offset="0.4329" stop-color="#FFE0A8" stop-opacity="0.5671"/>
<stop offset="0.6847" stop-color="#FFD17E" stop-opacity="0.3153"/>
<stop offset="0.8819" stop-color="#FFC864" stop-opacity="0.1181"/>
<stop offset="1" stop-color="#FFC55B" stop-opacity="0"/>
</radialGradient>
<radialGradient id="paint23_radial_8951_27382" cx="0" cy="0" r="1" gradientUnits="userSpaceOnUse" gradientTransform="translate(38.1771 9.87411) rotate(-89.656) scale(6.0148 1.15421)">
<stop stop-color="white"/>
<stop offset="0.1392" stop-color="#FFF4E1" stop-opacity="0.8608"/>
<stop offset="0.4329" stop-color="#FFE0A8" stop-opacity="0.5671"/>
<stop offset="0.6847" stop-color="#FFD17E" stop-opacity="0.3153"/>
<stop offset="0.8819" stop-color="#FFC864" stop-opacity="0.1181"/>
<stop offset="1" stop-color="#FFC55B" stop-opacity="0"/>
</radialGradient>
<radialGradient id="paint24_radial_8951_27382" cx="0" cy="0" r="1" gradientUnits="userSpaceOnUse" gradientTransform="translate(38.1756 9.87305) rotate(-179.701) scale(5.99547 1.15794)">
<stop stop-color="white"/>
<stop offset="0.1392" stop-color="#FFF4E1" stop-opacity="0.8608"/>
<stop offset="0.4329" stop-color="#FFE0A8" stop-opacity="0.5671"/>
<stop offset="0.6847" stop-color="#FFD17E" stop-opacity="0.3153"/>
<stop offset="0.8819" stop-color="#FFC864" stop-opacity="0.1181"/>
<stop offset="1" stop-color="#FFC55B" stop-opacity="0"/>
</radialGradient>
<radialGradient id="paint25_radial_8951_27382" cx="0" cy="0" r="1" gradientUnits="userSpaceOnUse" gradientTransform="translate(38.1779 9.87274) rotate(-179.701) scale(5.70807 0.608223)">
<stop stop-color="white"/>
<stop offset="0.1594" stop-color="#FFF0D5" stop-opacity="0.8406"/>
<stop offset="0.3495" stop-color="#FFE1A9" stop-opacity="0.6505"/>
<stop offset="0.5337" stop-color="#FFD587" stop-opacity="0.4663"/>
<stop offset="0.7078" stop-color="#FFCC6F" stop-opacity="0.2922"/>
<stop offset="0.8677" stop-color="#FFC760" stop-opacity="0.1323"/>
<stop offset="1" stop-color="#FFC55B" stop-opacity="0"/>
</radialGradient>
<radialGradient id="paint26_radial_8951_27382" cx="0" cy="0" r="1" gradientUnits="userSpaceOnUse" gradientTransform="translate(38.1762 9.87296) rotate(-179.701) scale(2.82842 2.55623)">
<stop stop-color="white"/>
<stop offset="0.1594" stop-color="#FFF0D5" stop-opacity="0.8406"/>
<stop offset="0.3495" stop-color="#FFE1A9" stop-opacity="0.6505"/>
<stop offset="0.5337" stop-color="#FFD587" stop-opacity="0.4663"/>
<stop offset="0.7078" stop-color="#FFCC6F" stop-opacity="0.2922"/>
<stop offset="0.8677" stop-color="#FFC760" stop-opacity="0.1323"/>
<stop offset="1" stop-color="#FFC55B" stop-opacity="0"/>
</radialGradient>
<radialGradient id="paint27_radial_8951_27382" cx="0" cy="0" r="1" gradientUnits="userSpaceOnUse" gradientTransform="translate(38.1763 9.8726) rotate(-89.6562) scale(5.72663 0.606239)">
<stop stop-color="white"/>
<stop offset="0.1123" stop-color="#FFF1D7" stop-opacity="0.8877"/>
<stop offset="0.2389" stop-color="#FFE3B1" stop-opacity="0.7611"/>
<stop offset="0.3711" stop-color="#FFD892" stop-opacity="0.6289"/>
<stop offset="0.5084" stop-color="#FFD07A" stop-opacity="0.4916"/>
<stop offset="0.6529" stop-color="#FFCA68" stop-opacity="0.3471"/>
<stop offset="0.8095" stop-color="#FFC65E" stop-opacity="0.1905"/>
<stop offset="1" stop-color="#FFC55B" stop-opacity="0"/>
</radialGradient>
<radialGradient id="paint28_radial_8951_27382" cx="0" cy="0" r="1" gradientUnits="userSpaceOnUse" gradientTransform="translate(13.8551 34.6788) rotate(-179.274) scale(2.98697 3.11517)">
<stop stop-color="white"/>
<stop offset="0.1392" stop-color="#FFF4E1" stop-opacity="0.8608"/>
<stop offset="0.4329" stop-color="#FFE0A8" stop-opacity="0.5671"/>
<stop offset="0.6847" stop-color="#FFD17E" stop-opacity="0.3153"/>
<stop offset="0.8819" stop-color="#FFC864" stop-opacity="0.1181"/>
<stop offset="1" stop-color="#FFC55B" stop-opacity="0"/>
</radialGradient>
<radialGradient id="paint29_radial_8951_27382" cx="0" cy="0" r="1" gradientUnits="userSpaceOnUse" gradientTransform="translate(13.8552 34.6787) rotate(-89.2297) scale(6.01486 1.15419)">
<stop stop-color="white"/>
<stop offset="0.1392" stop-color="#FFF4E1" stop-opacity="0.8608"/>
<stop offset="0.4329" stop-color="#FFE0A8" stop-opacity="0.5671"/>
<stop offset="0.6847" stop-color="#FFD17E" stop-opacity="0.3153"/>
<stop offset="0.8819" stop-color="#FFC864" stop-opacity="0.1181"/>
<stop offset="1" stop-color="#FFC55B" stop-opacity="0"/>
</radialGradient>
<radialGradient id="paint30_radial_8951_27382" cx="0" cy="0" r="1" gradientUnits="userSpaceOnUse" gradientTransform="translate(13.8549 34.6793) rotate(-179.274) scale(5.99515 1.15798)">
<stop stop-color="white"/>
<stop offset="0.1392" stop-color="#FFF4E1" stop-opacity="0.8608"/>
<stop offset="0.4329" stop-color="#FFE0A8" stop-opacity="0.5671"/>
<stop offset="0.6847" stop-color="#FFD17E" stop-opacity="0.3153"/>
<stop offset="0.8819" stop-color="#FFC864" stop-opacity="0.1181"/>
<stop offset="1" stop-color="#FFC55B" stop-opacity="0"/>
</radialGradient>
<radialGradient id="paint31_radial_8951_27382" cx="0" cy="0" r="1" gradientUnits="userSpaceOnUse" gradientTransform="translate(13.8546 34.6794) rotate(-179.275) scale(5.70803 0.608221)">
<stop stop-color="white"/>
<stop offset="0.1594" stop-color="#FFF0D5" stop-opacity="0.8406"/>
<stop offset="0.3495" stop-color="#FFE1A9" stop-opacity="0.6505"/>
<stop offset="0.5337" stop-color="#FFD587" stop-opacity="0.4663"/>
<stop offset="0.7078" stop-color="#FFCC6F" stop-opacity="0.2922"/>
<stop offset="0.8677" stop-color="#FFC760" stop-opacity="0.1323"/>
<stop offset="1" stop-color="#FFC55B" stop-opacity="0"/>
</radialGradient>
<radialGradient id="paint32_radial_8951_27382" cx="0" cy="0" r="1" gradientUnits="userSpaceOnUse" gradientTransform="translate(13.8548 34.678) rotate(-179.275) scale(2.82833 2.55615)">
<stop stop-color="white"/>
<stop offset="0.1594" stop-color="#FFF0D5" stop-opacity="0.8406"/>
<stop offset="0.3495" stop-color="#FFE1A9" stop-opacity="0.6505"/>
<stop offset="0.5337" stop-color="#FFD587" stop-opacity="0.4663"/>
<stop offset="0.7078" stop-color="#FFCC6F" stop-opacity="0.2922"/>
<stop offset="0.8677" stop-color="#FFC760" stop-opacity="0.1323"/>
<stop offset="1" stop-color="#FFC55B" stop-opacity="0"/>
</radialGradient>
<radialGradient id="paint33_radial_8951_27382" cx="0" cy="0" r="1" gradientUnits="userSpaceOnUse" gradientTransform="translate(13.8551 34.6792) rotate(-89.2298) scale(5.72662 0.606227)">
<stop stop-color="white"/>
<stop offset="0.1123" stop-color="#FFF1D7" stop-opacity="0.8877"/>
<stop offset="0.2389" stop-color="#FFE3B1" stop-opacity="0.7611"/>
<stop offset="0.3711" stop-color="#FFD892" stop-opacity="0.6289"/>
<stop offset="0.5084" stop-color="#FFD07A" stop-opacity="0.4916"/>
<stop offset="0.6529" stop-color="#FFCA68" stop-opacity="0.3471"/>
<stop offset="0.8095" stop-color="#FFC65E" stop-opacity="0.1905"/>
<stop offset="1" stop-color="#FFC55B" stop-opacity="0"/>
</radialGradient>
</defs>
</svg>
