<svg width="61" height="137" viewBox="0 0 61 137" fill="none" xmlns="http://www.w3.org/2000/svg">
<g id="Group" filter="url(#filter0_f_8951_27693)">
<g id="Group_2">
<path id="Vector" d="M-23.2321 118.693C-32.8682 113.521 -39.9183 103.854 -42.1965 90.8315C-44.4747 77.809 -41.5192 63.986 -34.9001 52.0717C-28.2811 40.1574 -17.9985 30.275 -5.62241 25.1029C6.75366 19.9616 18.8834 20.5773 28.4887 25.7186C38.094 30.8599 45.1749 40.5268 47.4531 53.5494C49.7312 66.572 46.7758 80.395 40.1567 92.3093C33.5377 104.224 23.2551 114.137 10.879 119.278C-1.52785 124.45 -13.6268 123.834 -23.2321 118.693Z" fill="url(#paint0_linear_8951_27693)"/>
<g id="Group_3">
<g id="Clip path group">
<mask id="mask0_8951_27693" style="mask-type:luminance" maskUnits="userSpaceOnUse" x="-26" y="25" width="75" height="98">
<g id="SVGID_00000060030505996200508030000000588847064865118133_">
<path id="Vector_2" d="M27.4724 25.1035L29.8121 26.4889C38.7709 31.8149 45.2976 41.1739 47.4835 53.5808C49.7616 66.6034 46.8062 80.4264 40.1871 92.3407C33.5681 104.255 23.2855 114.137 10.9094 119.309C-1.49746 124.451 -13.5965 123.835 -23.2018 118.694L-25.5415 117.308C-15.9054 122.45 -3.80643 123.065 8.56964 117.924C20.9457 112.783 31.2283 102.87 37.8473 90.9553C44.4664 79.041 47.4219 65.218 45.1437 52.1954C42.9579 39.7886 36.4004 30.4295 27.4724 25.1035Z" fill="white"/>
</g>
</mask>
<g mask="url(#mask0_8951_27693)">
<path id="Vector_3" d="M-23.2349 118.694L-25.5747 117.308C-15.9386 122.45 -3.83961 123.065 8.53646 117.924C20.9125 112.783 31.1951 102.87 37.8142 90.9553C44.4332 79.041 47.3887 65.218 45.1105 52.1954C42.9247 39.7886 36.398 30.3987 27.4392 25.1035L29.779 26.4889C38.7378 31.8149 45.2644 41.1739 47.4502 53.5808C49.7284 66.6034 46.7729 80.4264 40.1539 92.3407C33.5349 104.255 23.2523 114.137 10.8762 119.309C-1.53065 124.451 -13.6296 123.835 -23.2349 118.694Z" fill="url(#paint1_linear_8951_27693)"/>
</g>
</g>
</g>
<path id="Vector_4" d="M-29.1744 125.713L-39.9804 119.279C-50.4169 113.091 -58.0827 102.069 -60.6379 87.5687C-63.3163 72.3603 -59.8375 56.136 -52.1102 42.2514C-44.3828 28.3668 -32.3146 16.7296 -17.8759 10.7263C-3.40633 4.72298 10.8169 5.43106 22.0231 11.4652C22.5465 11.7422 31.5053 17.099 32.0286 17.4069L34.3684 18.7923C33.8758 18.4844 33.3524 18.2073 32.8291 17.9303C21.5921 11.8962 7.39965 11.1881 -7.06988 17.1914C-21.5394 23.1947 -33.5768 34.8319 -41.3042 48.7165C-49.0315 62.6011 -52.5104 78.8255 -49.832 94.0339C-47.2767 108.503 -39.6109 119.494 -29.1744 125.713Z" fill="url(#paint2_linear_8951_27693)"/>
<path id="Vector_5" d="M12.2642 127.314C26.7338 121.31 38.7712 109.673 46.5293 95.7884C54.2567 81.9039 57.7047 65.6487 55.0571 50.4403C52.3787 35.2627 44.0972 23.9026 32.891 17.8685C21.6848 11.8344 7.4616 11.1263 -7.00793 17.1296C-21.4775 23.1329 -33.5149 34.7701 -41.273 48.6547C-49.0004 62.5393 -52.4484 78.7637 -49.8008 93.9721C-47.1532 109.18 -38.8409 120.541 -27.6347 126.544C-16.3977 132.609 -2.20528 133.317 12.2642 127.314ZM-23.2323 118.693C-32.8684 113.521 -39.9184 103.854 -42.1966 90.8319C-44.4748 77.8093 -41.5193 63.9863 -34.9003 52.072C-28.2812 40.1577 -17.9986 30.2753 -5.62255 25.1032C6.75352 19.9619 18.8833 20.5777 28.4886 25.719C38.0939 30.8603 45.1747 40.5272 47.4529 53.5497C49.7311 66.5723 46.7756 80.3953 40.1566 92.3096C33.5375 104.224 23.2549 114.137 10.8789 119.278C-1.52799 124.45 -13.627 123.835 -23.2323 118.693Z" fill="url(#paint3_linear_8951_27693)"/>
<path id="Vector_6" d="M-23.2321 118.693C-32.8682 113.521 -39.9183 103.854 -42.1965 90.8315C-44.4747 77.809 -41.5192 63.986 -34.9001 52.0717C-28.2811 40.1574 -17.9985 30.275 -5.62241 25.1029C6.75366 19.9616 18.8834 20.5773 28.4887 25.7186C38.094 30.8599 45.1749 40.5268 47.4531 53.5494C49.7312 66.572 46.7758 80.395 40.1567 92.3093C33.5377 104.224 23.2551 114.137 10.879 119.278C-1.52785 124.45 -13.6268 123.834 -23.2321 118.693Z" stroke="url(#paint4_linear_8951_27693)" stroke-width="0.614438" stroke-miterlimit="10"/>
<path id="Vector_7" d="M25.8112 59.4625L23.4714 58.0771L30.8293 55.0293L33.1383 56.4147L25.8112 59.4625Z" fill="url(#paint5_linear_8951_27693)"/>
<g id="Group_4">
<g id="Clip path group_2">
<mask id="mask1_8951_27693" style="mask-type:luminance" maskUnits="userSpaceOnUse" x="14" y="68" width="5" height="14">
<g id="SVGID_00000165201587101706870570000002603759605015391140_">
<path id="Vector_8" d="M16.8825 81.996L14.5427 80.6107C15.8357 76.3622 16.3591 72.3292 16.1128 68.5732L18.4526 69.9586C18.6681 73.7453 18.1447 77.7475 16.8825 81.996Z" fill="white"/>
</g>
</mask>
<g mask="url(#mask1_8951_27693)">
<g id="Group_5">
<g id="Clip path group_3">
<mask id="mask2_8951_27693" style="mask-type:luminance" maskUnits="userSpaceOnUse" x="14" y="68" width="5" height="15">
<g id="SVGID_00000040541916214293832990000017809806878423615132_">
<path id="Vector_9" d="M18.4025 68.4997L14.1257 68.6445L14.5811 82.09L18.8578 81.9452L18.4025 68.4997Z" fill="white"/>
</g>
</mask>
<g mask="url(#mask2_8951_27693)">
<path id="Vector_10" d="M16.8825 81.9992L14.5427 80.6138C15.8357 76.3653 16.3591 72.3323 16.1128 68.5764L18.4526 69.9618C18.6681 73.7485 18.1447 77.7507 16.8825 81.9992Z" fill="url(#paint6_linear_8951_27693)"/>
</g>
</g>
</g>
</g>
</g>
</g>
<g id="Group_6">
<g id="Clip path group_4">
<mask id="mask3_8951_27693" style="mask-type:luminance" maskUnits="userSpaceOnUse" x="12" y="58" width="6" height="6">
<g id="SVGID_00000164487313120577616960000005394958597659482793_">
<path id="Vector_11" d="M12.418 58.7812L14.7577 60.1666C15.6505 60.69 16.4202 61.6751 17.0667 63.1221L14.7269 61.7367C14.0496 60.2898 13.3108 59.3046 12.418 58.7812Z" fill="white"/>
</g>
</mask>
<g mask="url(#mask3_8951_27693)">
<path id="Vector_12" d="M17.0374 63.1221L14.6976 61.7367C14.0511 60.2898 13.2815 59.3046 12.3887 58.7812L14.7284 60.1666C15.6212 60.69 16.3909 61.6751 17.0374 63.1221Z" fill="url(#paint7_linear_8951_27693)"/>
</g>
</g>
</g>
<path id="Vector_13" d="M7.64661 67.0037L5.33765 65.6183L14.6967 61.7393L17.0364 63.1246L7.64661 67.0037Z" fill="url(#paint8_linear_8951_27693)"/>
<g id="Group_7">
<g id="Clip path group_5">
<mask id="mask4_8951_27693" style="mask-type:luminance" maskUnits="userSpaceOnUse" x="-5" y="46" width="25" height="26">
<g id="SVGID_00000093156357035327073570000010624936113749648009_">
<path id="Vector_14" d="M16.8829 48.1305L19.2226 49.5158C19.1303 49.4543 19.0071 49.3927 18.9148 49.3311C15.8054 47.6379 12.4189 47.5455 8.78611 49.054C5.83063 50.2855 3.61402 52.0095 2.07471 54.2877C0.566186 56.5659 -0.449767 58.998 -0.973133 61.6764C-1.4965 64.324 -1.83516 67.4334 -2.01987 71.0354L-4.35962 69.65C-4.1749 66.048 -3.83625 62.9386 -3.31288 60.291C-2.78951 57.6434 -1.77358 55.1805 -0.265054 52.9023C1.24347 50.6241 3.49086 48.9001 6.44634 47.6687C10.1099 46.1601 13.4656 46.2525 16.575 47.9457C16.6674 48.0381 16.7905 48.0997 16.8829 48.1305Z" fill="white"/>
</g>
</mask>
<g mask="url(#mask4_8951_27693)">
<g id="Group_8">
<g id="Clip path group_6">
<mask id="mask5_8951_27693" style="mask-type:luminance" maskUnits="userSpaceOnUse" x="-6" y="46" width="26" height="26">
<g id="SVGID_00000155838568239292263630000009181517949315412621_">
<path id="Vector_15" d="M19.1139 46.3391L-5.1311 47.1604L-4.32023 71.0977L19.9248 70.2764L19.1139 46.3391Z" fill="white"/>
</g>
</mask>
<g mask="url(#mask5_8951_27693)">
<path id="Vector_16" d="M-2.04917 71.0374L-4.38892 69.652C-4.2042 66.05 -3.86556 62.9406 -3.3422 60.293C-2.81883 57.6454 -1.80288 55.1825 -0.294351 52.9043C1.21417 50.6261 3.46157 48.9021 6.41704 47.6706C10.0806 46.1621 13.4363 46.2545 16.5457 47.9477C16.6381 48.0093 16.7612 48.0708 16.8536 48.1324L19.1933 49.5178C19.101 49.4562 18.9778 49.3946 18.8855 49.3331C15.7761 47.6398 12.3896 47.5475 8.75679 49.056C5.80131 50.2874 3.58471 52.0115 2.0454 54.2897C0.53687 56.5678 -0.479064 58.9999 -1.00243 61.6783C-1.5258 64.326 -1.86445 67.4354 -2.04917 71.0374Z" fill="url(#paint9_linear_8951_27693)"/>
</g>
</g>
</g>
</g>
</g>
</g>
<path id="Vector_17" d="M3.21331 91.1719C1.70479 93.4501 -0.511822 95.1741 -3.40573 96.3748C-7.00772 97.8833 -10.3634 97.7602 -13.4113 96.0669C-16.4591 94.3737 -18.768 91.018 -20.3074 86.0614L-27.6961 89.14L-28.8967 82.2131L-21.6927 79.2269C-22.1237 75.7172 -22.1237 72.2384 -21.6927 68.7288C-21.2617 65.2499 -20.5229 62.2329 -19.4453 59.77L-10.7328 60.2318C-11.6564 62.51 -12.3337 65.0036 -12.7647 67.682C-13.1957 70.3912 -13.2881 73.0388 -13.0726 75.6249L-2.05113 71.0377C-1.86641 67.4357 -1.52775 64.3263 -1.00439 61.6787C-0.48102 59.0311 0.534914 56.5682 2.04344 54.29C3.55196 52.0118 5.79936 50.2878 8.75484 49.0564C12.4184 47.5478 15.7741 47.6402 18.8835 49.3334C21.9929 51.0267 24.3019 54.4132 25.7796 59.4621L33.1068 56.4143L34.3074 63.3412L27.1034 66.3274C27.6576 72.2076 27.1342 77.4413 25.5333 82.09L16.8208 81.9976C18.1139 77.7491 18.6372 73.7161 18.3909 69.9602L7.15396 74.6397C7.03082 78.1801 6.69216 81.2588 6.19958 83.8756C5.73779 86.4616 4.72184 88.9245 3.21331 91.1719ZM7.64654 67.0047L17.0363 63.0949C16.3283 61.494 15.4662 60.478 14.4811 59.9855C13.4651 59.5237 12.3876 59.4929 11.2485 59.9855C10.1402 60.4473 9.309 61.2785 8.78563 62.4176C8.23148 63.6183 7.83126 65.1268 7.64654 67.0047ZM-9.22432 85.4765C-8.30073 85.9691 -7.25401 85.9998 -6.17649 85.538C-5.06818 85.0762 -4.23694 84.2758 -3.68279 83.1367C-3.12864 81.9976 -2.72843 80.4891 -2.48214 78.6727L-11.5949 82.4594C-10.9483 83.9679 -10.1479 84.9839 -9.22432 85.4765Z" fill="url(#paint10_linear_8951_27693)"/>
<path id="Vector_18" d="M3.21331 91.1719C1.70479 93.4501 -0.511822 95.1741 -3.40573 96.3748C-7.00772 97.8833 -10.3634 97.7602 -13.4113 96.0669C-16.4591 94.3737 -18.768 91.018 -20.3074 86.0614L-27.6961 89.14L-28.8967 82.2131L-21.6927 79.2269C-22.1237 75.7172 -22.1237 72.2384 -21.6927 68.7288C-21.2617 65.2499 -20.5229 62.2329 -19.4453 59.77L-10.7328 60.2318C-11.6564 62.51 -12.3337 65.0036 -12.7647 67.682C-13.1957 70.3912 -13.2881 73.0388 -13.0726 75.6249L-2.05113 71.0377C-1.86641 67.4357 -1.52775 64.3263 -1.00439 61.6787C-0.48102 59.0311 0.534914 56.5682 2.04344 54.29C3.55197 52.0118 5.79936 50.2878 8.75484 49.0564C12.4184 47.5478 15.7741 47.6402 18.8835 49.3334C21.9929 51.0267 24.3019 54.4132 25.7796 59.4621L33.1068 56.4143L34.3074 63.3412L27.1034 66.3274C27.6576 72.2076 27.1342 77.4413 25.5333 82.09L16.8208 81.9976C18.1139 77.7491 18.6372 73.7161 18.3909 69.9602L7.15397 74.6397C7.03082 78.1801 6.69216 81.2588 6.19958 83.8756C5.73779 86.4616 4.72184 88.9245 3.21331 91.1719ZM7.64654 67.0047L17.0363 63.0949C16.3283 61.494 15.4662 60.478 14.4811 59.9855C13.4651 59.5237 12.3876 59.4929 11.2485 59.9855C10.1402 60.4473 9.309 61.2785 8.78563 62.4176C8.23148 63.6183 7.83126 65.1268 7.64654 67.0047ZM-9.22432 85.4765C-8.30073 85.9691 -7.25401 85.9998 -6.17649 85.538C-5.06818 85.0762 -4.23695 84.2758 -3.68279 83.1367C-3.12864 81.9976 -2.72843 80.4891 -2.48214 78.6727L-11.5949 82.4594C-10.9483 83.9679 -10.1479 84.9839 -9.22432 85.4765Z" stroke="url(#paint11_linear_8951_27693)" stroke-width="0.614438" stroke-miterlimit="10"/>
</g>
</g>
<defs>
<filter id="filter0_f_8951_27693" x="-84.8" y="0.2" width="145.539" height="136.071" filterUnits="userSpaceOnUse" color-interpolation-filters="sRGB">
<feFlood flood-opacity="0" result="BackgroundImageFix"/>
<feBlend mode="normal" in="SourceGraphic" in2="BackgroundImageFix" result="shape"/>
<feGaussianBlur stdDeviation="2.4" result="effect1_foregroundBlur_8951_27693"/>
</filter>
<linearGradient id="paint0_linear_8951_27693" x1="-55.1275" y1="134.027" x2="57.8932" y2="13.0695" gradientUnits="userSpaceOnUse">
<stop stop-color="#D2AB5A"/>
<stop offset="0.0610851" stop-color="#BA9443"/>
<stop offset="0.1898" stop-color="#7C5808"/>
<stop offset="0.2069" stop-color="#735000"/>
<stop offset="0.2274" stop-color="#775200"/>
<stop offset="0.3376" stop-color="#8A5D00"/>
<stop offset="0.4146" stop-color="#916100"/>
<stop offset="0.4344" stop-color="#976707"/>
<stop offset="0.5154" stop-color="#CA982D"/>
<stop offset="0.5538" stop-color="#C49128"/>
<stop offset="0.6086" stop-color="#B47F19"/>
<stop offset="0.6414" stop-color="#A8700D"/>
<stop offset="0.6805" stop-color="#815400"/>
<stop offset="0.8029" stop-color="#B38116"/>
<stop offset="0.8267" stop-color="#A27114"/>
<stop offset="0.8802" stop-color="#815110"/>
<stop offset="0.9247" stop-color="#6C3D0E"/>
<stop offset="0.9545" stop-color="#65360D"/>
<stop offset="0.9581" stop-color="#6F3F0D"/>
<stop offset="0.9701" stop-color="#8A580C"/>
<stop offset="0.9807" stop-color="#9B670C"/>
<stop offset="0.9886" stop-color="#A16C0C"/>
</linearGradient>
<linearGradient id="paint1_linear_8951_27693" x1="70.3699" y1="145.648" x2="18.1478" y2="88.3835" gradientUnits="userSpaceOnUse">
<stop stop-color="#A16C0C"/>
<stop offset="0.2318" stop-color="#BE9134"/>
<stop offset="0.5559" stop-color="#A8700D"/>
<stop offset="1" stop-color="#432400"/>
</linearGradient>
<linearGradient id="paint2_linear_8951_27693" x1="31.7796" y1="-21.3396" x2="-59.564" y2="111.122" gradientUnits="userSpaceOnUse">
<stop offset="0.1136" stop-color="#D7AC4C"/>
<stop offset="0.1816" stop-color="#FFFFB0"/>
<stop offset="0.3268" stop-color="#F4D174"/>
<stop offset="0.3659" stop-color="#FBED99"/>
<stop offset="0.3939" stop-color="#FAEC97"/>
<stop offset="0.433" stop-color="#DEB04D"/>
<stop offset="0.5275" stop-color="#DFB24F"/>
<stop offset="0.5615" stop-color="#E2B756"/>
<stop offset="0.5858" stop-color="#E7C161"/>
<stop offset="0.6053" stop-color="#EECF72"/>
<stop offset="0.6207" stop-color="#F6DF86"/>
<stop offset="0.7529" stop-color="#F2D87E"/>
<stop offset="0.7672" stop-color="#F1D77D"/>
<stop offset="0.7716" stop-color="#EBCD71"/>
<stop offset="0.7804" stop-color="#E2BE60"/>
<stop offset="0.7913" stop-color="#DCB455"/>
<stop offset="0.8066" stop-color="#D8AE4E"/>
<stop offset="0.8492" stop-color="#D7AC4C"/>
<stop offset="1" stop-color="#966424"/>
</linearGradient>
<linearGradient id="paint3_linear_8951_27693" x1="-47.0756" y1="136.781" x2="63.2051" y2="-6.48308" gradientUnits="userSpaceOnUse">
<stop stop-color="#D2AB5A"/>
<stop offset="0.0610851" stop-color="#BA9443"/>
<stop offset="0.1898" stop-color="#7C5808"/>
<stop offset="0.2069" stop-color="#735000"/>
<stop offset="0.2274" stop-color="#775200"/>
<stop offset="0.3376" stop-color="#8A5D00"/>
<stop offset="0.4146" stop-color="#916100"/>
<stop offset="0.4344" stop-color="#976707"/>
<stop offset="0.4986" stop-color="#D8B364"/>
<stop offset="0.5246" stop-color="#D4AE5D"/>
<stop offset="0.5617" stop-color="#CA9F4A"/>
<stop offset="0.6053" stop-color="#B9882C"/>
<stop offset="0.6414" stop-color="#A8700D"/>
<stop offset="0.6805" stop-color="#815400"/>
<stop offset="0.8029" stop-color="#B38116"/>
<stop offset="0.8267" stop-color="#A27114"/>
<stop offset="0.8802" stop-color="#815110"/>
<stop offset="0.9247" stop-color="#6C3D0E"/>
<stop offset="0.9545" stop-color="#65360D"/>
<stop offset="0.9581" stop-color="#6F3F0D"/>
<stop offset="0.9701" stop-color="#8A580C"/>
<stop offset="0.9807" stop-color="#9B670C"/>
<stop offset="0.9886" stop-color="#A16C0C"/>
</linearGradient>
<linearGradient id="paint4_linear_8951_27693" x1="36.8006" y1="31.4759" x2="-31.5632" y2="112.975" gradientUnits="userSpaceOnUse">
<stop stop-color="#D2AB5A"/>
<stop offset="0.0610851" stop-color="#BA9443"/>
<stop offset="0.1898" stop-color="#7C5808"/>
<stop offset="0.2069" stop-color="#735000"/>
<stop offset="0.2274" stop-color="#775200"/>
<stop offset="0.3376" stop-color="#8A5D00"/>
<stop offset="0.4146" stop-color="#916100"/>
<stop offset="0.4344" stop-color="#976707"/>
<stop offset="0.4986" stop-color="#D8B364"/>
<stop offset="0.5246" stop-color="#D4AE5D"/>
<stop offset="0.5617" stop-color="#CA9F4A"/>
<stop offset="0.6053" stop-color="#B9882C"/>
<stop offset="0.6414" stop-color="#A8700D"/>
<stop offset="0.6805" stop-color="#815400"/>
<stop offset="0.8029" stop-color="#B38116"/>
<stop offset="0.8267" stop-color="#A27114"/>
<stop offset="0.8802" stop-color="#815110"/>
<stop offset="0.9247" stop-color="#6C3D0E"/>
<stop offset="0.9545" stop-color="#65360D"/>
<stop offset="0.9581" stop-color="#6F3F0D"/>
<stop offset="0.9701" stop-color="#8A580C"/>
<stop offset="0.9807" stop-color="#9B670C"/>
<stop offset="0.9886" stop-color="#A16C0C"/>
</linearGradient>
<linearGradient id="paint5_linear_8951_27693" x1="27.7024" y1="48.9372" x2="28.4227" y2="58.7814" gradientUnits="userSpaceOnUse">
<stop stop-color="#A16C0C"/>
<stop offset="0.2318" stop-color="#BE9134"/>
<stop offset="0.5559" stop-color="#A8700D"/>
<stop offset="1" stop-color="#432400"/>
</linearGradient>
<linearGradient id="paint6_linear_8951_27693" x1="18.6214" y1="95.7291" x2="16.2203" y2="72.6793" gradientUnits="userSpaceOnUse">
<stop stop-color="#A16C0C"/>
<stop offset="0.2318" stop-color="#BE9134"/>
<stop offset="0.5559" stop-color="#A8700D"/>
<stop offset="1" stop-color="#432400"/>
</linearGradient>
<linearGradient id="paint7_linear_8951_27693" x1="11.5076" y1="52.2696" x2="15.2892" y2="62.4738" gradientUnits="userSpaceOnUse">
<stop stop-color="#A16C0C"/>
<stop offset="0.2318" stop-color="#BE9134"/>
<stop offset="0.5559" stop-color="#A8700D"/>
<stop offset="1" stop-color="#432400"/>
</linearGradient>
<linearGradient id="paint8_linear_8951_27693" x1="39.0174" y1="73.5684" x2="12.486" y2="64.8046" gradientUnits="userSpaceOnUse">
<stop stop-color="#A16C0C"/>
<stop offset="0.2318" stop-color="#BE9134"/>
<stop offset="0.5559" stop-color="#A8700D"/>
<stop offset="1" stop-color="#432400"/>
</linearGradient>
<linearGradient id="paint9_linear_8951_27693" x1="21.0735" y1="18.9743" x2="2.94585" y2="68.075" gradientUnits="userSpaceOnUse">
<stop stop-color="#A16C0C"/>
<stop offset="0.2318" stop-color="#BE9134"/>
<stop offset="0.5559" stop-color="#A8700D"/>
<stop offset="1" stop-color="#432400"/>
</linearGradient>
<linearGradient id="paint10_linear_8951_27693" x1="-48.1829" y1="121.965" x2="39.6945" y2="34.4479" gradientUnits="userSpaceOnUse">
<stop stop-color="#D2AB5A"/>
<stop offset="0.0610851" stop-color="#BA9443"/>
<stop offset="0.1898" stop-color="#7C5808"/>
<stop offset="0.2069" stop-color="#735000"/>
<stop offset="0.2274" stop-color="#775200"/>
<stop offset="0.3376" stop-color="#8A5D00"/>
<stop offset="0.4146" stop-color="#916100"/>
<stop offset="0.4344" stop-color="#976707"/>
<stop offset="0.5154" stop-color="#CA982D"/>
<stop offset="0.5538" stop-color="#C49128"/>
<stop offset="0.6086" stop-color="#B47F19"/>
<stop offset="0.6414" stop-color="#A8700D"/>
<stop offset="0.6805" stop-color="#815400"/>
<stop offset="0.8029" stop-color="#B38116"/>
<stop offset="0.8267" stop-color="#A27114"/>
<stop offset="0.8802" stop-color="#815110"/>
<stop offset="0.9247" stop-color="#6C3D0E"/>
<stop offset="0.9545" stop-color="#65360D"/>
<stop offset="0.9581" stop-color="#6F3F0D"/>
<stop offset="0.9701" stop-color="#8A580C"/>
<stop offset="0.9807" stop-color="#9B670C"/>
<stop offset="0.9886" stop-color="#A16C0C"/>
</linearGradient>
<linearGradient id="paint11_linear_8951_27693" x1="22.8724" y1="47.3204" x2="-18.8482" y2="97.0574" gradientUnits="userSpaceOnUse">
<stop stop-color="#D2AB5A"/>
<stop offset="0.0610851" stop-color="#BA9443"/>
<stop offset="0.1898" stop-color="#7C5808"/>
<stop offset="0.2069" stop-color="#735000"/>
<stop offset="0.2274" stop-color="#775200"/>
<stop offset="0.3376" stop-color="#8A5D00"/>
<stop offset="0.4146" stop-color="#916100"/>
<stop offset="0.4344" stop-color="#976707"/>
<stop offset="0.4986" stop-color="#D8B364"/>
<stop offset="0.5246" stop-color="#D4AE5D"/>
<stop offset="0.5617" stop-color="#CA9F4A"/>
<stop offset="0.6053" stop-color="#B9882C"/>
<stop offset="0.6414" stop-color="#A8700D"/>
<stop offset="0.6805" stop-color="#815400"/>
<stop offset="0.8029" stop-color="#B38116"/>
<stop offset="0.8267" stop-color="#A27114"/>
<stop offset="0.8802" stop-color="#815110"/>
<stop offset="0.9247" stop-color="#6C3D0E"/>
<stop offset="0.9545" stop-color="#65360D"/>
<stop offset="0.9581" stop-color="#6F3F0D"/>
<stop offset="0.9701" stop-color="#8A580C"/>
<stop offset="0.9807" stop-color="#9B670C"/>
<stop offset="0.9886" stop-color="#A16C0C"/>
</linearGradient>
</defs>
</svg>
