<svg width="95" height="188" viewBox="0 0 95 188" fill="none" xmlns="http://www.w3.org/2000/svg">
<g filter="url(#filter0_f_8951_27492)">
<path d="M13.0178 78.3075L13.2392 77.8093L19.2176 65.5204C19.6051 64.6347 20.048 63.749 20.5462 62.808L20.8229 62.2544C21.6533 60.7045 22.539 59.1545 23.5907 57.6599C22.705 59.2652 21.9854 60.8705 21.2658 62.4758L152.846 135.545L152.735 135.711C152.292 136.542 151.85 137.317 151.351 138.147L142.55 153.425C119.024 189.517 74.5732 184.922 44.0723 162.946C17.1141 145.62 -1.37465 108.476 13.0178 78.3075Z" fill="url(#paint0_linear_8951_27492)"/>
<path d="M27.1925 120.821C17.4499 105.266 13.6304 87.3311 18.0588 70.7797C22.5426 54.2284 34.4441 42.1056 49.999 35.9057C65.6093 29.7059 84.9837 29.4845 104.303 36.6807C123.677 43.8216 139.398 57.0516 149.141 72.6065C158.883 88.1614 162.703 106.097 158.274 122.648C153.846 139.199 141.945 151.322 126.334 157.522C110.779 163.666 91.3496 163.888 72.0305 156.747C52.7114 149.551 36.9351 136.376 27.1925 120.821Z" fill="url(#paint1_linear_8951_27492)"/>
<path d="M74.4091 148C90.9605 154.145 107.456 153.923 120.852 148.664C134.193 143.35 144.323 133.054 148.143 118.883C151.962 104.712 148.696 89.434 140.338 76.0933C131.979 62.7526 118.528 51.5154 101.976 45.371C85.4249 39.2265 68.9289 39.4479 55.5329 44.7067C42.1922 50.0208 32.0621 60.3169 28.2426 74.488C24.4231 88.7143 27.6891 103.937 36.0478 117.278C44.4064 130.618 57.8025 141.911 74.4091 148Z" fill="url(#paint2_linear_8951_27492)"/>
<path d="M130.321 67.9538C130.044 67.677 129.767 67.3449 129.49 67.0681C129.38 66.9574 129.269 66.8467 129.103 66.6807C128.549 66.1271 128.051 65.6289 127.497 65.0753C127.276 64.8539 127.055 64.6325 126.833 64.4664C126.335 64.0236 125.892 63.5807 125.394 63.1379C125.172 62.9165 124.951 62.7504 124.674 62.529C124.065 62.0308 123.512 61.5326 122.903 61.0344C122.792 60.9237 122.626 60.813 122.515 60.7023C121.74 60.0933 120.91 59.4291 120.135 58.8202C120.08 58.7648 120.024 58.7648 119.969 58.7094C119.194 58.1559 118.419 57.547 117.589 57.0488C117.423 56.9381 117.312 56.8827 117.146 56.772C116.482 56.3292 115.817 55.8863 115.153 55.4988C114.876 55.3328 114.655 55.1667 114.378 55.0006C113.935 54.7238 113.492 54.4471 113.05 54.2257C112.219 53.7275 111.389 53.2846 110.559 52.7864C110.226 52.6203 109.95 52.4543 109.618 52.2882C108.677 51.79 107.68 51.2918 106.739 50.8489C106.628 50.7936 106.518 50.7382 106.407 50.6829C105.355 50.1847 104.303 49.7419 103.196 49.2437C102.255 48.8562 101.259 48.4687 100.318 48.0812C99.7643 47.8597 99.2107 47.6937 98.6572 47.4723C98.0483 47.2508 97.4394 47.0294 96.8304 46.8634C96.3322 46.6973 95.8894 46.5866 95.3912 46.4205C94.8377 46.2544 94.2287 46.0884 93.6752 45.9223C93.177 45.8116 92.6788 45.6455 92.1806 45.5348C91.627 45.3688 91.0735 45.258 90.5199 45.1473C90.0217 45.0366 89.5235 44.9259 89.0807 44.8706C88.5271 44.7598 87.9182 44.6491 87.3647 44.5384C86.8664 44.4277 86.4236 44.3724 85.9254 44.317C85.3165 44.2063 84.7629 44.1509 84.154 44.0402C83.7112 43.9849 83.213 43.9295 82.7701 43.8742C82.1612 43.8188 81.5523 43.7635 80.8881 43.7081C80.4452 43.6527 80.0024 43.6527 79.5595 43.5974C78.8399 43.542 78.1756 43.542 77.456 43.4867C77.0685 43.4867 76.681 43.4313 76.2935 43.4313C75.2971 43.4313 74.2454 43.4313 73.249 43.4313C73.1383 43.4313 73.0276 43.4313 72.9168 43.4313C71.699 43.4867 70.5366 43.542 69.3741 43.6527C68.8205 43.7081 68.267 43.7635 67.7134 43.8188C67.4367 43.8742 67.2152 43.8741 66.9384 43.9295C66.1081 44.0402 65.2224 44.1509 64.3921 44.317C63.451 44.4831 62.51 44.6491 61.6243 44.8706C61.569 44.8706 61.4582 44.9259 61.4029 44.9259C60.5726 45.1473 59.7422 45.3134 58.9119 45.5902C58.3583 45.7562 57.7494 45.9223 57.1959 46.1437C56.9191 46.2544 56.587 46.3098 56.3102 46.4205C55.4798 46.6973 54.5942 47.0294 53.8192 47.3616C44.2427 51.1257 36.3268 57.547 31.2341 66.0164L32.8948 63.3039C38.0428 54.7792 45.9587 48.4133 55.4798 44.6491C56.3102 44.317 57.1405 44.0402 57.9708 43.7081C58.2476 43.5974 58.5798 43.542 58.8565 43.4313C59.4101 43.2653 59.9636 43.0992 60.5172 42.9331H60.5726C61.4029 42.7117 62.1779 42.4903 63.0082 42.3242C63.1189 42.3242 63.1743 42.2688 63.285 42.2688C64.226 42.0474 65.1117 41.8813 66.0528 41.7153H66.1081C66.9384 41.5492 67.7688 41.4385 68.5991 41.3278C68.8759 41.2725 69.0973 41.2725 69.3741 41.2171C69.8169 41.1617 70.2044 41.1064 70.6473 41.051C70.758 41.051 70.924 41.051 71.0348 41.051C72.1972 40.9403 73.415 40.8296 74.5775 40.8296C74.5775 40.8296 74.5775 40.8296 74.6329 40.8296C74.7436 40.8296 74.7989 40.8296 74.9097 40.8296C75.9061 40.7742 76.9578 40.7742 77.9542 40.8296C78.0649 40.8296 78.1756 40.8296 78.3417 40.8296C78.6185 40.8296 78.8952 40.8849 79.172 40.8849C79.8363 40.8849 80.5559 40.9403 81.2755 40.9957C81.497 40.9957 81.663 40.9957 81.8844 40.9957C82.1059 40.9957 82.3826 41.051 82.6041 41.051C83.213 41.1064 83.8219 41.1617 84.4308 41.2171C84.7076 41.2725 84.929 41.2724 85.2058 41.2724C85.4272 41.2724 85.5933 41.3278 85.8147 41.3832C86.3682 41.4385 86.9772 41.5492 87.5861 41.6599C87.8628 41.7153 88.195 41.7153 88.4718 41.7707C88.6378 41.826 88.8039 41.826 89.0253 41.8814C89.5789 41.9921 90.1324 42.1028 90.7413 42.2135C91.0735 42.2688 91.4056 42.3242 91.7377 42.3796C91.9038 42.4349 92.0699 42.4349 92.1806 42.4903C92.7341 42.601 93.2877 42.7671 93.8412 42.8778C94.1734 42.9885 94.5609 43.0438 94.893 43.1545C95.0591 43.2099 95.1698 43.2099 95.3358 43.2653C95.8894 43.4313 96.443 43.5974 96.9965 43.7634C97.384 43.8742 97.7161 43.9849 98.1036 44.0956C98.2143 44.1509 98.3251 44.1509 98.4358 44.2063C99.0447 44.3723 99.5982 44.5938 100.207 44.8152C100.595 44.9259 100.982 45.0366 101.314 45.2027C101.48 45.2581 101.702 45.3688 101.868 45.4241C102.809 45.7562 103.695 46.1437 104.636 46.4759C104.691 46.4759 104.746 46.5312 104.802 46.5312C105.909 46.9741 106.961 47.4723 108.012 47.9151H108.068C108.178 47.9705 108.289 48.0258 108.4 48.0812C109.341 48.524 110.337 49.0222 111.278 49.5204C111.389 49.5758 111.5 49.6311 111.555 49.6865C111.776 49.7972 111.998 49.9079 112.219 50.074C113.05 50.5168 113.88 51.015 114.71 51.5132C114.876 51.6239 115.098 51.7347 115.264 51.8454C115.541 52.0114 115.762 52.1775 116.039 52.3436C116.316 52.5096 116.537 52.6757 116.814 52.8418C117.478 53.2846 118.142 53.7274 118.807 54.1703C118.973 54.281 119.083 54.3363 119.249 54.4471C119.305 54.4471 119.305 54.5024 119.36 54.5024C120.135 55.0006 120.855 55.5542 121.63 56.1077C121.685 56.1631 121.74 56.1631 121.74 56.2184C122.515 56.8274 123.29 57.3809 124.065 57.9898C124.121 57.9898 124.121 58.0452 124.176 58.0452C124.287 58.1559 124.453 58.2666 124.564 58.3773C125.172 58.8755 125.781 59.3737 126.335 59.8719C126.556 60.0933 126.778 60.2594 127.055 60.4808C127.553 60.9237 128.051 61.3665 128.494 61.8094C128.715 62.0308 128.937 62.2522 129.158 62.4736C129.712 63.0272 130.265 63.5254 130.763 64.0789C130.874 64.1896 130.985 64.3004 131.151 64.4664C131.206 64.5218 131.206 64.5218 131.262 64.5772C131.483 64.8539 131.76 65.0753 131.981 65.3521C132.424 65.8503 132.867 66.2932 133.31 66.7914C133.587 67.1235 133.863 67.4556 134.14 67.7878C134.528 68.2306 134.915 68.7288 135.303 69.1717C135.579 69.5038 135.856 69.8913 136.133 70.2234C136.465 70.6662 136.853 71.1644 137.185 71.6073C137.461 71.9948 137.738 72.3269 137.96 72.7144C138.292 73.1572 138.624 73.6554 138.956 74.0983C139.011 74.209 139.122 74.3197 139.177 74.4304C139.565 75.0393 140.008 75.6482 140.395 76.2572C141.004 77.1982 141.558 78.1392 142.056 79.0803C142.222 79.3571 142.388 79.6892 142.554 79.966C142.886 80.6303 143.274 81.2945 143.606 81.9588C143.661 82.1248 143.772 82.2909 143.827 82.4016C143.938 82.6784 144.049 82.8998 144.159 83.1766C144.326 83.5641 144.547 84.0069 144.713 84.3944C144.934 84.8373 145.1 85.2801 145.322 85.7783C145.488 86.1658 145.654 86.6087 145.82 86.9961C145.875 87.1622 145.931 87.3283 146.042 87.4943C146.097 87.6604 146.152 87.8265 146.208 87.9925C146.65 89.155 147.038 90.2621 147.37 91.4246C147.425 91.5353 147.425 91.5907 147.481 91.7014C147.481 91.7567 147.481 91.7567 147.481 91.8121C147.813 92.9192 148.09 94.0263 148.366 95.078C148.366 95.1888 148.422 95.2995 148.422 95.4102C148.477 95.6316 148.533 95.853 148.533 96.0744C148.699 96.7941 148.809 97.4583 148.92 98.1779C148.975 98.344 148.975 98.5654 149.031 98.7315C149.086 98.8976 149.086 99.119 149.086 99.2851C149.197 99.894 149.252 100.503 149.308 101.167C149.363 101.389 149.363 101.665 149.418 101.887C149.418 101.997 149.418 102.164 149.474 102.274C149.529 102.828 149.584 103.437 149.584 103.99C149.584 104.267 149.64 104.544 149.64 104.876C149.64 104.987 149.64 105.042 149.64 105.153C149.64 105.706 149.64 106.26 149.64 106.813C149.64 107.146 149.64 107.422 149.64 107.754C149.64 107.81 149.64 107.865 149.64 107.976C149.64 108.529 149.584 109.083 149.584 109.637C149.584 109.969 149.584 110.301 149.529 110.633C149.529 110.688 149.529 110.744 149.529 110.744C149.474 111.297 149.418 111.851 149.363 112.404C149.308 112.736 149.308 113.069 149.252 113.401C149.252 113.456 149.252 113.456 149.252 113.511C149.141 114.176 149.031 114.84 148.92 115.504C148.865 115.726 148.865 116.002 148.809 116.224C148.809 116.224 148.809 116.224 148.809 116.279C148.643 117.165 148.422 118.106 148.145 118.992V119.102C147.868 120.043 147.591 120.984 147.259 121.925C147.259 121.925 147.259 121.925 147.259 121.981C147.093 122.534 146.872 123.088 146.65 123.586C146.484 123.974 146.374 124.416 146.208 124.804C146.208 124.804 146.208 124.804 146.208 124.859C146.208 124.859 146.208 124.915 146.152 124.915C145.765 125.8 145.377 126.631 144.99 127.461C144.934 127.516 144.934 127.572 144.879 127.627C144.879 127.682 144.824 127.682 144.824 127.738C144.381 128.568 143.938 129.398 143.44 130.173L141.779 132.886C142.277 132.056 142.776 131.225 143.218 130.34C143.274 130.284 143.274 130.229 143.329 130.173C143.772 129.343 144.159 128.513 144.492 127.627C144.492 127.627 144.492 127.572 144.547 127.572C144.713 127.184 144.879 126.741 145.045 126.354C145.267 125.8 145.488 125.302 145.654 124.749C145.986 123.808 146.263 122.811 146.54 121.815C146.761 120.929 146.983 119.988 147.204 119.102C147.259 118.826 147.315 118.604 147.315 118.327C147.425 117.663 147.536 116.999 147.647 116.335C147.702 115.947 147.702 115.615 147.758 115.227C147.813 114.674 147.868 114.12 147.924 113.567C147.979 113.179 147.979 112.792 147.979 112.404C148.034 111.851 148.034 111.297 148.034 110.744C148.034 110.356 148.034 109.969 148.034 109.581C148.034 109.028 148.034 108.474 148.034 107.921C148.034 107.533 147.979 107.146 147.979 106.758C147.924 106.204 147.924 105.596 147.868 105.042C147.813 104.655 147.813 104.267 147.758 103.88C147.702 103.271 147.591 102.662 147.536 102.053C147.481 101.665 147.425 101.278 147.37 100.89C147.259 100.171 147.093 99.5065 146.983 98.7869C146.927 98.4547 146.817 98.1226 146.761 97.7905C146.484 96.6834 146.208 95.5762 145.875 94.5245C145.82 94.4138 145.82 94.3031 145.765 94.137C145.433 92.9745 145.045 91.8674 144.602 90.7049C144.492 90.3728 144.381 90.0407 144.215 89.7085C144.049 89.3211 143.883 88.8782 143.717 88.4907C143.551 88.0479 143.329 87.605 143.108 87.1068C142.942 86.7193 142.72 86.2765 142.554 85.889C142.333 85.5015 142.167 85.0587 141.945 84.6712C141.613 84.0069 141.281 83.3427 140.893 82.6784C140.727 82.4016 140.561 82.0695 140.395 81.7927C139.842 80.8517 139.288 79.9106 138.735 78.9696C138.292 78.25 137.794 77.5303 137.351 76.8107C137.019 76.3679 136.686 75.8697 136.354 75.4268C136.078 75.0393 135.856 74.7072 135.579 74.3197C135.247 73.8769 134.86 73.3787 134.528 72.9358C134.251 72.6037 133.974 72.2162 133.697 71.8841C133.31 71.4412 132.922 70.943 132.535 70.5002C132.258 70.168 131.981 69.8359 131.704 69.5038C131.206 68.8949 130.763 68.3967 130.321 67.9538Z" fill="url(#paint3_linear_8951_27492)"/>
<path d="M79.8337 91.9827C79.7784 91.5952 79.6677 91.1523 79.6123 90.8202C79.6123 90.7095 79.5569 90.6541 79.5569 90.5988C79.4462 90.2666 79.3909 89.9899 79.2802 89.6577C79.2802 89.6024 79.2248 89.547 79.2248 89.4917C79.1141 89.1595 78.948 88.772 78.782 88.4952C78.6159 88.2185 78.4498 87.997 78.2838 87.7756C78.1731 87.6649 78.1177 87.5542 78.007 87.4435C77.8409 87.2774 77.6749 87.1114 77.5088 86.9453C77.4534 86.8899 77.3981 86.8346 77.3427 86.8346C77.0659 86.6131 76.8445 86.4471 76.5124 86.281C76.5124 86.281 76.5124 86.281 76.457 86.281C76.1249 86.1149 75.7928 85.9489 75.4606 85.8382C75.0732 85.6721 74.6857 85.6168 74.3535 85.5061H74.2982C73.9107 85.4507 73.5786 85.3953 73.2464 85.3953C72.9143 85.3953 72.5821 85.3953 72.1947 85.4507H72.1393C71.8072 85.506 71.475 85.6167 71.1429 85.7275C69.759 86.2257 68.5412 87.3328 67.4894 89.0488L69.1501 86.3364C70.2019 84.6204 71.4197 83.5133 72.8036 83.0151C72.9143 82.9597 73.025 82.9597 73.1357 82.9043C73.3018 82.849 73.5232 82.7936 73.6893 82.7936C73.7446 82.7936 73.7446 82.7936 73.8 82.7936H73.8553C73.966 82.7936 74.0214 82.7383 74.1321 82.7383C74.2428 82.7383 74.4089 82.7383 74.5196 82.7383H74.8517H74.9071H75.1839L75.516 82.7936L75.8481 82.849L76.0142 82.9043C76.0142 82.9043 76.0142 82.9043 76.0695 82.9043H76.1249C76.2356 82.9043 76.3463 82.9597 76.457 82.9597C76.5678 83.015 76.6785 83.015 76.7892 83.0704C76.8999 83.1258 77.0106 83.1258 77.1213 83.1811H77.1767L77.4534 83.2918C77.5641 83.3472 77.6749 83.4026 77.7302 83.4026C77.8409 83.4579 77.9516 83.5133 78.007 83.5686C78.0623 83.624 78.1177 83.624 78.1731 83.6793H78.2284C78.2838 83.6793 78.2838 83.7347 78.3391 83.7347C78.4498 83.79 78.5606 83.8454 78.6713 83.9561C78.782 84.0115 78.8927 84.1222 79.0034 84.2329L79.0588 84.2882C79.1141 84.3436 79.1695 84.3989 79.2248 84.3989C79.3355 84.5097 79.4462 84.565 79.5016 84.6757C79.557 84.7311 79.6123 84.8418 79.6677 84.8971C79.7784 85.0078 79.8337 85.1186 79.9444 85.2293C79.9998 85.2846 80.0551 85.34 80.1105 85.3953C80.2212 85.5614 80.3319 85.7828 80.4426 85.9489L80.5534 86.1703C80.6641 86.3918 80.7748 86.6685 80.8855 86.8899V86.9453C80.8855 87.0006 80.9408 87.056 80.9408 87.1113C80.9962 87.2774 81.0516 87.4435 81.1069 87.6096C81.1623 87.7203 81.1623 87.8863 81.2176 87.9971C81.2176 88.0524 81.273 88.1631 81.273 88.2185C81.273 88.2738 81.3283 88.3292 81.3283 88.3846C81.3837 88.6613 81.439 88.9934 81.4944 89.3256V89.3809C81.4944 89.4917 81.4944 89.547 81.5498 89.6577C81.6051 89.9345 81.6051 90.1559 81.6605 90.4327C81.6605 90.5987 81.7158 90.7648 81.7158 90.9309L80.0552 93.6433C79.9998 93.2005 79.9444 92.813 79.8891 92.4255C79.8337 92.1487 79.8337 92.038 79.8337 91.9827Z" fill="url(#paint4_linear_8951_27492)"/>
<path d="M94.7796 103.94L93.1189 106.653L105.297 111.192L106.958 108.424L94.7796 103.94Z" fill="url(#paint5_linear_8951_27492)"/>
<mask id="mask0_8951_27492" style="mask-type:luminance" maskUnits="userSpaceOnUse" x="55" y="78" width="5" height="7">
<path d="M59.1309 78.3076L57.4702 81.02C56.8059 82.0718 56.2524 83.2343 55.6988 84.5074L57.3595 81.795C57.8577 80.5218 58.4666 79.3594 59.1309 78.3076Z" fill="white"/>
</mask>
<g mask="url(#mask0_8951_27492)">
<path d="M59.1309 78.3076L57.4702 81.02C57.1934 81.5182 56.9166 81.9611 56.6399 82.5146L58.3005 79.8022C58.5219 79.304 58.7987 78.8058 59.1309 78.3076Z" fill="#784E4A"/>
</g>
<mask id="mask1_8951_27492" style="mask-type:luminance" maskUnits="userSpaceOnUse" x="55" y="78" width="5" height="7">
<path d="M59.1309 78.3076L57.4702 81.02C56.8059 82.0718 56.2524 83.2343 55.6988 84.5074L57.3595 81.795C57.8577 80.5218 58.4666 79.3594 59.1309 78.3076Z" fill="white"/>
</mask>
<g mask="url(#mask1_8951_27492)">
<path d="M58.2998 79.8037L56.6391 82.5161C56.307 83.1804 55.9749 83.8447 55.6981 84.5089L57.3588 81.7965C57.6355 81.0769 57.9677 80.4126 58.2998 79.8037Z" fill="#7C514D"/>
</g>
<path d="M66.7685 93.5879L65.1632 96.3003L80.1645 101.891L81.8252 99.1234L66.7685 93.5879Z" fill="url(#paint6_linear_8951_27492)"/>
<path d="M45.5146 85.7268L43.9092 88.4392L53.4858 92.0374L55.1464 89.2696L45.5146 85.7268Z" fill="url(#paint7_linear_8951_27492)"/>
<path d="M47.5615 78.1973L45.9009 80.9097L43.9081 88.438L45.5134 85.7256L47.5615 78.1973Z" fill="#8A5A55"/>
<path d="M88.3031 123.537C88.137 123.426 88.0263 123.315 87.8602 123.205C87.6388 123.039 87.4174 122.873 87.2513 122.762C87.2513 122.762 87.2513 122.762 87.1959 122.762L87.1406 122.706C86.6977 122.374 86.3103 121.987 85.9228 121.599C85.8674 121.544 85.8121 121.489 85.7567 121.433C85.7013 121.378 85.7013 121.323 85.646 121.323C85.3139 120.935 84.9817 120.603 84.7049 120.215C84.4282 119.883 84.2067 119.496 83.93 119.164C83.7639 118.942 83.6532 118.721 83.4871 118.499C83.4318 118.389 83.3764 118.278 83.2657 118.167C82.9889 117.669 82.7121 117.226 82.4907 116.728C82.4354 116.617 82.4354 116.562 82.38 116.451C82.3247 116.285 82.2139 116.119 82.1586 115.898C82.0479 115.676 81.9372 115.4 81.8265 115.178C81.7157 114.901 81.6604 114.68 81.5497 114.403C81.4943 114.292 81.4943 114.182 81.439 114.071C81.439 114.016 81.3836 113.96 81.3836 113.85C81.2729 113.462 81.1622 113.075 81.0515 112.687C80.9961 112.466 80.9408 112.244 80.9408 112.023C80.8854 111.691 80.8301 111.359 80.7747 110.971C80.7193 110.584 80.664 110.196 80.6086 109.809V109.753C80.5533 109.31 80.4979 108.812 80.4426 108.369C80.4426 108.148 80.3872 107.871 80.3872 107.65C80.3872 107.484 80.3319 107.318 80.3319 107.096C80.2765 106.377 80.2211 105.712 80.2211 104.937C80.2211 104.882 80.2211 104.827 80.2211 104.771C80.2211 104.661 80.2211 104.605 80.2211 104.494C80.1658 103.664 80.1658 102.778 80.1658 101.837L81.8265 99.125C81.8265 100.011 81.8265 100.896 81.8818 101.727C81.8818 101.837 81.8818 101.893 81.8818 102.003C81.9372 102.778 81.9372 103.553 81.9925 104.328C81.9925 104.495 82.0479 104.661 82.0479 104.882C82.1032 105.602 82.1586 106.321 82.2693 106.985C82.2693 107.041 82.2693 107.041 82.2693 107.096C82.38 107.871 82.4907 108.591 82.6014 109.31C82.7121 109.975 82.9336 110.694 83.0996 111.359C83.155 111.469 83.155 111.58 83.2104 111.691C83.3764 112.189 83.5978 112.687 83.8193 113.185C83.8746 113.351 83.9853 113.517 84.0407 113.739C84.3175 114.292 84.5942 114.901 84.9264 115.455C84.9817 115.566 85.0371 115.676 85.1478 115.787C85.5353 116.396 85.9228 116.949 86.3103 117.503C86.587 117.891 86.9192 118.278 87.2513 118.61C87.362 118.721 87.4174 118.776 87.5281 118.887C87.9156 119.274 88.3031 119.662 88.7459 119.994C88.8013 120.049 88.8013 120.049 88.8566 120.105C89.078 120.271 89.2995 120.437 89.5209 120.603C89.6316 120.714 89.7977 120.824 89.9084 120.88C89.9637 120.935 90.0744 120.99 90.1298 121.046C90.4066 121.212 90.6833 121.433 90.9601 121.599C91.0708 121.655 91.1815 121.71 91.2923 121.821C91.569 121.987 91.7905 122.098 92.0672 122.264C92.1779 122.319 92.344 122.43 92.5101 122.485C92.7869 122.596 93.0636 122.762 93.3404 122.873C93.5065 122.928 93.6172 122.983 93.7833 123.094C94.1707 123.26 94.6136 123.426 95.0011 123.592C95.5546 123.814 96.1082 123.98 96.6617 124.146C96.7725 124.146 96.8278 124.201 96.9385 124.201C97.4367 124.367 97.9903 124.478 98.4885 124.589C98.5438 124.589 98.6545 124.644 98.7099 124.644C99.2081 124.755 99.7063 124.81 100.205 124.865C100.26 124.865 100.371 124.865 100.426 124.865C100.924 124.921 101.422 124.921 101.921 124.921C102.031 124.921 102.087 124.921 102.197 124.921C102.696 124.921 103.138 124.921 103.581 124.865C103.637 124.865 103.692 124.865 103.747 124.865C104.245 124.81 104.744 124.755 105.242 124.644C105.519 124.589 105.795 124.533 106.072 124.478C106.349 124.422 106.626 124.367 106.903 124.256C107.511 124.09 108.065 123.869 108.674 123.648C110.335 122.983 111.885 121.987 113.213 120.769C114.597 119.551 115.815 118.001 116.922 116.23L115.261 118.942C113.102 122.54 110.335 125.031 107.013 126.415C106.404 126.637 105.851 126.858 105.242 127.024C105.187 127.024 105.131 127.08 105.131 127.08C104.91 127.135 104.688 127.19 104.467 127.246C104.19 127.301 103.913 127.356 103.637 127.412C103.581 127.412 103.526 127.412 103.47 127.467C103.028 127.522 102.64 127.578 102.197 127.633H102.142C102.087 127.633 102.031 127.633 101.976 127.633C101.699 127.633 101.422 127.688 101.09 127.688C100.924 127.688 100.703 127.688 100.537 127.688C100.426 127.688 100.371 127.688 100.26 127.688C100.205 127.688 100.149 127.688 100.038 127.688C99.7063 127.688 99.4295 127.688 99.0974 127.633C98.9867 127.633 98.876 127.633 98.7099 127.578C98.6545 127.578 98.5438 127.578 98.4885 127.578C98.3778 127.578 98.2671 127.578 98.1563 127.522C97.8796 127.467 97.5474 127.467 97.2707 127.412C97.1599 127.412 97.0492 127.356 96.9385 127.356C96.8832 127.356 96.7725 127.301 96.7171 127.301C96.6064 127.301 96.4957 127.246 96.385 127.246C96.0528 127.19 95.7761 127.08 95.4439 127.024C95.3332 127.024 95.2779 126.969 95.1671 126.969C95.0564 126.969 95.0011 126.913 94.8904 126.913C94.7243 126.858 94.6136 126.858 94.4475 126.803C94.1154 126.692 93.7833 126.581 93.4511 126.471L93.2851 126.415C92.9529 126.305 92.6208 126.139 92.2887 126.028C92.2333 125.972 92.1226 125.972 92.0672 125.917C91.9012 125.862 91.7905 125.806 91.6244 125.751C91.4583 125.696 91.3476 125.64 91.1815 125.585C91.0708 125.53 90.9048 125.474 90.7941 125.419C90.628 125.364 90.5173 125.308 90.4066 125.197C90.3512 125.142 90.2405 125.142 90.1851 125.087C90.0191 124.976 89.7977 124.865 89.6316 124.755C89.5209 124.699 89.4102 124.644 89.2995 124.533C89.2441 124.533 89.2441 124.478 89.1887 124.478C88.912 124.312 88.6905 124.146 88.4138 123.98C88.4691 123.648 88.4138 123.592 88.3031 123.537Z" fill="url(#paint8_linear_8951_27492)"/>
<path d="M86.3639 117.444C88.3013 119.991 91.2352 121.983 95.11 123.423C99.926 125.194 104.465 125.249 108.728 123.478C112.99 121.707 116.311 118.164 118.636 112.794L128.545 116.448L130.593 108.92L120.961 105.377C121.736 101.557 121.902 97.7377 121.515 93.8629C121.127 89.988 120.297 86.722 118.968 83.9542L107.067 84.1203C108.174 86.6667 109.004 89.3791 109.392 92.3683C109.835 95.3575 109.835 98.236 109.392 101.114L94.6672 95.6896C94.6118 91.7593 94.3351 88.272 93.7262 85.3935C93.1726 82.4596 91.8994 79.7472 89.962 77.2009C88.0245 74.6545 85.0907 72.6617 81.1604 71.1671C76.2892 69.3403 71.6946 69.3404 67.3769 71.1117C63.0592 72.8831 59.7378 76.4812 57.4129 81.9614L47.615 78.3633L45.5668 85.8917L55.1987 89.4344C54.1469 95.8557 54.5344 101.613 56.4719 106.761L68.3179 106.982C66.8233 102.277 66.3251 97.8485 66.8233 93.6968L81.8247 99.2324C81.8247 103.107 82.1015 106.484 82.655 109.362C83.1532 112.186 84.4264 114.898 86.3639 117.444ZM81.6033 90.763L69.0929 86.1131C70.1447 84.3971 71.3625 83.2899 72.7464 82.7917C74.1303 82.2935 75.5695 82.3489 77.1195 82.9025C78.6141 83.456 79.6658 84.3971 80.3855 85.6702C81.0497 87.0541 81.4372 88.7148 81.6033 90.763ZM103.579 111.687C102.251 112.186 100.867 112.186 99.4278 111.632C97.9885 111.078 96.8814 110.193 96.1618 108.864C95.4422 107.591 94.9993 105.93 94.7779 103.938L106.956 108.421C106.015 110.082 104.853 111.189 103.579 111.687Z" fill="url(#paint9_linear_8951_27492)"/>
<path d="M86.3639 117.444C88.3013 119.991 91.2352 121.983 95.11 123.423C99.926 125.194 104.465 125.249 108.728 123.478C112.99 121.707 116.311 118.164 118.636 112.794L128.545 116.448L130.593 108.92L120.961 105.377C121.736 101.557 121.902 97.7377 121.515 93.8629C121.127 89.988 120.297 86.722 118.968 83.9542L107.067 84.1203C108.174 86.6667 109.004 89.3791 109.392 92.3683C109.835 95.3575 109.835 98.236 109.392 101.114L94.6672 95.6896C94.6118 91.7593 94.3351 88.272 93.7262 85.3935C93.1726 82.4596 91.8994 79.7472 89.962 77.2009C88.0245 74.6545 85.0907 72.6617 81.1604 71.1671C76.2892 69.3403 71.6946 69.3404 67.3769 71.1117C63.0592 72.8831 59.7378 76.4812 57.4129 81.9614L47.615 78.3633L45.5668 85.8917L55.1987 89.4344C54.1469 95.8557 54.5344 101.613 56.4719 106.761L68.3179 106.982C66.8233 102.277 66.3251 97.8485 66.8233 93.6968L81.8247 99.2324C81.8247 103.107 82.1015 106.484 82.655 109.362C83.1532 112.186 84.4264 114.898 86.3639 117.444ZM81.6033 90.763L69.0929 86.1131C70.1447 84.3971 71.3625 83.2899 72.7464 82.7917C74.1303 82.2935 75.5695 82.3489 77.1195 82.9025C78.6141 83.456 79.6658 84.3971 80.3855 85.6702C81.0497 87.0541 81.4372 88.7148 81.6033 90.763ZM103.579 111.687C102.251 112.186 100.867 112.186 99.4278 111.632C97.9885 111.078 96.8814 110.193 96.1618 108.864C95.4422 107.591 94.9993 105.93 94.7779 103.938L106.956 108.421C106.015 110.082 104.853 111.189 103.579 111.687Z" stroke="url(#paint10_linear_8951_27492)" stroke-width="0.744497" stroke-miterlimit="10"/>
<path d="M56.4186 106.595L68.2646 106.872L66.6593 109.584L54.7579 109.363L56.4186 106.595Z" fill="url(#paint11_linear_8951_27492)"/>
<path d="M54.6453 93.5309C54.6453 93.9184 54.59 94.2506 54.59 94.6381C54.59 95.0255 54.5899 95.413 54.5346 95.8005C54.5346 96.1326 54.5346 96.4648 54.5346 96.7969C54.5346 97.1844 54.5346 97.5719 54.59 98.0147C54.59 98.2915 54.6453 98.6237 54.6453 98.9004C54.7007 99.2879 54.7007 99.7307 54.756 100.118C54.8114 100.395 54.8114 100.672 54.8667 100.949C54.9221 101.336 55.0328 101.779 55.0881 102.166C55.1435 102.388 55.1989 102.665 55.2542 102.886C55.3649 103.273 55.4756 103.716 55.5863 104.104C55.6417 104.325 55.6971 104.602 55.7524 104.823C55.9185 105.432 56.1399 106.097 56.3613 106.65L54.7007 109.363C54.4792 108.809 54.3132 108.2 54.0917 107.647C54.0917 107.591 54.0918 107.591 54.0364 107.536C53.981 107.314 53.9257 107.093 53.8703 106.816C53.7596 106.484 53.7043 106.152 53.5936 105.765C53.5936 105.709 53.5935 105.654 53.5382 105.543C53.4828 105.322 53.4275 105.045 53.3721 104.823C53.3168 104.547 53.2614 104.215 53.2061 103.938C53.2061 103.827 53.2061 103.716 53.1507 103.606C53.0953 103.329 53.0954 103.052 53.04 102.775C52.9846 102.554 52.9846 102.277 52.9293 102.056C52.9293 101.89 52.9293 101.724 52.8739 101.557C52.8739 101.281 52.8186 100.949 52.8186 100.672C52.8186 100.45 52.7632 100.284 52.7632 100.063C52.7632 99.8415 52.7632 99.6754 52.7632 99.454C52.7632 99.1219 52.7632 98.7897 52.7632 98.4576C52.7632 98.2915 52.7632 98.1255 52.7632 97.9594C52.7632 97.738 52.7632 97.5165 52.8186 97.2951C52.8186 96.9076 52.8739 96.5755 52.8739 96.188C52.8739 96.0219 52.8739 95.8559 52.8739 95.6898C52.8739 95.4684 52.9293 95.247 52.9293 95.0809C52.9846 94.638 53.04 94.1952 53.0953 93.7523C53.0953 93.5863 53.1507 93.4202 53.1507 93.1988C53.2061 92.8113 53.2614 92.3685 53.3168 91.981L54.9774 89.2686C54.8667 89.8775 54.8114 90.431 54.756 91.0399C54.7007 91.4828 54.6453 91.9256 54.59 92.3685C54.7007 92.7559 54.7007 93.1435 54.6453 93.5309Z" fill="url(#paint12_linear_8951_27492)"/>
<path d="M74.4093 148C90.9606 154.144 107.457 153.923 120.853 148.664C134.193 143.35 144.323 133.054 148.143 118.883C151.962 104.712 148.696 89.4337 140.338 76.093C131.979 62.7524 118.528 51.5152 101.976 45.3707C85.425 39.2262 68.9291 39.4477 55.533 44.7064C42.1923 50.0206 32.0623 60.3167 28.2427 74.4877C24.4232 88.7141 27.6892 103.937 36.0479 117.278C44.4066 130.618 57.8026 141.911 74.4093 148Z" stroke="url(#paint13_linear_8951_27492)" stroke-width="0.744497" stroke-miterlimit="10"/>
<path d="M74.8531 35.2945C74.5763 43.2104 80.5547 49.853 88.1384 50.1298C95.7775 50.4066 102.143 44.1514 102.365 36.2356C102.642 28.3197 96.6632 21.6771 89.0795 21.4003C81.4957 21.1789 75.0745 27.3787 74.8531 35.2945Z" fill="url(#paint14_radial_8951_27492)"/>
<path d="M87.6946 63.5272C90.6284 63.6379 93.4516 51.2937 93.9498 35.9602C94.448 20.6267 92.4552 8.11633 89.5213 8.00562C86.5875 7.89491 83.7643 20.2392 83.2661 35.5727C82.7679 50.9062 84.7607 63.4165 87.6946 63.5272Z" fill="url(#paint15_radial_8951_27492)"/>
<path d="M60.9591 34.8525C60.8484 37.7863 73.1927 40.6094 88.4708 41.1076C103.749 41.6058 116.204 39.6684 116.315 36.6792C116.425 33.7453 104.081 30.9222 88.803 30.424C73.5248 29.9258 61.0698 31.9186 60.9591 34.8525Z" fill="url(#paint16_radial_8951_27492)"/>
<path d="M62.2883 34.9085C62.2329 36.4585 73.9683 38.1191 88.5268 38.6173C103.085 39.1155 114.931 38.2299 114.931 36.6799C114.987 35.1299 103.251 33.4693 88.6929 32.9711C74.1897 32.4729 62.3437 33.3586 62.2883 34.9085Z" fill="url(#paint17_radial_8951_27492)"/>
<path d="M75.572 35.3508C75.3506 41.8828 81.0522 47.363 88.2484 47.5844C95.4446 47.8059 101.478 42.7685 101.7 36.2366C101.921 29.7046 96.2196 24.2244 89.0234 24.003C81.7718 23.7262 75.7934 28.8189 75.572 35.3508Z" fill="url(#paint18_radial_8951_27492)"/>
<path d="M87.7514 62.1995C89.3014 62.2548 90.9621 50.4641 91.4049 35.8502C91.9031 21.2364 91.0174 9.39027 89.4675 9.33491C87.9175 9.27956 86.2568 21.0703 85.814 35.6842C85.3158 50.298 86.2015 62.1441 87.7514 62.1995Z" fill="url(#paint19_radial_8951_27492)"/>
<path d="M38.1514 83.8959C38.2068 88.6565 41.971 92.4761 46.5655 92.4207C51.16 92.3653 54.8135 88.4351 54.7581 83.6745C54.7028 78.914 50.9386 75.0944 46.3441 75.1498C41.7496 75.2051 38.0961 79.1354 38.1514 83.8959Z" fill="url(#paint20_radial_8951_27492)"/>
<path d="M46.6772 100.502C48.4486 100.502 49.7771 92.9741 49.6664 83.7851C49.5557 74.596 48.0057 67.123 46.2344 67.123C44.463 67.123 43.1344 74.6514 43.2452 83.8404C43.3559 93.0848 44.9058 100.502 46.6772 100.502Z" fill="url(#paint21_radial_8951_27492)"/>
<path d="M29.7936 84.0051C29.7936 85.7765 37.2666 87.1051 46.4556 86.9944C55.6447 86.8836 63.0623 85.3337 63.0623 83.5623C63.0623 81.7909 55.5893 80.4624 46.4003 80.5731C37.2113 80.6838 29.7936 82.2338 29.7936 84.0051Z" fill="url(#paint22_radial_8951_27492)"/>
<path d="M30.6227 84.0055C30.6227 84.9465 37.7083 85.6108 46.4544 85.5001C55.2006 85.3894 62.2861 84.559 62.2861 83.618C62.2861 82.6769 55.2006 82.0127 46.4544 82.1234C37.7083 82.2341 30.5674 83.0644 30.6227 84.0055Z" fill="url(#paint23_radial_8951_27492)"/>
<path d="M38.5955 83.8991C38.6509 87.8293 42.1936 90.9293 46.5114 90.8739C50.8291 90.8186 54.3165 87.6079 54.2611 83.6777C54.2058 79.7475 50.663 76.6475 46.3453 76.7029C42.0276 76.7582 38.5402 79.9689 38.5955 83.8991Z" fill="url(#paint24_radial_8951_27492)"/>
<path d="M46.6223 99.6725C47.5633 99.6725 48.2276 92.5316 48.1169 83.7855C48.0061 75.0393 47.1758 67.8984 46.2348 67.8984C45.2937 67.8984 44.6295 75.0393 44.7402 83.7855C44.8509 92.587 45.7366 99.7279 46.6223 99.6725Z" fill="url(#paint25_radial_8951_27492)"/>
</g>
<defs>
<filter id="filter0_f_8951_27492" x="0.199634" y="0.204883" width="167.706" height="187.596" filterUnits="userSpaceOnUse" color-interpolation-filters="sRGB">
<feFlood flood-opacity="0" result="BackgroundImageFix"/>
<feBlend mode="normal" in="SourceGraphic" in2="BackgroundImageFix" result="shape"/>
<feGaussianBlur stdDeviation="3.9" result="effect1_foregroundBlur_8951_27492"/>
</filter>
<linearGradient id="paint0_linear_8951_27492" x1="3.97624" y1="91.948" x2="133.162" y2="170.588" gradientUnits="userSpaceOnUse">
<stop stop-color="#D2AB5A"/>
<stop offset="0.0610851" stop-color="#BA9443"/>
<stop offset="0.1898" stop-color="#7C5808"/>
<stop offset="0.2069" stop-color="#735000"/>
<stop offset="0.2274" stop-color="#775200"/>
<stop offset="0.3376" stop-color="#8A5D00"/>
<stop offset="0.4146" stop-color="#916100"/>
<stop offset="0.4344" stop-color="#976707"/>
<stop offset="0.4986" stop-color="#D8B364"/>
<stop offset="0.5246" stop-color="#D4AE5D"/>
<stop offset="0.5617" stop-color="#CA9F4A"/>
<stop offset="0.6053" stop-color="#B9882C"/>
<stop offset="0.6414" stop-color="#A8700D"/>
<stop offset="0.6805" stop-color="#815400"/>
<stop offset="0.8029" stop-color="#B38116"/>
<stop offset="0.8267" stop-color="#A27114"/>
<stop offset="0.8802" stop-color="#815110"/>
<stop offset="0.9247" stop-color="#6C3D0E"/>
<stop offset="0.9545" stop-color="#65360D"/>
<stop offset="0.9581" stop-color="#6F3F0D"/>
<stop offset="0.9701" stop-color="#8A580C"/>
<stop offset="0.9807" stop-color="#9B670C"/>
<stop offset="0.9886" stop-color="#A16C0C"/>
</linearGradient>
<linearGradient id="paint1_linear_8951_27492" x1="152.478" y1="100.889" x2="-24.7221" y2="89.2984" gradientUnits="userSpaceOnUse">
<stop stop-color="#D7AC4C"/>
<stop offset="0.1816" stop-color="#FFFFB0"/>
<stop offset="0.3268" stop-color="#F4D174"/>
<stop offset="0.3659" stop-color="#FBED99"/>
<stop offset="0.3939" stop-color="#FAEC97"/>
<stop offset="0.433" stop-color="#DEB04D"/>
<stop offset="0.5275" stop-color="#DFB24F"/>
<stop offset="0.5615" stop-color="#E2B756"/>
<stop offset="0.5858" stop-color="#E7C161"/>
<stop offset="0.6053" stop-color="#EECF72"/>
<stop offset="0.6207" stop-color="#F6DF86"/>
<stop offset="0.7529" stop-color="#F2D87E"/>
<stop offset="0.7672" stop-color="#F1D77D"/>
<stop offset="0.7716" stop-color="#EBCD71"/>
<stop offset="0.7804" stop-color="#E2BE60"/>
<stop offset="0.7913" stop-color="#DCB455"/>
<stop offset="0.8066" stop-color="#D8AE4E"/>
<stop offset="0.8492" stop-color="#D7AC4C"/>
<stop offset="1" stop-color="#966424"/>
</linearGradient>
<linearGradient id="paint2_linear_8951_27492" x1="199.632" y1="99.6723" x2="-20.4634" y2="93.7728" gradientUnits="userSpaceOnUse">
<stop stop-color="#D7AC4C"/>
<stop offset="0.1816" stop-color="#FFFFB0"/>
<stop offset="0.3268" stop-color="#F4D174"/>
<stop offset="0.3659" stop-color="#FBED99"/>
<stop offset="0.3939" stop-color="#FAEC97"/>
<stop offset="0.433" stop-color="#DEB04D"/>
<stop offset="0.5275" stop-color="#DFB24F"/>
<stop offset="0.5615" stop-color="#E2B756"/>
<stop offset="0.5858" stop-color="#E7C161"/>
<stop offset="0.6053" stop-color="#EECF72"/>
<stop offset="0.6207" stop-color="#F6DF86"/>
<stop offset="0.7529" stop-color="#F2D87E"/>
<stop offset="0.7672" stop-color="#F1D77D"/>
<stop offset="0.7716" stop-color="#EBCD71"/>
<stop offset="0.7804" stop-color="#E2BE60"/>
<stop offset="0.7913" stop-color="#DCB455"/>
<stop offset="0.8066" stop-color="#D8AE4E"/>
<stop offset="0.8492" stop-color="#D7AC4C"/>
<stop offset="1" stop-color="#966424"/>
</linearGradient>
<linearGradient id="paint3_linear_8951_27492" x1="130.296" y1="93.2458" x2="22.7327" y2="30.9381" gradientUnits="userSpaceOnUse">
<stop stop-color="#D2AB5A"/>
<stop offset="0.0610851" stop-color="#BA9443"/>
<stop offset="0.1898" stop-color="#7C5808"/>
<stop offset="0.2069" stop-color="#735000"/>
<stop offset="0.2274" stop-color="#775200"/>
<stop offset="0.3376" stop-color="#8A5D00"/>
<stop offset="0.4146" stop-color="#916100"/>
<stop offset="0.4344" stop-color="#976707"/>
<stop offset="0.4986" stop-color="#D8B364"/>
<stop offset="0.5246" stop-color="#D4AE5D"/>
<stop offset="0.5617" stop-color="#CA9F4A"/>
<stop offset="0.6053" stop-color="#B9882C"/>
<stop offset="0.6414" stop-color="#A8700D"/>
<stop offset="0.6805" stop-color="#815400"/>
<stop offset="0.8029" stop-color="#B38116"/>
<stop offset="0.8267" stop-color="#A27114"/>
<stop offset="0.8802" stop-color="#815110"/>
<stop offset="0.9247" stop-color="#6C3D0E"/>
<stop offset="0.9545" stop-color="#65360D"/>
<stop offset="0.9581" stop-color="#6F3F0D"/>
<stop offset="0.9701" stop-color="#8A580C"/>
<stop offset="0.9807" stop-color="#9B670C"/>
<stop offset="0.9886" stop-color="#A16C0C"/>
</linearGradient>
<linearGradient id="paint4_linear_8951_27492" x1="92.9572" y1="91.5544" x2="68.7464" y2="85.9089" gradientUnits="userSpaceOnUse">
<stop stop-color="#A16C0C"/>
<stop offset="0.2318" stop-color="#BE9134"/>
<stop offset="0.5559" stop-color="#A8700D"/>
<stop offset="1" stop-color="#432400"/>
</linearGradient>
<linearGradient id="paint5_linear_8951_27492" x1="113.142" y1="112.423" x2="92.4967" y2="104.757" gradientUnits="userSpaceOnUse">
<stop stop-color="#A16C0C"/>
<stop offset="0.2318" stop-color="#BE9134"/>
<stop offset="0.4314" stop-color="#A8700D"/>
<stop offset="1" stop-color="#432400"/>
</linearGradient>
<linearGradient id="paint6_linear_8951_27492" x1="95.5375" y1="107.069" x2="64.7866" y2="94.0571" gradientUnits="userSpaceOnUse">
<stop stop-color="#A16C0C"/>
<stop offset="0.2318" stop-color="#BE9134"/>
<stop offset="0.5559" stop-color="#A8700D"/>
<stop offset="1" stop-color="#432400"/>
</linearGradient>
<linearGradient id="paint7_linear_8951_27492" x1="33.7684" y1="83.3453" x2="58.53" y2="92.0358" gradientUnits="userSpaceOnUse">
<stop stop-color="#A16C0C"/>
<stop offset="0.2318" stop-color="#BE9134"/>
<stop offset="0.5559" stop-color="#A8700D"/>
<stop offset="1" stop-color="#432400"/>
</linearGradient>
<linearGradient id="paint8_linear_8951_27492" x1="113.212" y1="118.312" x2="36.8169" y2="101.76" gradientUnits="userSpaceOnUse">
<stop stop-color="#A16C0C"/>
<stop offset="0.2318" stop-color="#BE9134"/>
<stop offset="0.5559" stop-color="#A8700D"/>
<stop offset="1" stop-color="#432400"/>
</linearGradient>
<linearGradient id="paint9_linear_8951_27492" x1="-24.0857" y1="82.0813" x2="164.465" y2="107.539" gradientUnits="userSpaceOnUse">
<stop stop-color="#D7AC4C"/>
<stop offset="0.1816" stop-color="#FFFFB0"/>
<stop offset="0.3268" stop-color="#F4D174"/>
<stop offset="0.3659" stop-color="#FBED99"/>
<stop offset="0.3939" stop-color="#FAEC97"/>
<stop offset="0.433" stop-color="#DEB04D"/>
<stop offset="0.5275" stop-color="#DFB24F"/>
<stop offset="0.5615" stop-color="#E2B756"/>
<stop offset="0.5858" stop-color="#E7C161"/>
<stop offset="0.6053" stop-color="#EECF72"/>
<stop offset="0.6207" stop-color="#F6DF86"/>
<stop offset="0.7529" stop-color="#F2D87E"/>
<stop offset="0.7672" stop-color="#F1D77D"/>
<stop offset="0.7716" stop-color="#EBCD71"/>
<stop offset="0.7804" stop-color="#E2BE60"/>
<stop offset="0.7913" stop-color="#DCB455"/>
<stop offset="0.8066" stop-color="#D8AE4E"/>
<stop offset="0.8492" stop-color="#D7AC4C"/>
<stop offset="1" stop-color="#966424"/>
</linearGradient>
<linearGradient id="paint10_linear_8951_27492" x1="104.59" y1="73.4109" x2="73.1325" y2="118.754" gradientUnits="userSpaceOnUse">
<stop stop-color="#D7AC4C"/>
<stop offset="0.1816" stop-color="#FFFFB0"/>
<stop offset="0.3268" stop-color="#F4D174"/>
<stop offset="0.433" stop-color="#DEB04D"/>
<stop offset="0.7067" stop-color="#F6DF86"/>
<stop offset="0.8492" stop-color="#D7AC4C"/>
<stop offset="1" stop-color="#966424"/>
</linearGradient>
<linearGradient id="paint11_linear_8951_27492" x1="49.6593" y1="105.118" x2="69.218" y2="110.033" gradientUnits="userSpaceOnUse">
<stop stop-color="#A16C0C"/>
<stop offset="0.2318" stop-color="#BE9134"/>
<stop offset="0.5559" stop-color="#A8700D"/>
<stop offset="1" stop-color="#432400"/>
</linearGradient>
<linearGradient id="paint12_linear_8951_27492" x1="114.525" y1="112.222" x2="38.1349" y2="95.6714" gradientUnits="userSpaceOnUse">
<stop stop-color="#A16C0C"/>
<stop offset="0.2318" stop-color="#BE9134"/>
<stop offset="0.5559" stop-color="#A8700D"/>
<stop offset="1" stop-color="#432400"/>
</linearGradient>
<linearGradient id="paint13_linear_8951_27492" x1="150.312" y1="98.3501" x2="26.0594" y2="95.0196" gradientUnits="userSpaceOnUse">
<stop stop-color="#D7AC4C"/>
<stop offset="0.1816" stop-color="#FFFFB0"/>
<stop offset="0.3268" stop-color="#F4D174"/>
<stop offset="0.433" stop-color="#DEB04D"/>
<stop offset="0.7067" stop-color="#F6DF86"/>
<stop offset="0.8492" stop-color="#D7AC4C"/>
<stop offset="1" stop-color="#966424"/>
</linearGradient>
<radialGradient id="paint14_radial_8951_27492" cx="0" cy="0" r="1" gradientUnits="userSpaceOnUse" gradientTransform="translate(88.6166 35.7829) rotate(-178.078) scale(13.79 14.3817)">
<stop stop-color="white"/>
<stop offset="0.1392" stop-color="#FFF4E1" stop-opacity="0.8608"/>
<stop offset="0.4329" stop-color="#FFE0A8" stop-opacity="0.5671"/>
<stop offset="0.6847" stop-color="#FFD17E" stop-opacity="0.3153"/>
<stop offset="0.8819" stop-color="#FFC864" stop-opacity="0.1181"/>
<stop offset="1" stop-color="#FFC55B" stop-opacity="0"/>
</radialGradient>
<radialGradient id="paint15_radial_8951_27492" cx="0" cy="0" r="1" gradientUnits="userSpaceOnUse" gradientTransform="translate(88.6153 35.7851) rotate(91.8785) scale(27.7685 5.32853)">
<stop stop-color="white"/>
<stop offset="0.1392" stop-color="#FFF4E1" stop-opacity="0.8608"/>
<stop offset="0.4329" stop-color="#FFE0A8" stop-opacity="0.5671"/>
<stop offset="0.6847" stop-color="#FFD17E" stop-opacity="0.3153"/>
<stop offset="0.8819" stop-color="#FFC864" stop-opacity="0.1181"/>
<stop offset="1" stop-color="#FFC55B" stop-opacity="0"/>
</radialGradient>
<radialGradient id="paint16_radial_8951_27492" cx="0" cy="0" r="1" gradientUnits="userSpaceOnUse" gradientTransform="translate(88.617 35.784) rotate(-178.077) scale(27.6786 5.34589)">
<stop stop-color="white"/>
<stop offset="0.1392" stop-color="#FFF4E1" stop-opacity="0.8608"/>
<stop offset="0.4329" stop-color="#FFE0A8" stop-opacity="0.5671"/>
<stop offset="0.6847" stop-color="#FFD17E" stop-opacity="0.3153"/>
<stop offset="0.8819" stop-color="#FFC864" stop-opacity="0.1181"/>
<stop offset="1" stop-color="#FFC55B" stop-opacity="0"/>
</radialGradient>
<radialGradient id="paint17_radial_8951_27492" cx="0" cy="0" r="1" gradientUnits="userSpaceOnUse" gradientTransform="translate(88.6167 35.7845) rotate(-178.077) scale(26.3521 2.80798)">
<stop stop-color="white"/>
<stop offset="0.1594" stop-color="#FFF0D5" stop-opacity="0.8406"/>
<stop offset="0.3495" stop-color="#FFE1A9" stop-opacity="0.6505"/>
<stop offset="0.5337" stop-color="#FFD587" stop-opacity="0.4663"/>
<stop offset="0.7078" stop-color="#FFCC6F" stop-opacity="0.2922"/>
<stop offset="0.8677" stop-color="#FFC760" stop-opacity="0.1323"/>
<stop offset="1" stop-color="#FFC55B" stop-opacity="0"/>
</radialGradient>
<radialGradient id="paint18_radial_8951_27492" cx="0" cy="0" r="1" gradientUnits="userSpaceOnUse" gradientTransform="translate(88.615 35.7839) rotate(-178.077) scale(13.0577 11.8012)">
<stop stop-color="white"/>
<stop offset="0.1594" stop-color="#FFF0D5" stop-opacity="0.8406"/>
<stop offset="0.3495" stop-color="#FFE1A9" stop-opacity="0.6505"/>
<stop offset="0.5337" stop-color="#FFD587" stop-opacity="0.4663"/>
<stop offset="0.7078" stop-color="#FFCC6F" stop-opacity="0.2922"/>
<stop offset="0.8677" stop-color="#FFC760" stop-opacity="0.1323"/>
<stop offset="1" stop-color="#FFC55B" stop-opacity="0"/>
</radialGradient>
<radialGradient id="paint19_radial_8951_27492" cx="0" cy="0" r="1" gradientUnits="userSpaceOnUse" gradientTransform="translate(88.6168 35.7843) rotate(91.8781) scale(26.439 2.79877)">
<stop stop-color="white"/>
<stop offset="0.1123" stop-color="#FFF1D7" stop-opacity="0.8877"/>
<stop offset="0.2389" stop-color="#FFE3B1" stop-opacity="0.7611"/>
<stop offset="0.3711" stop-color="#FFD892" stop-opacity="0.6289"/>
<stop offset="0.5084" stop-color="#FFD07A" stop-opacity="0.4916"/>
<stop offset="0.6529" stop-color="#FFCA68" stop-opacity="0.3471"/>
<stop offset="0.8095" stop-color="#FFC65E" stop-opacity="0.1905"/>
<stop offset="1" stop-color="#FFC55B" stop-opacity="0"/>
</radialGradient>
<radialGradient id="paint20_radial_8951_27492" cx="0" cy="0" r="1" gradientUnits="userSpaceOnUse" gradientTransform="translate(46.4307 83.8044) rotate(179.274) scale(8.28552 8.64114)">
<stop stop-color="white"/>
<stop offset="0.1392" stop-color="#FFF4E1" stop-opacity="0.8608"/>
<stop offset="0.4329" stop-color="#FFE0A8" stop-opacity="0.5671"/>
<stop offset="0.6847" stop-color="#FFD17E" stop-opacity="0.3153"/>
<stop offset="0.8819" stop-color="#FFC864" stop-opacity="0.1181"/>
<stop offset="1" stop-color="#FFC55B" stop-opacity="0"/>
</radialGradient>
<radialGradient id="paint21_radial_8951_27492" cx="0" cy="0" r="1" gradientUnits="userSpaceOnUse" gradientTransform="translate(46.4315 83.8044) rotate(89.2297) scale(16.6845 3.20161)">
<stop stop-color="white"/>
<stop offset="0.1392" stop-color="#FFF4E1" stop-opacity="0.8608"/>
<stop offset="0.4329" stop-color="#FFE0A8" stop-opacity="0.5671"/>
<stop offset="0.6847" stop-color="#FFD17E" stop-opacity="0.3153"/>
<stop offset="0.8819" stop-color="#FFC864" stop-opacity="0.1181"/>
<stop offset="1" stop-color="#FFC55B" stop-opacity="0"/>
</radialGradient>
<radialGradient id="paint22_radial_8951_27492" cx="0" cy="0" r="1" gradientUnits="userSpaceOnUse" gradientTransform="translate(46.431 83.8029) rotate(179.274) scale(16.6299 3.2121)">
<stop stop-color="white"/>
<stop offset="0.1392" stop-color="#FFF4E1" stop-opacity="0.8608"/>
<stop offset="0.4329" stop-color="#FFE0A8" stop-opacity="0.5671"/>
<stop offset="0.6847" stop-color="#FFD17E" stop-opacity="0.3153"/>
<stop offset="0.8819" stop-color="#FFC864" stop-opacity="0.1181"/>
<stop offset="1" stop-color="#FFC55B" stop-opacity="0"/>
</radialGradient>
<radialGradient id="paint23_radial_8951_27492" cx="0" cy="0" r="1" gradientUnits="userSpaceOnUse" gradientTransform="translate(46.4288 83.8032) rotate(179.275) scale(15.8334 1.68714)">
<stop stop-color="white"/>
<stop offset="0.1594" stop-color="#FFF0D5" stop-opacity="0.8406"/>
<stop offset="0.3495" stop-color="#FFE1A9" stop-opacity="0.6505"/>
<stop offset="0.5337" stop-color="#FFD587" stop-opacity="0.4663"/>
<stop offset="0.7078" stop-color="#FFCC6F" stop-opacity="0.2922"/>
<stop offset="0.8677" stop-color="#FFC760" stop-opacity="0.1323"/>
<stop offset="1" stop-color="#FFC55B" stop-opacity="0"/>
</radialGradient>
<radialGradient id="paint24_radial_8951_27492" cx="0" cy="0" r="1" gradientUnits="userSpaceOnUse" gradientTransform="translate(46.4314 83.8076) rotate(179.275) scale(7.84547 7.09047)">
<stop stop-color="white"/>
<stop offset="0.1594" stop-color="#FFF0D5" stop-opacity="0.8406"/>
<stop offset="0.3495" stop-color="#FFE1A9" stop-opacity="0.6505"/>
<stop offset="0.5337" stop-color="#FFD587" stop-opacity="0.4663"/>
<stop offset="0.7078" stop-color="#FFCC6F" stop-opacity="0.2922"/>
<stop offset="0.8677" stop-color="#FFC760" stop-opacity="0.1323"/>
<stop offset="1" stop-color="#FFC55B" stop-opacity="0"/>
</radialGradient>
<radialGradient id="paint25_radial_8951_27492" cx="0" cy="0" r="1" gradientUnits="userSpaceOnUse" gradientTransform="translate(46.432 83.8043) rotate(89.2298) scale(15.885 1.68161)">
<stop stop-color="white"/>
<stop offset="0.1123" stop-color="#FFF1D7" stop-opacity="0.8877"/>
<stop offset="0.2389" stop-color="#FFE3B1" stop-opacity="0.7611"/>
<stop offset="0.3711" stop-color="#FFD892" stop-opacity="0.6289"/>
<stop offset="0.5084" stop-color="#FFD07A" stop-opacity="0.4916"/>
<stop offset="0.6529" stop-color="#FFCA68" stop-opacity="0.3471"/>
<stop offset="0.8095" stop-color="#FFC65E" stop-opacity="0.1905"/>
<stop offset="1" stop-color="#FFC55B" stop-opacity="0"/>
</radialGradient>
</defs>
</svg>
