<svg width="55" height="61" viewBox="0 0 55 61" fill="none" xmlns="http://www.w3.org/2000/svg">
<g id="Group">
<g id="Group_2">
<path id="Vector" d="M1.81152 24.9358L1.89144 24.7591L4.04909 20.4003C4.18893 20.0862 4.34876 19.772 4.52856 19.4383L4.62845 19.2419C4.92813 18.6922 5.24778 18.1424 5.62737 17.6123C5.30771 18.1817 5.04799 18.7511 4.78828 19.3205L52.2765 45.2373L52.2365 45.2962C52.0767 45.5907 51.9169 45.8656 51.7371 46.1601L48.5605 51.5791C40.0698 64.3805 24.0273 62.7509 13.0193 54.9562C3.28991 48.8107 -3.38281 35.6363 1.81152 24.9358Z" fill="url(#paint0_linear_8951_27547)"/>
<g id="Group_3">
<path id="Vector_2" d="M6.92727 40.0146C3.4111 34.4975 2.0326 28.1361 3.63086 22.2655C5.2491 16.3949 9.54441 12.0951 15.1583 9.89608C20.7921 7.69708 27.7845 7.61854 34.7569 10.171C41.7493 12.7037 47.4231 17.3963 50.9393 22.9134C54.4554 28.4306 55.8339 34.792 54.2357 40.6626C52.6374 46.5331 48.3421 50.833 42.7082 53.032C37.0944 55.2113 30.082 55.2899 23.1096 52.7571C16.1372 50.2047 10.4434 45.5318 6.92727 40.0146Z" fill="url(#paint1_linear_8951_27547)"/>
</g>
<path id="Vector_3" d="M23.9681 49.6547C29.9416 51.8341 35.8951 51.7555 40.7298 49.8903C45.5446 48.0054 49.2006 44.3535 50.5791 39.3272C51.9576 34.3009 50.7789 28.8819 47.7622 24.1501C44.7455 19.4183 39.8908 15.4326 33.9173 13.2533C27.9438 11.0739 21.9903 11.1524 17.1556 13.0177C12.3408 14.9025 8.68479 18.5544 7.3063 23.5807C5.9278 28.6267 7.10651 34.026 10.1232 38.7578C13.1399 43.4896 17.9747 47.495 23.9681 49.6547Z" fill="url(#paint2_linear_8951_27547)"/>
<path id="Vector_4" d="M36.0751 33.2017C36.0751 33.1821 36.0751 33.1821 36.0751 33.1624C36.0951 32.9465 36.0951 32.7305 36.0951 32.4949C36.0951 32.4164 36.0951 32.3378 36.0951 32.2593C36.0951 32.1022 36.0951 31.9255 36.0751 31.7684C36.0751 31.6703 36.0552 31.5917 36.0552 31.4936C36.0352 31.2776 36.0152 31.0616 35.9752 30.8456C35.9553 30.6689 35.9153 30.5119 35.8754 30.3352C35.8554 30.2174 35.8354 30.0996 35.7954 29.9817C35.7755 29.8443 35.7355 29.7265 35.6955 29.5891C35.6556 29.4713 35.6356 29.3534 35.5957 29.2356C35.5557 29.1178 35.5157 29 35.4758 28.9019C35.4358 28.7644 35.3959 28.6466 35.3359 28.5092C35.256 28.3129 35.1761 28.0969 35.0962 27.9005L35.6955 26.9385C35.7755 27.1152 35.8554 27.2722 35.9153 27.449C35.9353 27.4686 35.9353 27.5079 35.9353 27.5275C35.9752 27.6453 36.0352 27.7827 36.0751 27.9202C36.0951 27.9987 36.1351 28.0969 36.175 28.1754C36.175 28.1951 36.195 28.2343 36.195 28.2539C36.235 28.3717 36.2549 28.4896 36.2949 28.6074C36.3149 28.7055 36.3548 28.8037 36.3748 28.9019C36.3748 28.9411 36.3948 28.9608 36.3948 29C36.4148 29.1179 36.4347 29.2357 36.4747 29.3535C36.4947 29.4516 36.5147 29.5498 36.5346 29.648C36.5546 29.7069 36.5546 29.7854 36.5746 29.8639C36.5946 30.021 36.6145 30.1781 36.6345 30.3352C36.6345 30.3941 36.6345 30.453 36.6545 30.5119C36.6545 30.61 36.6745 30.6886 36.6745 30.7867C36.6745 30.8456 36.6945 30.9242 36.6945 30.9831C36.6945 31.0812 36.6945 31.1794 36.6945 31.2776C36.6945 31.3561 36.6945 31.4347 36.6945 31.5132C36.6945 31.5525 36.6945 31.5721 36.6945 31.6114C36.6945 31.8077 36.6745 31.9844 36.6745 32.1807C36.6745 32.2004 36.6745 32.2004 36.6745 32.22C36.6545 32.4164 36.6345 32.6127 36.6145 32.809C36.6145 32.8679 36.5946 32.9072 36.5946 32.9661L35.9952 33.9282C36.0152 33.7122 36.0552 33.457 36.0751 33.2017Z" fill="url(#paint3_linear_8951_27547)"/>
<path id="Vector_5" d="M39.9112 37.1484L39.3318 38.1301L42.888 39.426L43.4873 38.4443L39.9112 37.1484Z" fill="url(#paint4_linear_8951_27547)"/>
<path id="Vector_6" d="M44.147 21.2633C44.0471 21.1651 43.9472 21.0473 43.8473 20.9492C43.8074 20.9099 43.7674 20.8706 43.7075 20.8117C43.5077 20.6154 43.3279 20.4387 43.1281 20.2423C43.0482 20.1638 42.9683 20.0853 42.8884 20.0264C42.7086 19.8693 42.5487 19.7122 42.3689 19.5552C42.289 19.4766 42.2091 19.4177 42.1092 19.3392C41.8895 19.1625 41.6897 18.9858 41.4699 18.8091C41.43 18.7698 41.37 18.7305 41.3301 18.6913C41.0504 18.4753 40.7507 18.2397 40.471 18.0237C40.451 18.0041 40.431 18.0041 40.4111 17.9844C40.1314 17.7881 39.8517 17.5721 39.552 17.3954C39.4921 17.3561 39.4521 17.3365 39.3922 17.2972C39.1524 17.1402 38.9127 16.9831 38.673 16.8457C38.5731 16.7868 38.4932 16.7279 38.3933 16.669C38.2334 16.5708 38.0736 16.4726 37.9138 16.3941C37.6141 16.2174 37.3144 16.0603 37.0148 15.8836C36.8949 15.8247 36.795 15.7658 36.6751 15.7069C36.3355 15.5302 35.9759 15.3535 35.6363 15.1964C35.5963 15.1768 35.5564 15.1571 35.5164 15.1375C35.1368 14.9608 34.7572 14.8037 34.3577 14.627C34.018 14.4896 33.6584 14.3521 33.3188 14.2147C33.119 14.1362 32.9192 14.0773 32.7195 13.9987C32.4997 13.9202 32.2799 13.8417 32.0602 13.7828C31.8804 13.7239 31.7205 13.6846 31.5407 13.6257C31.341 13.5668 31.1212 13.5079 30.9214 13.449C30.7416 13.4097 30.5618 13.3508 30.382 13.3115C30.1822 13.2526 29.9824 13.2134 29.7827 13.1741C29.6029 13.1348 29.423 13.0956 29.2632 13.0759C29.0634 13.0367 28.8437 12.9974 28.6439 12.9581C28.4641 12.9189 28.3043 12.8992 28.1245 12.8796C27.9047 12.8403 27.7049 12.8207 27.4852 12.7814C27.3253 12.7618 27.1455 12.7422 26.9857 12.7225C26.7659 12.7029 26.5462 12.6833 26.3064 12.6636C26.1466 12.644 25.9868 12.644 25.827 12.6244C25.5673 12.6047 25.3275 12.6047 25.0678 12.5851C24.928 12.5851 24.7881 12.5655 24.6483 12.5655C24.2887 12.5655 23.9091 12.5655 23.5495 12.5655C23.5095 12.5655 23.4695 12.5655 23.4296 12.5655C22.9901 12.5851 22.5705 12.6047 22.151 12.644C21.9512 12.6636 21.7514 12.6833 21.5516 12.7029C21.4517 12.7225 21.3718 12.7225 21.2719 12.7422C20.9723 12.7814 20.6526 12.8207 20.3529 12.8796C20.0133 12.9385 19.6737 12.9974 19.354 13.0759C19.3341 13.0759 19.2941 13.0956 19.2741 13.0956C18.9744 13.1741 18.6748 13.233 18.3751 13.3312C18.1753 13.3901 17.9556 13.449 17.7558 13.5275C17.6559 13.5668 17.536 13.5864 17.4361 13.6257C17.1365 13.7239 16.8168 13.8417 16.5371 13.9595C13.0809 15.2946 10.224 17.5721 8.38599 20.5761L8.98534 19.6141C10.8433 16.5904 13.7002 14.3325 17.1365 12.9974C17.4361 12.8796 17.7358 12.7814 18.0355 12.6636C18.1354 12.6244 18.2552 12.6047 18.3551 12.5655C18.5549 12.5066 18.7547 12.4476 18.9545 12.3887H18.9744C19.2741 12.3102 19.5538 12.2317 19.8535 12.1728C19.8934 12.1728 19.9134 12.1531 19.9534 12.1531C20.293 12.0746 20.6127 12.0157 20.9523 11.9568H20.9723C21.2719 11.8979 21.5716 11.8586 21.8713 11.8194C21.9712 11.7997 22.0511 11.7997 22.151 11.7801C22.3108 11.7605 22.4507 11.7408 22.6105 11.7212C22.6504 11.7212 22.7104 11.7212 22.7503 11.7212C23.1699 11.6819 23.6094 11.6427 24.0289 11.6427C24.0289 11.6427 24.0289 11.6427 24.0489 11.6427C24.0889 11.6427 24.1088 11.6427 24.1488 11.6427C24.5084 11.623 24.888 11.623 25.2476 11.6427C25.2876 11.6427 25.3275 11.6427 25.3875 11.6427C25.4873 11.6427 25.5872 11.6623 25.6871 11.6623C25.9269 11.6623 26.1866 11.6819 26.4463 11.7016C26.5262 11.7016 26.5861 11.7016 26.6661 11.7016C26.746 11.7016 26.8459 11.7212 26.9258 11.7212C27.1455 11.7408 27.3653 11.7605 27.5851 11.7801C27.6849 11.7997 27.7649 11.7997 27.8647 11.7997C27.9447 11.7997 28.0046 11.8194 28.0845 11.839C28.2843 11.8586 28.5041 11.8979 28.7238 11.9372C28.8237 11.9568 28.9436 11.9568 29.0435 11.9764C29.1034 11.9961 29.1633 11.9961 29.2432 12.0157C29.443 12.055 29.6428 12.0942 29.8626 12.1335C29.9824 12.1531 30.1023 12.1728 30.2222 12.1924C30.2821 12.212 30.342 12.212 30.382 12.2317C30.5818 12.2709 30.7816 12.3298 30.9813 12.3691C31.1012 12.4084 31.2411 12.428 31.3609 12.4673C31.4209 12.4869 31.4608 12.4869 31.5208 12.5066C31.7205 12.5655 31.9203 12.6244 32.1201 12.6833C32.26 12.7225 32.3798 12.7618 32.5197 12.8011C32.5596 12.8207 32.5996 12.8207 32.6395 12.8403C32.8593 12.8992 33.0591 12.9778 33.2788 13.0563C33.4187 13.0956 33.5585 13.1348 33.6784 13.1937C33.7383 13.2134 33.8183 13.2526 33.8782 13.2723C34.2178 13.3901 34.5375 13.5275 34.8771 13.6453C34.8971 13.6453 34.9171 13.665 34.937 13.665C35.3366 13.822 35.7162 13.9987 36.0958 14.1558H36.1157C36.1557 14.1754 36.1957 14.1951 36.2356 14.2147C36.5752 14.3718 36.9349 14.5485 37.2745 14.7252C37.3144 14.7448 37.3544 14.7645 37.3744 14.7841C37.4543 14.8234 37.5342 14.8626 37.6141 14.9215C37.9138 15.0786 38.2135 15.2553 38.5131 15.432C38.5731 15.4713 38.653 15.5106 38.7129 15.5498C38.8128 15.6087 38.8927 15.6676 38.9926 15.7265C39.0925 15.7854 39.1724 15.8443 39.2723 15.9032C39.512 16.0603 39.7518 16.2174 39.9915 16.3744C40.0515 16.4137 40.0914 16.4333 40.1513 16.4726C40.1713 16.4726 40.1713 16.4923 40.1913 16.4923C40.471 16.669 40.7307 16.8653 41.0104 17.0616C41.0304 17.0813 41.0504 17.0813 41.0504 17.1009C41.3301 17.3169 41.6098 17.5132 41.8895 17.7292C41.9094 17.7292 41.9094 17.7488 41.9294 17.7488C41.9694 17.7881 42.0293 17.8274 42.0693 17.8666C42.289 18.0433 42.5088 18.22 42.7086 18.3968C42.7885 18.4753 42.8684 18.5342 42.9683 18.6127C43.1481 18.7698 43.3279 18.9269 43.4877 19.0839C43.5676 19.1625 43.6475 19.241 43.7274 19.3195C43.9272 19.5159 44.127 19.6926 44.3068 19.8889C44.3468 19.9282 44.3867 19.9675 44.4467 20.0264C44.4666 20.046 44.4666 20.046 44.4866 20.0656C44.5665 20.1638 44.6664 20.2423 44.7463 20.3405C44.9062 20.5172 45.066 20.6743 45.2258 20.851C45.3257 20.9688 45.4256 21.0866 45.5255 21.2044C45.6653 21.3615 45.8052 21.5382 45.945 21.6953C46.0449 21.8131 46.1448 21.9505 46.2447 22.0683C46.3646 22.2254 46.5044 22.4021 46.6243 22.5592C46.7242 22.6966 46.8241 22.8144 46.904 22.9518C47.0239 23.1089 47.1437 23.2856 47.2636 23.4427C47.2836 23.4819 47.3235 23.5212 47.3435 23.5605C47.4834 23.7765 47.6432 23.9924 47.783 24.2084C48.0028 24.5422 48.2026 24.876 48.3824 25.2097C48.4423 25.3079 48.5022 25.4257 48.5622 25.5239C48.682 25.7595 48.8219 25.9951 48.9418 26.2307C48.9617 26.2896 49.0017 26.3485 49.0217 26.3878C49.0616 26.4859 49.1016 26.5645 49.1415 26.6627C49.2015 26.8001 49.2814 26.9572 49.3413 27.0946C49.4212 27.2517 49.4812 27.4088 49.5611 27.5855C49.621 27.7229 49.681 27.88 49.7409 28.0174C49.7609 28.0763 49.7808 28.1352 49.8208 28.1941C49.8408 28.253 49.8608 28.3119 49.8807 28.3708C50.0406 28.7831 50.1804 29.1758 50.3003 29.5881C50.3203 29.6274 50.3203 29.647 50.3402 29.6863C50.3402 29.7059 50.3402 29.7059 50.3402 29.7256C50.4601 30.1182 50.56 30.5109 50.6599 30.884C50.6599 30.9232 50.6799 30.9625 50.6799 31.0018C50.6998 31.0803 50.7198 31.1588 50.7198 31.2374C50.7798 31.4926 50.8197 31.7282 50.8597 31.9835C50.8796 32.0424 50.8796 32.1209 50.8996 32.1798C50.9196 32.2387 50.9196 32.3172 50.9196 32.3761C50.9596 32.5921 50.9795 32.8081 50.9995 33.0437C51.0195 33.1222 51.0195 33.2204 51.0395 33.2989C51.0395 33.3382 51.0395 33.3971 51.0594 33.4364C51.0794 33.6327 51.0994 33.8487 51.0994 34.045C51.0994 34.1432 51.1194 34.2414 51.1194 34.3592C51.1194 34.3985 51.1194 34.4181 51.1194 34.4574C51.1194 34.6537 51.1194 34.85 51.1194 35.0464C51.1194 35.1642 51.1194 35.2624 51.1194 35.3802C51.1194 35.3998 51.1194 35.4194 51.1194 35.4587C51.1194 35.655 51.0994 35.8514 51.0994 36.0477C51.0994 36.1655 51.0994 36.2833 51.0794 36.4011C51.0794 36.4207 51.0794 36.4404 51.0794 36.4404C51.0594 36.6367 51.0395 36.8331 51.0195 37.0294C50.9995 37.1472 50.9995 37.265 50.9795 37.3828C50.9795 37.4024 50.9795 37.4025 50.9795 37.4221C50.9396 37.6577 50.8996 37.8933 50.8597 38.1289C50.8397 38.2075 50.8397 38.3056 50.8197 38.3842C50.8197 38.3842 50.8197 38.3842 50.8197 38.4038C50.7598 38.7179 50.6799 39.0517 50.58 39.3659V39.4051C50.4801 39.7389 50.3802 40.0727 50.2603 40.4065C50.2603 40.4065 50.2603 40.4065 50.2603 40.4261C50.2004 40.6224 50.1205 40.8188 50.0406 40.9955C49.9806 41.1329 49.9407 41.29 49.8807 41.4274C49.8807 41.4274 49.8807 41.4274 49.8807 41.4471C49.8807 41.4471 49.8807 41.4667 49.8608 41.4667C49.7209 41.7808 49.5811 42.0753 49.4412 42.3699C49.4212 42.3895 49.4212 42.4091 49.4013 42.4288C49.4013 42.4484 49.3813 42.4484 49.3813 42.468C49.2215 42.7625 49.0616 43.057 48.8818 43.3319L48.2825 44.294C48.4623 43.9995 48.6421 43.705 48.8019 43.3908C48.8219 43.3712 48.8219 43.3516 48.8419 43.3319C49.0017 43.0374 49.1415 42.7429 49.2614 42.4288C49.2614 42.4288 49.2614 42.4091 49.2814 42.4091C49.3413 42.2717 49.4013 42.1146 49.4612 41.9772C49.5411 41.7808 49.621 41.6041 49.681 41.4078C49.8008 41.074 49.9007 40.7206 50.0006 40.3672C50.0805 40.053 50.1604 39.7193 50.2403 39.4051C50.2603 39.307 50.2803 39.2284 50.2803 39.1302C50.3203 38.8946 50.3602 38.659 50.4002 38.4234C50.4201 38.286 50.4201 38.1682 50.4401 38.0307C50.4601 37.8344 50.4801 37.6381 50.5001 37.4417C50.52 37.3043 50.52 37.1668 50.52 37.0294C50.54 36.8331 50.54 36.6367 50.54 36.4404C50.54 36.3029 50.54 36.1655 50.54 36.0281C50.54 35.8317 50.54 35.6354 50.54 35.4391C50.54 35.3016 50.52 35.1642 50.52 35.0267C50.5001 34.8304 50.5001 34.6144 50.4801 34.4181C50.4601 34.2806 50.4601 34.1432 50.4401 34.0058C50.4201 33.7898 50.3802 33.5738 50.3602 33.3578C50.3402 33.2204 50.3203 33.083 50.3003 32.9455C50.2603 32.6903 50.2004 32.4547 50.1604 32.1994C50.1405 32.0816 50.1005 31.9638 50.0805 31.846C49.9806 31.4534 49.8807 31.0607 49.7609 30.6876C49.7409 30.6484 49.7409 30.6091 49.7209 30.5502C49.601 30.1379 49.4612 29.7452 49.3014 29.3329C49.2614 29.2151 49.2215 29.0973 49.1615 28.9795C49.1016 28.842 49.0417 28.685 48.9817 28.5475C48.9218 28.3904 48.8419 28.2334 48.762 28.0567C48.702 27.9192 48.6221 27.7622 48.5622 27.6247C48.4823 27.4873 48.4223 27.3302 48.3424 27.1928C48.2225 26.9572 48.1027 26.7216 47.9628 26.4859C47.9029 26.3878 47.843 26.27 47.783 26.1718C47.5832 25.838 47.3835 25.5043 47.1837 25.1705C47.0239 24.9152 46.844 24.66 46.6842 24.4048C46.5644 24.2477 46.4445 24.071 46.3246 23.9139C46.2247 23.7765 46.1448 23.6587 46.0449 23.5212C45.9251 23.3641 45.7852 23.1874 45.6653 23.0304C45.5654 22.9126 45.4656 22.7751 45.3657 22.6573C45.2258 22.5002 45.086 22.3235 44.9461 22.1665C44.8462 22.0487 44.7463 21.9309 44.6464 21.8131C44.4666 21.5971 44.3068 21.4204 44.147 21.2633Z" fill="url(#paint5_linear_8951_27547)"/>
<g id="Group_4">
<g id="Clip path group">
<mask id="mask0_8951_27547" style="mask-type:luminance" maskUnits="userSpaceOnUse" x="35" y="35" width="1" height="2">
<g id="SVGID_00000075151867149384407270000018188293284696895394_">
<path id="Vector_7" d="M35.0958 36.6401L35.6751 35.6781L35.7151 35.6191L35.1157 36.6008L35.0958 36.6401Z" fill="white"/>
</g>
</mask>
<g mask="url(#mask0_8951_27547)">
<path id="Vector_8" d="M35.7151 35.6191L35.1157 36.6008L35.0958 36.6401L35.6751 35.6781L35.7151 35.6191Z" fill="#784E4A"/>
</g>
</g>
</g>
<path id="Vector_9" d="M25.9261 29.7857C25.9061 29.6483 25.8662 29.4912 25.8462 29.3734C25.8462 29.3341 25.8262 29.3145 25.8262 29.2949C25.7862 29.1771 25.7663 29.0789 25.7263 28.9611C25.7263 28.9415 25.7063 28.9218 25.7063 28.9022C25.6664 28.7844 25.6064 28.6469 25.5465 28.5488C25.4866 28.4506 25.4266 28.3721 25.3667 28.2935C25.3267 28.2543 25.3068 28.215 25.2668 28.1757C25.2069 28.1168 25.1469 28.0579 25.087 27.999C25.067 27.9794 25.047 27.9597 25.0271 27.9597C24.9272 27.8812 24.8473 27.8223 24.7274 27.7634C24.7274 27.7634 24.7274 27.7634 24.7074 27.7634C24.5875 27.7045 24.4677 27.6456 24.3478 27.6063C24.208 27.5474 24.0681 27.5278 23.9482 27.4885H23.9283C23.7884 27.4689 23.6685 27.4493 23.5487 27.4493C23.4288 27.4493 23.3089 27.4493 23.1691 27.4689H23.1491C23.0292 27.4885 22.9094 27.5278 22.7895 27.5671C22.2901 27.7438 21.8505 28.1365 21.4709 28.7451L22.0703 27.783C22.4499 27.1744 22.8894 26.7817 23.3889 26.605C23.4288 26.5854 23.4688 26.5854 23.5087 26.5657C23.5687 26.5461 23.6486 26.5265 23.7085 26.5265C23.7285 26.5265 23.7285 26.5265 23.7485 26.5265H23.7684C23.8084 26.5265 23.8284 26.5068 23.8683 26.5068C23.9083 26.5068 23.9682 26.5068 24.0082 26.5068H24.128H24.148H24.2479L24.3678 26.5265L24.4877 26.5461L24.5476 26.5657C24.5476 26.5657 24.5476 26.5657 24.5676 26.5657H24.5875C24.6275 26.5657 24.6675 26.5854 24.7074 26.5854C24.7474 26.605 24.7873 26.605 24.8273 26.6246C24.8672 26.6443 24.9072 26.6443 24.9472 26.6639H24.9671L25.067 26.7032C25.107 26.7228 25.1469 26.7424 25.1669 26.7424C25.2069 26.7621 25.2468 26.7817 25.2668 26.8013C25.2868 26.821 25.3068 26.821 25.3267 26.8406H25.3467C25.3667 26.8406 25.3667 26.8602 25.3867 26.8602C25.4266 26.8799 25.4666 26.8995 25.5065 26.9388C25.5465 26.9584 25.5865 26.9977 25.6264 27.037L25.6464 27.0566C25.6664 27.0762 25.6863 27.0959 25.7063 27.0959C25.7463 27.1351 25.7862 27.1548 25.8062 27.194C25.8262 27.2137 25.8462 27.2529 25.8662 27.2726C25.9061 27.3118 25.9261 27.3511 25.966 27.3904C25.986 27.41 26.006 27.4296 26.026 27.4493C26.0659 27.5082 26.1059 27.5867 26.1458 27.6456L26.1858 27.7241C26.2258 27.8027 26.2657 27.9008 26.3057 27.9794V27.999C26.3057 28.0186 26.3256 28.0383 26.3256 28.0579C26.3456 28.1168 26.3656 28.1757 26.3856 28.2346C26.4056 28.2739 26.4056 28.3328 26.4255 28.3721C26.4255 28.3917 26.4455 28.431 26.4455 28.4506C26.4455 28.4702 26.4655 28.4899 26.4655 28.5095C26.4855 28.6077 26.5055 28.7255 26.5254 28.8433V28.8629C26.5254 28.9022 26.5254 28.9218 26.5454 28.9611C26.5654 29.0593 26.5654 29.1378 26.5854 29.236C26.5854 29.2949 26.6053 29.3538 26.6053 29.4127L26.006 30.3747C25.986 30.2177 25.966 30.0802 25.9461 29.9428C25.9261 29.8446 25.9261 29.8053 25.9261 29.7857Z" fill="url(#paint6_linear_8951_27547)"/>
<path id="Vector_10" d="M31.3196 34.0273L30.7203 34.9894L35.1155 36.5994L35.7148 35.6177L31.3196 34.0273Z" fill="url(#paint7_linear_8951_27547)"/>
<g id="Group_5">
<g id="Clip path group_2">
<mask id="mask1_8951_27547" style="mask-type:luminance" maskUnits="userSpaceOnUse" x="17" y="24" width="2" height="4">
<g id="SVGID_00000022549027468297567640000016035193349476916882_">
<path id="Vector_11" d="M18.4531 24.9375L17.8538 25.8996C17.614 26.2726 17.4143 26.6849 17.2145 27.1365L17.8138 26.1744C17.9936 25.7229 18.2134 25.3105 18.4531 24.9375Z" fill="white"/>
</g>
</mask>
<g mask="url(#mask1_8951_27547)">
<path id="Vector_12" d="M18.4531 24.9375L17.8538 25.8996C17.7539 26.0763 17.654 26.2333 17.5541 26.4297L18.1535 25.4676C18.2334 25.2909 18.3333 25.1142 18.4531 24.9375Z" fill="#784E4A"/>
</g>
</g>
<g id="Clip path group_3">
<mask id="mask2_8951_27547" style="mask-type:luminance" maskUnits="userSpaceOnUse" x="17" y="24" width="2" height="4">
<g id="SVGID_00000022549027468297567640000016035193349476916882__2">
<path id="Vector_13" d="M18.4531 24.9375L17.8538 25.8996C17.614 26.2726 17.4143 26.6849 17.2145 27.1365L17.8138 26.1744C17.9936 25.7229 18.2134 25.3105 18.4531 24.9375Z" fill="white"/>
</g>
</mask>
<g mask="url(#mask2_8951_27547)">
<path id="Vector_14" d="M18.1534 25.468L17.5541 26.4301C17.4342 26.6657 17.3144 26.9013 17.2145 27.1369L17.8138 26.1748C17.9137 25.9196 18.0336 25.684 18.1534 25.468Z" fill="#7C514D"/>
</g>
</g>
</g>
<path id="Vector_15" d="M21.2106 30.3552L20.6312 31.3173L26.0453 33.3003L26.6447 32.3186L21.2106 30.3552Z" fill="url(#paint8_linear_8951_27547)"/>
<path id="Vector_16" d="M13.5394 27.5664L12.96 28.5285L16.4163 29.8047L17.0156 28.823L13.5394 27.5664Z" fill="url(#paint9_linear_8951_27547)"/>
<path id="Vector_17" d="M14.2783 24.8965L13.679 25.8586L12.9598 28.5288L13.5391 27.5667L14.2783 24.8965Z" fill="#8A5A55"/>
<path id="Vector_18" d="M28.9828 40.977C28.9229 40.9377 28.8829 40.8984 28.823 40.8591C28.7431 40.8002 28.6631 40.7413 28.6032 40.7021C28.6032 40.7021 28.6032 40.7021 28.5832 40.7021L28.5632 40.6824C28.4034 40.5646 28.2636 40.4272 28.1237 40.2898C28.1037 40.2701 28.0838 40.2505 28.0638 40.2309C28.0438 40.2112 28.0438 40.1916 28.0238 40.1916C27.904 40.0542 27.7841 39.9364 27.6842 39.7989C27.5843 39.6811 27.5044 39.5437 27.4045 39.4259C27.3446 39.3473 27.3046 39.2688 27.2447 39.1903C27.2247 39.151 27.2047 39.1117 27.1648 39.0725C27.0649 38.8958 26.965 38.7387 26.8851 38.562C26.8651 38.5227 26.8651 38.5031 26.8451 38.4638C26.8251 38.4049 26.7852 38.346 26.7652 38.2675C26.7253 38.1889 26.6853 38.0908 26.6453 38.0122C26.6054 37.914 26.5854 37.8355 26.5455 37.7373C26.5255 37.6981 26.5255 37.6588 26.5055 37.6195C26.5055 37.5999 26.4855 37.5803 26.4855 37.541C26.4456 37.4036 26.4056 37.2661 26.3656 37.1287C26.3457 37.0502 26.3257 36.9716 26.3257 36.8931C26.3057 36.7753 26.2857 36.6575 26.2658 36.52C26.2458 36.3826 26.2258 36.2452 26.2058 36.1077V36.0881C26.1858 35.931 26.1659 35.7543 26.1459 35.5972C26.1459 35.5187 26.1259 35.4205 26.1259 35.342C26.1259 35.2831 26.1059 35.2242 26.1059 35.1457C26.086 34.8904 26.066 34.6548 26.066 34.3799C26.066 34.3603 26.066 34.3407 26.066 34.321C26.066 34.2818 26.066 34.2621 26.066 34.2229C26.046 33.9283 26.046 33.6142 26.046 33.2804L26.6453 32.3184C26.6453 32.6325 26.6453 32.9466 26.6653 33.2412C26.6653 33.2804 26.6653 33.3001 26.6653 33.3393C26.6853 33.6142 26.6853 33.8891 26.7053 34.164C26.7053 34.2229 26.7253 34.2818 26.7253 34.3603C26.7452 34.6155 26.7652 34.8708 26.8052 35.1064C26.8052 35.126 26.8052 35.126 26.8052 35.1457C26.8451 35.4205 26.8851 35.6758 26.925 35.931C26.965 36.1666 27.0449 36.4219 27.1048 36.6575C27.1248 36.6967 27.1248 36.736 27.1448 36.7753C27.2047 36.952 27.2846 37.1287 27.3646 37.3054C27.3845 37.3643 27.4245 37.4232 27.4445 37.5017C27.5444 37.6981 27.6442 37.914 27.7641 38.1104C27.7841 38.1497 27.8041 38.1889 27.844 38.2282C27.9839 38.4442 28.1237 38.6405 28.2636 38.8368C28.3635 38.9743 28.4833 39.1117 28.6032 39.2295C28.6432 39.2688 28.6631 39.2884 28.7031 39.3277C28.8429 39.4651 28.9828 39.6026 29.1426 39.7204C29.1626 39.74 29.1626 39.74 29.1826 39.7596C29.2625 39.8186 29.3424 39.8774 29.4223 39.9363C29.4623 39.9756 29.5222 40.0149 29.5622 40.0345C29.5821 40.0542 29.6221 40.0738 29.6421 40.0934C29.742 40.1523 29.8419 40.2309 29.9417 40.2898C29.9817 40.3094 30.0217 40.329 30.0616 40.3683C30.1615 40.4272 30.2414 40.4665 30.3413 40.5254C30.3813 40.545 30.4412 40.5843 30.5011 40.6039C30.601 40.6432 30.7009 40.7021 30.8008 40.7413C30.8607 40.761 30.9007 40.7806 30.9606 40.8199C31.1005 40.8788 31.2603 40.9377 31.4002 40.9966C31.5999 41.0751 31.7997 41.134 31.9995 41.1929C32.0395 41.1929 32.0594 41.2126 32.0994 41.2126C32.2792 41.2715 32.479 41.3107 32.6588 41.35C32.6788 41.35 32.7187 41.3696 32.7387 41.3696C32.9185 41.4089 33.0983 41.4285 33.2781 41.4482C33.2981 41.4482 33.338 41.4482 33.358 41.4482C33.5378 41.4678 33.7176 41.4678 33.8974 41.4678C33.9374 41.4678 33.9574 41.4678 33.9973 41.4678C34.1771 41.4678 34.337 41.4678 34.4968 41.4482C34.5168 41.4482 34.5367 41.4482 34.5567 41.4482C34.7365 41.4285 34.9163 41.4089 35.0961 41.3696C35.196 41.35 35.2959 41.3304 35.3958 41.3107C35.4957 41.2911 35.5956 41.2715 35.6955 41.2322C35.9152 41.1733 36.115 41.0948 36.3348 41.0162C36.9341 40.7806 37.4935 40.4272 37.973 39.9953C38.4724 39.5633 38.912 39.0136 39.3115 38.3853L38.7122 39.3473C37.933 40.6235 36.9341 41.5071 35.7354 41.9979C35.5157 42.0765 35.3159 42.155 35.0961 42.2139C35.0761 42.2139 35.0562 42.2335 35.0562 42.2335C34.9763 42.2532 34.8963 42.2728 34.8164 42.2924C34.7165 42.3121 34.6166 42.3317 34.5168 42.3513C34.4968 42.3513 34.4768 42.3513 34.4568 42.371C34.297 42.3906 34.1571 42.4102 33.9973 42.4299H33.9773C33.9574 42.4299 33.9374 42.4299 33.9174 42.4299C33.8175 42.4299 33.7176 42.4495 33.5978 42.4495C33.5378 42.4495 33.4579 42.4495 33.398 42.4495C33.358 42.4495 33.338 42.4495 33.2981 42.4495C33.2781 42.4495 33.2581 42.4495 33.2182 42.4495C33.0983 42.4495 32.9984 42.4495 32.8785 42.4299C32.8386 42.4299 32.7986 42.4299 32.7387 42.4102C32.7187 42.4102 32.6788 42.4102 32.6588 42.4102C32.6188 42.4102 32.5789 42.4102 32.5389 42.3906C32.439 42.371 32.3192 42.371 32.2193 42.3513C32.1793 42.3513 32.1393 42.3317 32.0994 42.3317C32.0794 42.3317 32.0395 42.3121 32.0195 42.3121C31.9795 42.3121 31.9396 42.2924 31.8996 42.2924C31.7797 42.2728 31.6798 42.2335 31.56 42.2139C31.52 42.2139 31.5 42.1943 31.4601 42.1943C31.4201 42.1943 31.4002 42.1746 31.3602 42.1746C31.3003 42.155 31.2603 42.155 31.2004 42.1354C31.0805 42.0961 30.9606 42.0568 30.8408 42.0176L30.7808 41.9979C30.661 41.9586 30.5411 41.8998 30.4212 41.8605C30.4012 41.8409 30.3613 41.8409 30.3413 41.8212C30.2814 41.8016 30.2414 41.782 30.1815 41.7623C30.1215 41.7427 30.0816 41.723 30.0217 41.7034C29.9817 41.6838 29.9218 41.6641 29.8818 41.6445C29.8219 41.6249 29.7819 41.6052 29.742 41.566C29.722 41.5463 29.682 41.5463 29.662 41.5267C29.6021 41.4874 29.5222 41.4482 29.4623 41.4089C29.4223 41.3893 29.3824 41.3696 29.3424 41.3304C29.3224 41.3304 29.3224 41.3107 29.3024 41.3107C29.2026 41.2518 29.1226 41.1929 29.0227 41.134C29.0427 41.0162 29.0227 40.9966 28.9828 40.977Z" fill="url(#paint10_linear_8951_27547)"/>
<path id="Vector_19" d="M28.2835 38.8165C28.9827 39.7197 30.0416 40.4265 31.4401 40.937C33.1782 41.5653 34.8164 41.5849 36.3547 40.9566C37.893 40.3283 39.0917 39.0717 39.9308 37.1673L43.5069 38.4631L44.2461 35.7929L40.7699 34.5363C41.0496 33.1815 41.1095 31.8268 40.9697 30.4524C40.8298 29.078 40.5301 27.9196 40.0507 26.9379L35.7554 26.9968C36.1549 27.9 36.4546 28.8621 36.5944 29.9223C36.7543 30.9825 36.7543 32.0035 36.5944 33.0245L31.2802 31.1003C31.2603 29.7063 31.1604 28.4694 30.9406 27.4484C30.7408 26.4078 30.2813 25.4458 29.5821 24.5426C28.8828 23.6394 27.824 22.9326 26.4056 22.4025C24.6475 21.7546 22.9893 21.7546 21.431 22.3829C19.8727 23.0111 18.674 24.2873 17.8349 26.2311L14.2988 24.9549L13.5596 27.6251L17.0358 28.8817C16.6562 31.1592 16.796 33.2012 17.4953 35.0271L21.7706 35.1057C21.2312 33.4368 21.0514 31.8661 21.2312 30.3935L26.6453 32.3569C26.6453 33.7313 26.7452 34.929 26.945 35.9499C27.1248 36.9513 27.5843 37.9133 28.2835 38.8165ZM26.5654 29.3529L22.0503 27.7037C22.4299 27.095 22.8694 26.7023 23.3689 26.5256C23.8683 26.3489 24.3878 26.3686 24.9471 26.5649C25.4866 26.7612 25.8661 27.095 26.1259 27.5466C26.3656 28.0374 26.5054 28.6265 26.5654 29.3529ZM34.4967 36.7746C34.0173 36.9513 33.5178 36.9513 32.9984 36.7549C32.4789 36.5586 32.0794 36.2445 31.8196 35.7732C31.5599 35.3217 31.4001 34.7326 31.3202 34.0258L35.7154 35.6162C35.3758 36.2052 34.9562 36.5979 34.4967 36.7746Z" fill="url(#paint11_linear_8951_27547)"/>
<path id="Vector_20" d="M28.2835 38.8165C28.9827 39.7197 30.0416 40.4265 31.4401 40.937C33.1782 41.5653 34.8164 41.5849 36.3547 40.9566C37.893 40.3283 39.0917 39.0717 39.9308 37.1673L43.5069 38.4631L44.2461 35.7929L40.7699 34.5363C41.0496 33.1815 41.1095 31.8268 40.9697 30.4524C40.8298 29.078 40.5301 27.9196 40.0507 26.9379L35.7554 26.9968C36.1549 27.9 36.4546 28.8621 36.5944 29.9223C36.7543 30.9825 36.7543 32.0035 36.5944 33.0245L31.2802 31.1003C31.2603 29.7063 31.1604 28.4694 30.9406 27.4484C30.7408 26.4078 30.2813 25.4458 29.5821 24.5426C28.8828 23.6394 27.824 22.9326 26.4056 22.4025C24.6475 21.7546 22.9893 21.7546 21.431 22.3829C19.8727 23.0111 18.674 24.2873 17.8349 26.2311L14.2988 24.9549L13.5596 27.6251L17.0358 28.8817C16.6562 31.1592 16.796 33.2012 17.4953 35.0271L21.7706 35.1057C21.2312 33.4368 21.0514 31.8661 21.2312 30.3935L26.6453 32.3569C26.6453 33.7313 26.7452 34.929 26.945 35.9499C27.1248 36.9513 27.5843 37.9133 28.2835 38.8165ZM26.5654 29.3529L22.0503 27.7037C22.4299 27.095 22.8694 26.7023 23.3689 26.5256C23.8683 26.3489 24.3878 26.3686 24.9471 26.5649C25.4866 26.7612 25.8661 27.095 26.1259 27.5466C26.3656 28.0374 26.5054 28.6265 26.5654 29.3529ZM34.4967 36.7746C34.0173 36.9513 33.5178 36.9513 32.9984 36.7549C32.4789 36.5586 32.0794 36.2445 31.8196 35.7732C31.5599 35.3217 31.4001 34.7326 31.3202 34.0258L35.7154 35.6162C35.3758 36.2052 34.9562 36.5979 34.4967 36.7746Z" stroke="url(#paint12_linear_8951_27547)" stroke-width="0.744497" stroke-miterlimit="10"/>
<path id="Vector_21" d="M17.4747 34.9688L21.75 35.0669L21.1706 36.029L16.8753 35.9504L17.4747 34.9688Z" fill="url(#paint13_linear_8951_27547)"/>
<path id="Vector_22" d="M16.8358 30.3351C16.8358 30.4725 16.8158 30.5903 16.8158 30.7277C16.8158 30.8652 16.8158 31.0026 16.7958 31.1401C16.7958 31.2579 16.7958 31.3757 16.7958 31.4935C16.7958 31.6309 16.7958 31.7683 16.8158 31.9254C16.8158 32.0236 16.8358 32.1414 16.8358 32.2396C16.8557 32.377 16.8557 32.5341 16.8757 32.6715C16.8957 32.7697 16.8957 32.8678 16.9157 32.966C16.9356 33.1034 16.9756 33.2605 16.9956 33.398C17.0156 33.4765 17.0355 33.5747 17.0555 33.6532C17.0955 33.7906 17.1354 33.9477 17.1754 34.0852C17.1954 34.1637 17.2153 34.2619 17.2353 34.3404C17.2953 34.5564 17.3752 34.792 17.4551 34.9883L16.8557 35.9504C16.7758 35.754 16.7159 35.5381 16.636 35.3417C16.636 35.3221 16.636 35.3221 16.616 35.3025C16.596 35.2239 16.576 35.1454 16.5561 35.0472C16.5161 34.9294 16.4961 34.8116 16.4562 34.6742C16.4562 34.6545 16.4562 34.6349 16.4362 34.5956C16.4162 34.5171 16.3962 34.4189 16.3763 34.3404C16.3563 34.2422 16.3363 34.1244 16.3163 34.0263C16.3163 33.987 16.3163 33.9477 16.2963 33.9085C16.2764 33.8103 16.2764 33.7121 16.2564 33.6139C16.2364 33.5354 16.2364 33.4372 16.2164 33.3587C16.2164 33.2998 16.2164 33.2409 16.1965 33.182C16.1965 33.0838 16.1765 32.966 16.1765 32.8678C16.1765 32.7893 16.1565 32.7304 16.1565 32.6519C16.1565 32.5733 16.1565 32.5144 16.1565 32.4359C16.1565 32.3181 16.1565 32.2003 16.1565 32.0825C16.1565 32.0236 16.1565 31.9647 16.1565 31.9058C16.1565 31.8272 16.1565 31.7487 16.1765 31.6702C16.1765 31.5327 16.1965 31.4149 16.1965 31.2775C16.1965 31.2186 16.1965 31.1597 16.1965 31.1008C16.1965 31.0222 16.2164 30.9437 16.2164 30.8848C16.2364 30.7277 16.2564 30.5707 16.2764 30.4136C16.2764 30.3547 16.2963 30.2958 16.2963 30.2173C16.3163 30.0798 16.3363 29.9228 16.3563 29.7853L16.9556 28.8232C16.9157 29.0392 16.8957 29.2356 16.8757 29.4515C16.8557 29.6086 16.8358 29.7657 16.8158 29.9227C16.8557 30.0602 16.8557 30.1976 16.8358 30.3351Z" fill="url(#paint14_linear_8951_27547)"/>
</g>
<path id="Vector_23" d="M23.9682 49.6549C29.9417 51.8343 35.8952 51.7558 40.73 49.8905C45.5447 48.0057 49.2007 44.3538 50.5792 39.3275C51.9577 34.3012 50.779 28.8822 47.7623 24.1504C44.7456 19.4186 39.8909 15.4329 33.9174 13.2535C27.9439 11.0741 21.9904 11.1527 17.1557 13.0179C12.3409 14.9028 8.68491 18.5547 7.30642 23.581C5.92792 28.6269 7.10664 34.0263 10.1233 38.7581C13.1401 43.4899 17.9748 47.4952 23.9682 49.6549Z" stroke="url(#paint15_linear_8951_27547)" stroke-width="0.744497" stroke-miterlimit="10"/>
<g id="Group_6">
<path id="Vector_24" d="M24.129 9.67919C24.0291 12.4869 26.1868 14.8429 28.9238 14.9411C31.6808 15.0393 33.9783 12.8206 34.0582 10.013C34.1581 7.20531 32.0004 4.84923 29.2634 4.75106C26.5264 4.67253 24.2089 6.87153 24.129 9.67919Z" fill="url(#paint16_radial_8951_27547)"/>
<path id="Vector_25" d="M28.7628 19.6932C29.8216 19.7324 30.8405 15.354 31.0203 9.91543C31.2001 4.47681 30.4809 0.0395301 29.422 0.000262082C28.3632 -0.0390059 27.3443 4.33937 27.1645 9.77799C26.9847 15.2166 27.7039 19.6539 28.7628 19.6932Z" fill="url(#paint17_radial_8951_27547)"/>
<path id="Vector_26" d="M19.1145 9.52261C19.0746 10.5632 23.5297 11.5645 29.0437 11.7412C34.5577 11.918 39.0528 11.2308 39.0928 10.1705C39.1327 9.12993 34.6776 8.12859 29.1636 7.95189C23.6496 7.77518 19.1545 8.48201 19.1145 9.52261Z" fill="url(#paint18_radial_8951_27547)"/>
<path id="Vector_27" d="M19.5944 9.54217C19.5744 10.0919 23.8098 10.6809 29.0641 10.8576C34.3183 11.0344 38.5937 10.7202 38.5937 10.1705C38.6137 9.62071 34.3783 9.03168 29.124 8.85498C23.8897 8.67827 19.6144 8.99242 19.5944 9.54217Z" fill="url(#paint19_radial_8951_27547)"/>
<path id="Vector_28" d="M24.3883 9.69969C24.3084 12.0165 26.3662 13.9603 28.9634 14.0388C31.5605 14.1173 33.7381 12.3306 33.8181 10.0138C33.898 7.69703 31.8402 5.75325 29.2431 5.67472C26.6259 5.57655 24.4683 7.38288 24.3883 9.69969Z" fill="url(#paint20_radial_8951_27547)"/>
<path id="Vector_29" d="M28.7838 19.2225C29.3432 19.2421 29.9426 15.0601 30.1024 9.87668C30.2822 4.69331 29.9626 0.491627 29.4032 0.471993C28.8438 0.452359 28.2444 4.63441 28.0846 9.81778C27.9048 15.0012 28.2245 19.2028 28.7838 19.2225Z" fill="url(#paint21_radial_8951_27547)"/>
</g>
<g id="Group_7">
<path id="Vector_30" d="M35.237 51.3015C35.257 52.99 36.5955 54.3644 38.2537 54.3448C39.9119 54.3448 41.2305 52.9508 41.2305 51.2622C41.2105 49.5737 39.8719 48.1993 38.2138 48.219C36.5556 48.2386 35.217 49.613 35.237 51.3015Z" fill="url(#paint22_radial_8951_27547)"/>
<path id="Vector_31" d="M38.2537 57.2114C38.893 57.2114 39.3924 54.5608 39.3725 51.2819C39.3525 48.0227 38.8131 45.3721 38.1738 45.3721C37.5345 45.3721 37.035 48.0227 37.055 51.3015C37.075 54.5608 37.6144 57.2114 38.2537 57.2114Z" fill="url(#paint23_radial_8951_27547)"/>
<path id="Vector_32" d="M32.2197 51.3222C32.2197 51.9505 34.9167 52.4413 38.2331 52.4217C41.5495 52.402 44.2266 51.8719 44.2266 51.2436C44.2266 50.6153 41.5295 50.1245 38.2131 50.1441C34.8967 50.1638 32.2197 50.6939 32.2197 51.3222Z" fill="url(#paint24_radial_8951_27547)"/>
<path id="Vector_33" d="M32.5002 51.3227C32.5002 51.6565 35.0574 51.9117 38.214 51.8921C41.3705 51.8725 43.9277 51.5976 43.9277 51.2638C43.9277 50.93 41.3705 50.6748 38.214 50.6944C35.0574 50.7141 32.5002 50.9889 32.5002 51.3227Z" fill="url(#paint25_radial_8951_27547)"/>
<path id="Vector_34" d="M35.397 51.3036C35.397 52.6976 36.6756 53.8167 38.2339 53.7971C39.7922 53.7971 41.0508 52.6583 41.0508 51.2643C41.0508 49.8703 39.7722 48.7511 38.2139 48.7708C36.6356 48.7904 35.377 49.9095 35.397 51.3036Z" fill="url(#paint26_radial_8951_27547)"/>
<path id="Vector_35" d="M38.2535 56.9183C38.5932 56.9183 38.8529 54.3856 38.8329 51.2834C38.8129 48.1812 38.5332 45.6484 38.1936 45.6484C37.854 45.6484 37.5943 48.1812 37.6142 51.2834C37.6342 54.4052 37.9139 56.9183 38.2535 56.9183Z" fill="url(#paint27_radial_8951_27547)"/>
</g>
<g id="Group_8">
<path id="Vector_36" d="M10.8823 26.9176C10.9023 28.6061 12.2608 29.9608 13.919 29.9412C15.5772 29.9216 16.8957 28.5276 16.8758 26.839C16.8558 25.1505 15.4973 23.7958 13.8391 23.8154C12.1809 23.835 10.8623 25.229 10.8823 26.9176Z" fill="url(#paint28_radial_8951_27547)"/>
<path id="Vector_37" d="M13.9599 32.8078C14.5992 32.8078 15.0786 30.1376 15.0387 26.8783C14.9987 23.6191 14.4393 20.9685 13.8 20.9685C13.1607 20.9685 12.6813 23.6387 12.7212 26.898C12.7612 30.1769 13.3206 32.8078 13.9599 32.8078Z" fill="url(#paint29_radial_8951_27547)"/>
<path id="Vector_38" d="M7.86614 26.9567C7.86614 27.5849 10.5632 28.0562 13.8796 28.0169C17.196 27.9776 19.873 27.4279 19.873 26.7996C19.873 26.1713 17.176 25.7001 13.8596 25.7393C10.5432 25.7786 7.86614 26.3284 7.86614 26.9567Z" fill="url(#paint30_radial_8951_27547)"/>
<path id="Vector_39" d="M8.16621 26.9567C8.16621 27.2905 10.7234 27.5261 13.88 27.4869C17.0365 27.4476 19.5938 27.1531 19.5938 26.8193C19.5938 26.4855 17.0365 26.2499 13.88 26.2892C10.7234 26.3285 8.14623 26.623 8.16621 26.9567Z" fill="url(#paint31_radial_8951_27547)"/>
<path id="Vector_40" d="M11.0432 26.9186C11.0632 28.3127 12.3418 29.4122 13.9001 29.3925C15.4584 29.3729 16.717 28.2341 16.697 26.8401C16.6771 25.4461 15.3985 24.3466 13.8401 24.3662C12.2818 24.3859 11.0232 25.5246 11.0432 26.9186Z" fill="url(#paint32_radial_8951_27547)"/>
<path id="Vector_41" d="M13.9396 32.5128C14.2793 32.5128 14.519 29.98 14.479 26.8779C14.4391 23.7757 14.1394 21.2429 13.7998 21.2429C13.4602 21.2429 13.2204 23.7757 13.2604 26.8779C13.3003 29.9997 13.62 32.5325 13.9396 32.5128Z" fill="url(#paint33_radial_8951_27547)"/>
</g>
</g>
<defs>
<linearGradient id="paint0_linear_8951_27547" x1="-1.45164" y1="29.7739" x2="44.7307" y2="58.3797" gradientUnits="userSpaceOnUse">
<stop stop-color="#D2AB5A"/>
<stop offset="0.0610851" stop-color="#BA9443"/>
<stop offset="0.1898" stop-color="#7C5808"/>
<stop offset="0.2069" stop-color="#735000"/>
<stop offset="0.2274" stop-color="#775200"/>
<stop offset="0.3376" stop-color="#8A5D00"/>
<stop offset="0.4146" stop-color="#916100"/>
<stop offset="0.4344" stop-color="#976707"/>
<stop offset="0.4986" stop-color="#D8B364"/>
<stop offset="0.5246" stop-color="#D4AE5D"/>
<stop offset="0.5617" stop-color="#CA9F4A"/>
<stop offset="0.6053" stop-color="#B9882C"/>
<stop offset="0.6414" stop-color="#A8700D"/>
<stop offset="0.6805" stop-color="#815400"/>
<stop offset="0.8029" stop-color="#B38116"/>
<stop offset="0.8267" stop-color="#A27114"/>
<stop offset="0.8802" stop-color="#815110"/>
<stop offset="0.9247" stop-color="#6C3D0E"/>
<stop offset="0.9545" stop-color="#65360D"/>
<stop offset="0.9581" stop-color="#6F3F0D"/>
<stop offset="0.9701" stop-color="#8A580C"/>
<stop offset="0.9807" stop-color="#9B670C"/>
<stop offset="0.9886" stop-color="#A16C0C"/>
</linearGradient>
<linearGradient id="paint1_linear_8951_27547" x1="52.1438" y1="32.9451" x2="-11.7995" y2="28.6891" gradientUnits="userSpaceOnUse">
<stop stop-color="#D7AC4C"/>
<stop offset="0.1816" stop-color="#FFFFB0"/>
<stop offset="0.3268" stop-color="#F4D174"/>
<stop offset="0.3659" stop-color="#FBED99"/>
<stop offset="0.3939" stop-color="#FAEC97"/>
<stop offset="0.433" stop-color="#DEB04D"/>
<stop offset="0.5275" stop-color="#DFB24F"/>
<stop offset="0.5615" stop-color="#E2B756"/>
<stop offset="0.5858" stop-color="#E7C161"/>
<stop offset="0.6053" stop-color="#EECF72"/>
<stop offset="0.6207" stop-color="#F6DF86"/>
<stop offset="0.7529" stop-color="#F2D87E"/>
<stop offset="0.7672" stop-color="#F1D77D"/>
<stop offset="0.7716" stop-color="#EBCD71"/>
<stop offset="0.7804" stop-color="#E2BE60"/>
<stop offset="0.7913" stop-color="#DCB455"/>
<stop offset="0.8066" stop-color="#D8AE4E"/>
<stop offset="0.8492" stop-color="#D7AC4C"/>
<stop offset="1" stop-color="#966424"/>
</linearGradient>
<linearGradient id="paint2_linear_8951_27547" x1="69.1618" y1="32.5133" x2="-10.27" y2="30.3469" gradientUnits="userSpaceOnUse">
<stop stop-color="#D7AC4C"/>
<stop offset="0.1816" stop-color="#FFFFB0"/>
<stop offset="0.3268" stop-color="#F4D174"/>
<stop offset="0.3659" stop-color="#FBED99"/>
<stop offset="0.3939" stop-color="#FAEC97"/>
<stop offset="0.433" stop-color="#DEB04D"/>
<stop offset="0.5275" stop-color="#DFB24F"/>
<stop offset="0.5615" stop-color="#E2B756"/>
<stop offset="0.5858" stop-color="#E7C161"/>
<stop offset="0.6053" stop-color="#EECF72"/>
<stop offset="0.6207" stop-color="#F6DF86"/>
<stop offset="0.7529" stop-color="#F2D87E"/>
<stop offset="0.7672" stop-color="#F1D77D"/>
<stop offset="0.7716" stop-color="#EBCD71"/>
<stop offset="0.7804" stop-color="#E2BE60"/>
<stop offset="0.7913" stop-color="#DCB455"/>
<stop offset="0.8066" stop-color="#D8AE4E"/>
<stop offset="0.8492" stop-color="#D7AC4C"/>
<stop offset="1" stop-color="#966424"/>
</linearGradient>
<linearGradient id="paint3_linear_8951_27547" x1="39.7014" y1="31.2813" x2="12.1747" y2="25.213" gradientUnits="userSpaceOnUse">
<stop stop-color="#A16C0C"/>
<stop offset="0.2318" stop-color="#BE9134"/>
<stop offset="0.5559" stop-color="#A8700D"/>
<stop offset="1" stop-color="#432400"/>
</linearGradient>
<linearGradient id="paint4_linear_8951_27547" x1="46.4569" y1="40.3546" x2="38.2535" y2="36.874" gradientUnits="userSpaceOnUse">
<stop stop-color="#A16C0C"/>
<stop offset="0.2318" stop-color="#BE9134"/>
<stop offset="0.5559" stop-color="#A8700D"/>
<stop offset="1" stop-color="#432400"/>
</linearGradient>
<linearGradient id="paint5_linear_8951_27547" x1="44.138" y1="30.2341" x2="5.6597" y2="7.55411" gradientUnits="userSpaceOnUse">
<stop stop-color="#D2AB5A"/>
<stop offset="0.0610851" stop-color="#BA9443"/>
<stop offset="0.1898" stop-color="#7C5808"/>
<stop offset="0.2069" stop-color="#735000"/>
<stop offset="0.2274" stop-color="#775200"/>
<stop offset="0.3376" stop-color="#8A5D00"/>
<stop offset="0.4146" stop-color="#916100"/>
<stop offset="0.4344" stop-color="#976707"/>
<stop offset="0.4986" stop-color="#D8B364"/>
<stop offset="0.5246" stop-color="#D4AE5D"/>
<stop offset="0.5617" stop-color="#CA9F4A"/>
<stop offset="0.6053" stop-color="#B9882C"/>
<stop offset="0.6414" stop-color="#A8700D"/>
<stop offset="0.6805" stop-color="#815400"/>
<stop offset="0.8029" stop-color="#B38116"/>
<stop offset="0.8267" stop-color="#A27114"/>
<stop offset="0.8802" stop-color="#815110"/>
<stop offset="0.9247" stop-color="#6C3D0E"/>
<stop offset="0.9545" stop-color="#65360D"/>
<stop offset="0.9581" stop-color="#6F3F0D"/>
<stop offset="0.9701" stop-color="#8A580C"/>
<stop offset="0.9807" stop-color="#9B670C"/>
<stop offset="0.9886" stop-color="#A16C0C"/>
</linearGradient>
<linearGradient id="paint6_linear_8951_27547" x1="30.6624" y1="29.6338" x2="21.9405" y2="27.5644" gradientUnits="userSpaceOnUse">
<stop stop-color="#A16C0C"/>
<stop offset="0.2318" stop-color="#BE9134"/>
<stop offset="0.5559" stop-color="#A8700D"/>
<stop offset="1" stop-color="#432400"/>
</linearGradient>
<linearGradient id="paint7_linear_8951_27547" x1="37.9468" y1="37.0359" x2="30.5275" y2="34.2328" gradientUnits="userSpaceOnUse">
<stop stop-color="#A16C0C"/>
<stop offset="0.2318" stop-color="#BE9134"/>
<stop offset="0.4314" stop-color="#A8700D"/>
<stop offset="1" stop-color="#432400"/>
</linearGradient>
<linearGradient id="paint8_linear_8951_27547" x1="31.5935" y1="35.1369" x2="20.5546" y2="30.3839" gradientUnits="userSpaceOnUse">
<stop stop-color="#A16C0C"/>
<stop offset="0.2318" stop-color="#BE9134"/>
<stop offset="0.5559" stop-color="#A8700D"/>
<stop offset="1" stop-color="#432400"/>
</linearGradient>
<linearGradient id="paint9_linear_8951_27547" x1="9.30013" y1="26.7217" x2="18.2022" y2="29.9008" gradientUnits="userSpaceOnUse">
<stop stop-color="#A16C0C"/>
<stop offset="0.2318" stop-color="#BE9134"/>
<stop offset="0.5559" stop-color="#A8700D"/>
<stop offset="1" stop-color="#432400"/>
</linearGradient>
<linearGradient id="paint10_linear_8951_27547" x1="37.9725" y1="39.1236" x2="10.4447" y2="33.0551" gradientUnits="userSpaceOnUse">
<stop stop-color="#A16C0C"/>
<stop offset="0.2318" stop-color="#BE9134"/>
<stop offset="0.5559" stop-color="#A8700D"/>
<stop offset="1" stop-color="#432400"/>
</linearGradient>
<linearGradient id="paint11_linear_8951_27547" x1="-11.5785" y1="26.2736" x2="56.4278" y2="35.6166" gradientUnits="userSpaceOnUse">
<stop stop-color="#D7AC4C"/>
<stop offset="0.1816" stop-color="#FFFFB0"/>
<stop offset="0.3268" stop-color="#F4D174"/>
<stop offset="0.3659" stop-color="#FBED99"/>
<stop offset="0.3939" stop-color="#FAEC97"/>
<stop offset="0.433" stop-color="#DEB04D"/>
<stop offset="0.5275" stop-color="#DFB24F"/>
<stop offset="0.5615" stop-color="#E2B756"/>
<stop offset="0.5858" stop-color="#E7C161"/>
<stop offset="0.6053" stop-color="#EECF72"/>
<stop offset="0.6207" stop-color="#F6DF86"/>
<stop offset="0.7529" stop-color="#F2D87E"/>
<stop offset="0.7672" stop-color="#F1D77D"/>
<stop offset="0.7716" stop-color="#EBCD71"/>
<stop offset="0.7804" stop-color="#E2BE60"/>
<stop offset="0.7913" stop-color="#DCB455"/>
<stop offset="0.8066" stop-color="#D8AE4E"/>
<stop offset="0.8492" stop-color="#D7AC4C"/>
<stop offset="1" stop-color="#966424"/>
</linearGradient>
<linearGradient id="paint12_linear_8951_27547" x1="34.8615" y1="23.1983" x2="23.773" y2="39.4615" gradientUnits="userSpaceOnUse">
<stop stop-color="#D7AC4C"/>
<stop offset="0.1816" stop-color="#FFFFB0"/>
<stop offset="0.3268" stop-color="#F4D174"/>
<stop offset="0.433" stop-color="#DEB04D"/>
<stop offset="0.7067" stop-color="#F6DF86"/>
<stop offset="0.8492" stop-color="#D7AC4C"/>
<stop offset="1" stop-color="#966424"/>
</linearGradient>
<linearGradient id="paint13_linear_8951_27547" x1="15.0352" y1="34.445" x2="22.0793" y2="36.246" gradientUnits="userSpaceOnUse">
<stop stop-color="#A16C0C"/>
<stop offset="0.2318" stop-color="#BE9134"/>
<stop offset="0.5559" stop-color="#A8700D"/>
<stop offset="1" stop-color="#432400"/>
</linearGradient>
<linearGradient id="paint14_linear_8951_27547" x1="38.4469" y1="36.9645" x2="10.9207" y2="30.8963" gradientUnits="userSpaceOnUse">
<stop stop-color="#A16C0C"/>
<stop offset="0.2318" stop-color="#BE9134"/>
<stop offset="0.5559" stop-color="#A8700D"/>
<stop offset="1" stop-color="#432400"/>
</linearGradient>
<linearGradient id="paint15_linear_8951_27547" x1="51.3622" y1="32.0447" x2="6.51959" y2="30.8217" gradientUnits="userSpaceOnUse">
<stop stop-color="#D7AC4C"/>
<stop offset="0.1816" stop-color="#FFFFB0"/>
<stop offset="0.3268" stop-color="#F4D174"/>
<stop offset="0.433" stop-color="#DEB04D"/>
<stop offset="0.7067" stop-color="#F6DF86"/>
<stop offset="0.8492" stop-color="#D7AC4C"/>
<stop offset="1" stop-color="#966424"/>
</linearGradient>
<radialGradient id="paint16_radial_8951_27547" cx="0" cy="0" r="1" gradientUnits="userSpaceOnUse" gradientTransform="translate(29.0964 9.85243) rotate(-178.111) scale(4.97683 5.10111)">
<stop stop-color="white"/>
<stop offset="0.1392" stop-color="#FFF4E1" stop-opacity="0.8608"/>
<stop offset="0.4329" stop-color="#FFE0A8" stop-opacity="0.5671"/>
<stop offset="0.6847" stop-color="#FFD17E" stop-opacity="0.3153"/>
<stop offset="0.8819" stop-color="#FFC864" stop-opacity="0.1181"/>
<stop offset="1" stop-color="#FFC55B" stop-opacity="0"/>
</radialGradient>
<radialGradient id="paint17_radial_8951_27547" cx="0" cy="0" r="1" gradientUnits="userSpaceOnUse" gradientTransform="translate(29.0951 9.85331) rotate(91.9114) scale(9.84937 1.92307)">
<stop stop-color="white"/>
<stop offset="0.1392" stop-color="#FFF4E1" stop-opacity="0.8608"/>
<stop offset="0.4329" stop-color="#FFE0A8" stop-opacity="0.5671"/>
<stop offset="0.6847" stop-color="#FFD17E" stop-opacity="0.3153"/>
<stop offset="0.8819" stop-color="#FFC864" stop-opacity="0.1181"/>
<stop offset="1" stop-color="#FFC55B" stop-opacity="0"/>
</radialGradient>
<radialGradient id="paint18_radial_8951_27547" cx="0" cy="0" r="1" gradientUnits="userSpaceOnUse" gradientTransform="translate(29.0965 9.85301) rotate(-178.11) scale(9.98921 1.89616)">
<stop stop-color="white"/>
<stop offset="0.1392" stop-color="#FFF4E1" stop-opacity="0.8608"/>
<stop offset="0.4329" stop-color="#FFE0A8" stop-opacity="0.5671"/>
<stop offset="0.6847" stop-color="#FFD17E" stop-opacity="0.3153"/>
<stop offset="0.8819" stop-color="#FFC864" stop-opacity="0.1181"/>
<stop offset="1" stop-color="#FFC55B" stop-opacity="0"/>
</radialGradient>
<radialGradient id="paint19_radial_8951_27547" cx="0" cy="0" r="1" gradientUnits="userSpaceOnUse" gradientTransform="translate(29.0965 9.85287) rotate(-178.11) scale(9.51048 0.995977)">
<stop stop-color="white"/>
<stop offset="0.1594" stop-color="#FFF0D5" stop-opacity="0.8406"/>
<stop offset="0.3495" stop-color="#FFE1A9" stop-opacity="0.6505"/>
<stop offset="0.5337" stop-color="#FFD587" stop-opacity="0.4663"/>
<stop offset="0.7078" stop-color="#FFCC6F" stop-opacity="0.2922"/>
<stop offset="0.8677" stop-color="#FFC760" stop-opacity="0.1323"/>
<stop offset="1" stop-color="#FFC55B" stop-opacity="0"/>
</radialGradient>
<radialGradient id="paint20_radial_8951_27547" cx="0" cy="0" r="1" gradientUnits="userSpaceOnUse" gradientTransform="translate(29.0957 9.85328) rotate(-178.11) scale(4.71253 4.18583)">
<stop stop-color="white"/>
<stop offset="0.1594" stop-color="#FFF0D5" stop-opacity="0.8406"/>
<stop offset="0.3495" stop-color="#FFE1A9" stop-opacity="0.6505"/>
<stop offset="0.5337" stop-color="#FFD587" stop-opacity="0.4663"/>
<stop offset="0.7078" stop-color="#FFCC6F" stop-opacity="0.2922"/>
<stop offset="0.8677" stop-color="#FFC760" stop-opacity="0.1323"/>
<stop offset="1" stop-color="#FFC55B" stop-opacity="0"/>
</radialGradient>
<radialGradient id="paint21_radial_8951_27547" cx="0" cy="0" r="1" gradientUnits="userSpaceOnUse" gradientTransform="translate(29.0961 9.85331) rotate(91.911) scale(9.3778 1.01008)">
<stop stop-color="white"/>
<stop offset="0.1123" stop-color="#FFF1D7" stop-opacity="0.8877"/>
<stop offset="0.2389" stop-color="#FFE3B1" stop-opacity="0.7611"/>
<stop offset="0.3711" stop-color="#FFD892" stop-opacity="0.6289"/>
<stop offset="0.5084" stop-color="#FFD07A" stop-opacity="0.4916"/>
<stop offset="0.6529" stop-color="#FFCA68" stop-opacity="0.3471"/>
<stop offset="0.8095" stop-color="#FFC65E" stop-opacity="0.1905"/>
<stop offset="1" stop-color="#FFC55B" stop-opacity="0"/>
</radialGradient>
<radialGradient id="paint22_radial_8951_27547" cx="0" cy="0" r="1" gradientUnits="userSpaceOnUse" gradientTransform="translate(38.2198 51.289) rotate(179.707) scale(2.99035 3.06494)">
<stop stop-color="white"/>
<stop offset="0.1392" stop-color="#FFF4E1" stop-opacity="0.8608"/>
<stop offset="0.4329" stop-color="#FFE0A8" stop-opacity="0.5671"/>
<stop offset="0.6847" stop-color="#FFD17E" stop-opacity="0.3153"/>
<stop offset="0.8819" stop-color="#FFC864" stop-opacity="0.1181"/>
<stop offset="1" stop-color="#FFC55B" stop-opacity="0"/>
</radialGradient>
<radialGradient id="paint23_radial_8951_27547" cx="0" cy="0" r="1" gradientUnits="userSpaceOnUse" gradientTransform="translate(38.2198 51.2889) rotate(89.6499) scale(5.91777 1.1555)">
<stop stop-color="white"/>
<stop offset="0.1392" stop-color="#FFF4E1" stop-opacity="0.8608"/>
<stop offset="0.4329" stop-color="#FFE0A8" stop-opacity="0.5671"/>
<stop offset="0.6847" stop-color="#FFD17E" stop-opacity="0.3153"/>
<stop offset="0.8819" stop-color="#FFC864" stop-opacity="0.1181"/>
<stop offset="1" stop-color="#FFC55B" stop-opacity="0"/>
</radialGradient>
<radialGradient id="paint24_radial_8951_27547" cx="0" cy="0" r="1" gradientUnits="userSpaceOnUse" gradientTransform="translate(38.2187 51.29) rotate(179.706) scale(6.00216 1.13926)">
<stop stop-color="white"/>
<stop offset="0.1392" stop-color="#FFF4E1" stop-opacity="0.8608"/>
<stop offset="0.4329" stop-color="#FFE0A8" stop-opacity="0.5671"/>
<stop offset="0.6847" stop-color="#FFD17E" stop-opacity="0.3153"/>
<stop offset="0.8819" stop-color="#FFC864" stop-opacity="0.1181"/>
<stop offset="1" stop-color="#FFC55B" stop-opacity="0"/>
</radialGradient>
<radialGradient id="paint25_radial_8951_27547" cx="0" cy="0" r="1" gradientUnits="userSpaceOnUse" gradientTransform="translate(38.2203 51.2906) rotate(179.706) scale(5.71443 0.598411)">
<stop stop-color="white"/>
<stop offset="0.1594" stop-color="#FFF0D5" stop-opacity="0.8406"/>
<stop offset="0.3495" stop-color="#FFE1A9" stop-opacity="0.6505"/>
<stop offset="0.5337" stop-color="#FFD587" stop-opacity="0.4663"/>
<stop offset="0.7078" stop-color="#FFCC6F" stop-opacity="0.2922"/>
<stop offset="0.8677" stop-color="#FFC760" stop-opacity="0.1323"/>
<stop offset="1" stop-color="#FFC55B" stop-opacity="0"/>
</radialGradient>
<radialGradient id="paint26_radial_8951_27547" cx="0" cy="0" r="1" gradientUnits="userSpaceOnUse" gradientTransform="translate(38.2199 51.291) rotate(179.706) scale(2.83157 2.51499)">
<stop stop-color="white"/>
<stop offset="0.1594" stop-color="#FFF0D5" stop-opacity="0.8406"/>
<stop offset="0.3495" stop-color="#FFE1A9" stop-opacity="0.6505"/>
<stop offset="0.5337" stop-color="#FFD587" stop-opacity="0.4663"/>
<stop offset="0.7078" stop-color="#FFCC6F" stop-opacity="0.2922"/>
<stop offset="0.8677" stop-color="#FFC760" stop-opacity="0.1323"/>
<stop offset="1" stop-color="#FFC55B" stop-opacity="0"/>
</radialGradient>
<radialGradient id="paint27_radial_8951_27547" cx="0" cy="0" r="1" gradientUnits="userSpaceOnUse" gradientTransform="translate(38.2196 51.291) rotate(89.6502) scale(5.63424 0.606915)">
<stop stop-color="white"/>
<stop offset="0.1123" stop-color="#FFF1D7" stop-opacity="0.8877"/>
<stop offset="0.2389" stop-color="#FFE3B1" stop-opacity="0.7611"/>
<stop offset="0.3711" stop-color="#FFD892" stop-opacity="0.6289"/>
<stop offset="0.5084" stop-color="#FFD07A" stop-opacity="0.4916"/>
<stop offset="0.6529" stop-color="#FFCA68" stop-opacity="0.3471"/>
<stop offset="0.8095" stop-color="#FFC65E" stop-opacity="0.1905"/>
<stop offset="1" stop-color="#FFC55B" stop-opacity="0"/>
</radialGradient>
<radialGradient id="paint28_radial_8951_27547" cx="0" cy="0" r="1" gradientUnits="userSpaceOnUse" gradientTransform="translate(13.8703 26.8851) rotate(179.287) scale(2.99029 3.06492)">
<stop stop-color="white"/>
<stop offset="0.1392" stop-color="#FFF4E1" stop-opacity="0.8608"/>
<stop offset="0.4329" stop-color="#FFE0A8" stop-opacity="0.5671"/>
<stop offset="0.6847" stop-color="#FFD17E" stop-opacity="0.3153"/>
<stop offset="0.8819" stop-color="#FFC864" stop-opacity="0.1181"/>
<stop offset="1" stop-color="#FFC55B" stop-opacity="0"/>
</radialGradient>
<radialGradient id="paint29_radial_8951_27547" cx="0" cy="0" r="1" gradientUnits="userSpaceOnUse" gradientTransform="translate(13.8712 26.8852) rotate(89.2162) scale(5.91784 1.15548)">
<stop stop-color="white"/>
<stop offset="0.1392" stop-color="#FFF4E1" stop-opacity="0.8608"/>
<stop offset="0.4329" stop-color="#FFE0A8" stop-opacity="0.5671"/>
<stop offset="0.6847" stop-color="#FFD17E" stop-opacity="0.3153"/>
<stop offset="0.8819" stop-color="#FFC864" stop-opacity="0.1181"/>
<stop offset="1" stop-color="#FFC55B" stop-opacity="0"/>
</radialGradient>
<radialGradient id="paint30_radial_8951_27547" cx="0" cy="0" r="1" gradientUnits="userSpaceOnUse" gradientTransform="translate(13.8707 26.8849) rotate(179.287) scale(6.00182 1.1393)">
<stop stop-color="white"/>
<stop offset="0.1392" stop-color="#FFF4E1" stop-opacity="0.8608"/>
<stop offset="0.4329" stop-color="#FFE0A8" stop-opacity="0.5671"/>
<stop offset="0.6847" stop-color="#FFD17E" stop-opacity="0.3153"/>
<stop offset="0.8819" stop-color="#FFC864" stop-opacity="0.1181"/>
<stop offset="1" stop-color="#FFC55B" stop-opacity="0"/>
</radialGradient>
<radialGradient id="paint31_radial_8951_27547" cx="0" cy="0" r="1" gradientUnits="userSpaceOnUse" gradientTransform="translate(13.8707 26.885) rotate(179.287) scale(5.71438 0.59841)">
<stop stop-color="white"/>
<stop offset="0.1594" stop-color="#FFF0D5" stop-opacity="0.8406"/>
<stop offset="0.3495" stop-color="#FFE1A9" stop-opacity="0.6505"/>
<stop offset="0.5337" stop-color="#FFD587" stop-opacity="0.4663"/>
<stop offset="0.7078" stop-color="#FFCC6F" stop-opacity="0.2922"/>
<stop offset="0.8677" stop-color="#FFC760" stop-opacity="0.1323"/>
<stop offset="1" stop-color="#FFC55B" stop-opacity="0"/>
</radialGradient>
<radialGradient id="paint32_radial_8951_27547" cx="0" cy="0" r="1" gradientUnits="userSpaceOnUse" gradientTransform="translate(13.8712 26.8862) rotate(179.287) scale(2.83148 2.51492)">
<stop stop-color="white"/>
<stop offset="0.1594" stop-color="#FFF0D5" stop-opacity="0.8406"/>
<stop offset="0.3495" stop-color="#FFE1A9" stop-opacity="0.6505"/>
<stop offset="0.5337" stop-color="#FFD587" stop-opacity="0.4663"/>
<stop offset="0.7078" stop-color="#FFCC6F" stop-opacity="0.2922"/>
<stop offset="0.8677" stop-color="#FFC760" stop-opacity="0.1323"/>
<stop offset="1" stop-color="#FFC55B" stop-opacity="0"/>
</radialGradient>
<radialGradient id="paint33_radial_8951_27547" cx="0" cy="0" r="1" gradientUnits="userSpaceOnUse" gradientTransform="translate(13.871 26.8846) rotate(89.2163) scale(5.63425 0.606902)">
<stop stop-color="white"/>
<stop offset="0.1123" stop-color="#FFF1D7" stop-opacity="0.8877"/>
<stop offset="0.2389" stop-color="#FFE3B1" stop-opacity="0.7611"/>
<stop offset="0.3711" stop-color="#FFD892" stop-opacity="0.6289"/>
<stop offset="0.5084" stop-color="#FFD07A" stop-opacity="0.4916"/>
<stop offset="0.6529" stop-color="#FFCA68" stop-opacity="0.3471"/>
<stop offset="0.8095" stop-color="#FFC65E" stop-opacity="0.1905"/>
<stop offset="1" stop-color="#FFC55B" stop-opacity="0"/>
</radialGradient>
</defs>
</svg>
