<svg width="108" height="122" viewBox="0 0 108 122" fill="none" xmlns="http://www.w3.org/2000/svg">
<path d="M3.56002 49.8688L3.71708 49.5154L7.95787 40.7982C8.23273 40.17 8.54687 39.5417 8.90027 38.8742L9.0966 38.4815C9.68559 37.3821 10.3139 36.2826 11.0599 35.2224C10.4317 36.3611 9.92119 37.4998 9.41072 38.6386L102.747 90.4703L102.669 90.5882C102.355 91.1772 102.04 91.7269 101.687 92.3159L95.4436 103.153C78.7554 128.755 47.2244 125.496 25.5885 109.907C6.46574 97.6169 -6.64927 71.2691 3.56002 49.8688Z" fill="url(#paint0_linear_8951_27437)"/>
<path d="M13.6146 80.0256C6.7037 68.9917 3.99431 56.2694 7.13563 44.5287C10.3162 32.788 18.7585 24.1887 29.7924 19.7908C40.8655 15.393 54.6088 15.2359 68.3128 20.3406C82.0561 25.4059 93.2078 34.7906 100.119 45.8245C107.03 56.8584 109.739 69.5807 106.598 81.3214C103.456 93.0621 95.014 101.661 83.9409 106.059C72.907 110.418 59.1245 110.575 45.4205 105.51C31.7165 100.405 20.5255 91.0595 13.6146 80.0256Z" fill="url(#paint1_linear_8951_27437)"/>
<path d="M47.1084 99.3053C58.8491 103.664 70.5505 103.507 80.053 99.7765C89.5162 96.0069 96.702 88.7033 99.4114 78.6511C102.121 68.5989 99.804 57.7613 93.8748 48.2981C87.9455 38.8349 78.4038 30.8638 66.6631 26.5052C54.9224 22.1466 43.221 22.3037 33.7185 26.034C24.2553 29.8036 17.0695 37.1071 14.3601 47.1594C11.6507 57.2508 13.9675 68.0491 19.8967 77.5124C25.8259 86.9756 35.3284 94.9859 47.1084 99.3053Z" fill="url(#paint2_linear_8951_27437)"/>
<path d="M70.9037 66.4008C70.9037 66.3615 70.9037 66.3615 70.9037 66.3222C70.943 65.8903 70.943 65.4584 70.943 64.9872C70.943 64.8301 70.943 64.673 70.943 64.516C70.943 64.2018 70.943 63.8484 70.9037 63.5343C70.9037 63.338 70.8644 63.1809 70.8644 62.9846C70.8252 62.5526 70.7859 62.1207 70.7074 61.6888C70.6681 61.3354 70.5896 61.0213 70.511 60.6679C70.4718 60.4323 70.4325 60.1967 70.354 59.9611C70.3147 59.6862 70.2362 59.4506 70.1576 59.1757C70.0791 58.9401 70.0398 58.7045 69.9613 58.4689C69.8828 58.2333 69.8042 57.9977 69.7257 57.8014C69.6472 57.5265 69.5686 57.2909 69.4508 57.0161C69.2938 56.6234 69.1367 56.1915 68.9797 55.7988L70.1576 53.8748C70.3147 54.2282 70.4718 54.5423 70.5896 54.8957C70.6288 54.9349 70.6288 55.0135 70.6288 55.0528C70.7074 55.2883 70.8252 55.5632 70.9037 55.8381C70.943 55.9951 71.0215 56.1915 71.1 56.3485C71.1 56.3878 71.1393 56.4663 71.1393 56.5056C71.2178 56.7412 71.2571 56.9768 71.3356 57.2124C71.3749 57.4087 71.4534 57.6051 71.4927 57.8014C71.4927 57.8799 71.532 57.9192 71.532 57.9977C71.5712 58.2333 71.6105 58.4689 71.689 58.7045C71.7283 58.9009 71.7676 59.0972 71.8068 59.2935C71.8461 59.4113 71.8461 59.5684 71.8854 59.7254C71.9246 60.0396 71.9639 60.3537 72.0032 60.6679C72.0032 60.7857 72.0032 60.9034 72.0424 61.0212C72.0424 61.2176 72.0817 61.3746 72.0817 61.571C72.0817 61.6888 72.121 61.8458 72.121 61.9636C72.121 62.16 72.121 62.3563 72.121 62.5526C72.121 62.7097 72.121 62.8668 72.121 63.0238C72.121 63.1024 72.121 63.1416 72.121 63.2202C72.121 63.6128 72.0817 63.9662 72.0817 64.3589C72.0817 64.3982 72.0817 64.3982 72.0817 64.4374C72.0424 64.8301 72.0032 65.2228 71.9639 65.6154C71.9639 65.7332 71.9246 65.8118 71.9246 65.9296L70.7466 67.8536C70.7859 67.4217 70.8644 66.9112 70.9037 66.4008Z" fill="url(#paint3_linear_8951_27437)"/>
<path d="M78.4429 74.2947L77.3041 76.258L84.2936 78.8496L85.4716 76.8863L78.4429 74.2947Z" fill="url(#paint4_linear_8951_27437)"/>
<path d="M86.7686 42.5247C86.5723 42.3283 86.376 42.0927 86.1797 41.8964C86.1011 41.8179 86.0226 41.7393 85.9048 41.6215C85.5121 41.2289 85.1587 40.8755 84.7661 40.4828C84.609 40.3257 84.4519 40.1687 84.2949 40.0509C83.9415 39.7368 83.6273 39.4226 83.2739 39.1085C83.1169 38.9514 82.9598 38.8336 82.7635 38.6766C82.3315 38.3232 81.9389 37.9698 81.5069 37.6164C81.4284 37.5378 81.3106 37.4593 81.2321 37.3808C80.6823 36.9488 80.0933 36.4776 79.5436 36.0457C79.5043 36.0064 79.4651 36.0064 79.4258 35.9672C78.8761 35.5745 78.3263 35.1426 77.7374 34.7892C77.6196 34.7106 77.541 34.6714 77.4232 34.5928C76.952 34.2787 76.4808 33.9646 76.0096 33.6897C75.8133 33.5719 75.6562 33.4541 75.4599 33.3363C75.1458 33.14 74.8316 32.9437 74.5175 32.7866C73.9285 32.4332 73.3395 32.119 72.7505 31.7656C72.5149 31.6478 72.3186 31.5301 72.083 31.4123C71.4154 31.0589 70.7087 30.7054 70.0411 30.3913C69.9626 30.352 69.8841 30.3128 69.8055 30.2735C69.0595 29.9201 68.3134 29.606 67.5281 29.2526C66.8605 28.9777 66.1537 28.7029 65.4862 28.428C65.0935 28.2709 64.7009 28.1531 64.3082 27.9961C63.8763 27.839 63.4443 27.6819 63.0124 27.5641C62.659 27.4463 62.3449 27.3678 61.9915 27.25C61.5988 27.1322 61.1669 27.0144 60.7742 26.8966C60.4208 26.8181 60.0674 26.7003 59.714 26.6217C59.3214 26.5039 58.9287 26.4254 58.536 26.3469C58.1826 26.2683 57.8292 26.1898 57.5151 26.1505C57.1224 26.072 56.6905 25.9935 56.2979 25.9149C55.9445 25.8364 55.6303 25.7971 55.2769 25.7579C54.845 25.6793 54.4523 25.6401 54.0204 25.5615C53.7063 25.5223 53.3529 25.483 53.0387 25.4437C52.6068 25.4045 52.1749 25.3652 51.7037 25.326C51.3895 25.2867 51.0754 25.2867 50.7613 25.2474C50.2508 25.2081 49.7796 25.2081 49.2691 25.1689C48.9943 25.1689 48.7194 25.1296 48.4446 25.1296C47.7378 25.1296 46.9917 25.1296 46.2849 25.1296C46.2064 25.1296 46.1278 25.1296 46.0493 25.1296C45.1854 25.1689 44.3608 25.2081 43.5362 25.2867C43.1436 25.3259 42.7509 25.3652 42.3582 25.4045C42.1619 25.4438 42.0048 25.4437 41.8085 25.483C41.2195 25.5615 40.5913 25.6401 40.0023 25.7579C39.3347 25.8757 38.6672 25.9935 38.0389 26.1505C37.9997 26.1505 37.9211 26.1898 37.8819 26.1898C37.2929 26.3469 36.7039 26.4647 36.1149 26.661C35.7222 26.7788 35.2903 26.8966 34.8976 27.0537C34.7013 27.1322 34.4657 27.1715 34.2693 27.25C33.6804 27.4463 33.0521 27.6819 32.5023 27.9175C25.7093 30.5877 20.0941 35.1426 16.4816 41.1503L17.6596 39.2263C21.3114 33.1792 26.9265 28.6636 33.6804 25.9935C34.2693 25.7579 34.8583 25.5615 35.4473 25.326C35.6437 25.2474 35.8793 25.2082 36.0756 25.1296C36.4683 25.0118 36.8609 24.894 37.2536 24.7762H37.2929C37.8819 24.6191 38.4316 24.4621 39.0206 24.3443C39.0991 24.3443 39.1384 24.305 39.2169 24.305C39.8845 24.1479 40.5127 24.0301 41.1803 23.9123H41.2195C41.8085 23.7945 42.3975 23.716 42.9865 23.6375C43.1828 23.5982 43.3399 23.5982 43.5362 23.559C43.8504 23.5197 44.1252 23.4804 44.4394 23.4412C44.5179 23.4412 44.6357 23.4412 44.7142 23.4412C45.5388 23.3626 46.4027 23.2841 47.2273 23.2841C47.2273 23.2841 47.2273 23.2841 47.2666 23.2841C47.3451 23.2841 47.3844 23.2841 47.4629 23.2841C48.1697 23.2448 48.9157 23.2448 49.6225 23.2841C49.7011 23.2841 49.7796 23.2841 49.8974 23.2841C50.0937 23.2841 50.2901 23.3233 50.4864 23.3233C50.9576 23.3233 51.4681 23.3626 51.9785 23.4019C52.1356 23.4019 52.2534 23.4019 52.4105 23.4019C52.5675 23.4019 52.7639 23.4412 52.9209 23.4412C53.3529 23.4804 53.7848 23.5197 54.2167 23.559C54.4131 23.5982 54.5701 23.5982 54.7665 23.5982C54.9235 23.5982 55.0413 23.6375 55.1984 23.6768C55.5911 23.716 56.023 23.7946 56.4549 23.8731C56.6512 23.9124 56.8868 23.9124 57.0832 23.9516C57.201 23.9909 57.3188 23.9909 57.4758 24.0302C57.8685 24.1087 58.2612 24.1872 58.6931 24.2658C58.9287 24.305 59.1643 24.3443 59.3999 24.3835C59.5177 24.4228 59.6355 24.4228 59.714 24.4621C60.1067 24.5406 60.4994 24.6584 60.892 24.737C61.1276 24.8155 61.4025 24.8548 61.6381 24.9333C61.7559 24.9726 61.8344 24.9726 61.9522 25.0118C62.3449 25.1296 62.7376 25.2474 63.1302 25.3652C63.4051 25.4437 63.6407 25.5223 63.9155 25.6008C63.9941 25.6401 64.0726 25.6401 64.1511 25.6793C64.5831 25.7971 64.9757 25.9542 65.4077 26.1113C65.6825 26.1898 65.9574 26.2684 66.193 26.3862C66.3108 26.4254 66.4679 26.5039 66.5857 26.5432C67.2532 26.7788 67.8815 27.0537 68.549 27.2893C68.5883 27.2893 68.6275 27.3285 68.6668 27.3285C69.4521 27.6427 70.1982 27.9961 70.9443 28.3102H70.9835C71.062 28.3495 71.1406 28.3887 71.2191 28.428C71.8866 28.7421 72.5934 29.0955 73.261 29.4489C73.3395 29.4882 73.418 29.5275 73.4573 29.5667C73.6144 29.6453 73.7714 29.7238 73.9285 29.8416C74.5175 30.1557 75.1065 30.5091 75.6955 30.8625C75.8133 30.941 75.9704 31.0196 76.0882 31.0981C76.2845 31.2159 76.4416 31.3337 76.6379 31.4515C76.8342 31.5693 76.9913 31.6871 77.1876 31.8049C77.6588 32.1191 78.13 32.4332 78.6012 32.7473C78.719 32.8258 78.7975 32.8651 78.9153 32.9436C78.9546 32.9436 78.9546 32.9829 78.9939 32.9829C79.5436 33.3363 80.0541 33.729 80.6038 34.1216C80.6431 34.1609 80.6823 34.1609 80.6823 34.2002C81.2321 34.6321 81.7818 35.0248 82.3315 35.4567C82.3708 35.4567 82.3708 35.496 82.4101 35.496C82.4886 35.5745 82.6064 35.653 82.6849 35.7316C83.1169 36.085 83.5488 36.4384 83.9415 36.7918C84.0985 36.9488 84.2556 37.0666 84.4519 37.2237C84.8053 37.5378 85.1587 37.852 85.4729 38.1661C85.6299 38.3232 85.787 38.4802 85.9441 38.6373C86.3367 39.0299 86.7294 39.3834 87.0828 39.776C87.1613 39.8545 87.2398 39.9331 87.3576 40.0509C87.3969 40.0902 87.3969 40.0902 87.4362 40.1294C87.5932 40.3258 87.7896 40.4828 87.9466 40.6791C88.2608 41.0325 88.5749 41.3467 88.889 41.7001C89.0854 41.9357 89.2817 42.1713 89.478 42.4069C89.7529 42.721 90.0278 43.0744 90.3026 43.3885C90.499 43.6241 90.6953 43.899 90.8916 44.1346C91.1272 44.4487 91.4021 44.8021 91.6377 45.1162C91.834 45.3911 92.0304 45.6267 92.1874 45.9016C92.423 46.2157 92.6586 46.5691 92.8942 46.8832C92.9335 46.9618 93.012 47.0403 93.0513 47.1189C93.3262 47.5508 93.6403 47.9827 93.9152 48.4146C94.3471 49.0822 94.7397 49.7497 95.0931 50.4172C95.2109 50.6136 95.3287 50.8492 95.4465 51.0455C95.6821 51.5167 95.957 51.9879 96.1926 52.4591C96.2319 52.5769 96.3104 52.6947 96.3497 52.7732C96.4282 52.9695 96.5067 53.1266 96.5853 53.323C96.7031 53.5978 96.8601 53.912 96.9779 54.1868C97.135 54.501 97.2528 54.8151 97.4099 55.1685C97.5277 55.4433 97.6455 55.7575 97.7633 56.0323C97.8025 56.1502 97.8418 56.2679 97.9203 56.3857C97.9596 56.5035 97.9989 56.6213 98.0381 56.7391C98.3523 57.5637 98.6271 58.3491 98.8627 59.1737C98.902 59.2522 98.902 59.2915 98.9413 59.37C98.9413 59.4093 98.9413 59.4092 98.9413 59.4485C99.1769 60.2338 99.3732 61.0192 99.5695 61.7652C99.5695 61.8438 99.6088 61.9223 99.6088 62.0008C99.6481 62.1579 99.6873 62.315 99.6873 62.472C99.8051 62.9825 99.8837 63.4537 99.9622 63.9642C100.001 64.082 100.001 64.239 100.041 64.3568C100.08 64.4746 100.08 64.6317 100.08 64.7495C100.159 65.1814 100.198 65.6134 100.237 66.0846C100.276 66.2416 100.276 66.438 100.316 66.595C100.316 66.6736 100.316 66.7914 100.355 66.8699C100.394 67.2626 100.433 67.6945 100.433 68.0871C100.433 68.2835 100.473 68.4798 100.473 68.7154C100.473 68.794 100.473 68.8332 100.473 68.9118C100.473 69.3044 100.473 69.6971 100.473 70.0897C100.473 70.3253 100.473 70.5217 100.473 70.7573C100.473 70.7966 100.473 70.8358 100.473 70.9143C100.473 71.307 100.433 71.6997 100.433 72.0923C100.433 72.3279 100.433 72.5635 100.394 72.7991C100.394 72.8384 100.394 72.8777 100.394 72.8777C100.355 73.2703 100.316 73.663 100.276 74.0557C100.237 74.2913 100.237 74.5268 100.198 74.7624C100.198 74.8017 100.198 74.8017 100.198 74.841C100.119 75.3122 100.041 75.7834 99.9622 76.2546C99.9229 76.4117 99.9229 76.608 99.8837 76.7651C99.8837 76.7651 99.8837 76.765 99.8837 76.8043C99.7659 77.4326 99.6088 78.1001 99.4125 78.7284V78.8069C99.2161 79.4744 99.0198 80.142 98.7842 80.8095C98.7842 80.8095 98.7842 80.8095 98.7842 80.8488C98.6664 81.2414 98.5093 81.6341 98.3523 81.9875C98.2345 82.2624 98.1559 82.5765 98.0381 82.8514C98.0381 82.8514 98.0381 82.8513 98.0381 82.8906C98.0381 82.8906 98.0381 82.9299 97.9989 82.9299C97.724 83.5582 97.4491 84.1471 97.1743 84.7361C97.135 84.7754 97.135 84.8147 97.0957 84.8539C97.0957 84.8932 97.0565 84.8932 97.0565 84.9325C96.7423 85.5215 96.4282 86.1105 96.0748 86.6602L94.8968 88.5843C95.2502 87.9953 95.6036 87.4063 95.9177 86.778C95.957 86.7387 95.957 86.6995 95.9963 86.6602C96.3104 86.0712 96.5853 85.4822 96.8209 84.8539C96.8209 84.8539 96.8209 84.8147 96.8601 84.8147C96.9779 84.5398 97.0957 84.2257 97.2135 83.9508C97.3706 83.5582 97.5277 83.2047 97.6455 82.8121C97.8811 82.1445 98.0774 81.4378 98.2737 80.731C98.4308 80.1027 98.5879 79.4352 98.7449 78.8069C98.7842 78.6106 98.8235 78.4535 98.8235 78.2572C98.902 77.786 98.9805 77.3148 99.0591 76.8436C99.0983 76.5687 99.0983 76.3331 99.1376 76.0583C99.1769 75.6656 99.2161 75.2729 99.2554 74.8803C99.2947 74.6054 99.2947 74.3305 99.2947 74.0557C99.3339 73.663 99.3339 73.2703 99.3339 72.8777C99.3339 72.6028 99.3339 72.3279 99.3339 72.0531C99.3339 71.6604 99.3339 71.2677 99.3339 70.8751C99.3339 70.6002 99.2947 70.3253 99.2947 70.0505C99.2554 69.6578 99.2554 69.2259 99.2161 68.8332C99.1769 68.5583 99.1769 68.2835 99.1376 68.0086C99.0983 67.5767 99.0198 67.1447 98.9805 66.7128C98.9413 66.438 98.902 66.1631 98.8627 65.8882C98.7842 65.3778 98.6664 64.9066 98.5879 64.3961C98.5486 64.1605 98.4701 63.9249 98.4308 63.6893C98.2345 62.904 98.0381 62.1186 97.8025 61.3726C97.7633 61.2941 97.7633 61.2155 97.724 61.0977C97.4884 60.2731 97.2135 59.4878 96.8994 58.6632C96.8209 58.4276 96.7423 58.192 96.6245 57.9564C96.5067 57.6815 96.3889 57.3674 96.2711 57.0925C96.1533 56.7784 95.9963 56.4643 95.8392 56.1109C95.7214 55.836 95.5643 55.5219 95.4465 55.247C95.2895 54.9722 95.1717 54.658 95.0146 54.3832C94.779 53.912 94.5434 53.4407 94.2685 52.9695C94.1507 52.7732 94.0329 52.5376 93.9152 52.3413C93.5225 51.6738 93.1298 51.0062 92.7372 50.3387C92.423 49.8282 92.0696 49.3178 91.7555 48.8073C91.5199 48.4932 91.2843 48.1398 91.0487 47.8256C90.8524 47.5508 90.6953 47.3152 90.499 47.0403C90.2634 46.7262 89.9885 46.3728 89.7529 46.0587C89.5566 45.8231 89.3602 45.5482 89.1639 45.3126C88.889 44.9984 88.6142 44.6451 88.3393 44.3309C88.143 44.0953 87.9466 43.8597 87.7503 43.6241C87.3969 43.1922 87.0828 42.8388 86.7686 42.5247Z" fill="url(#paint5_linear_8951_27437)"/>
<mask id="mask0_8951_27437" style="mask-type:luminance" maskUnits="userSpaceOnUse" x="68" y="71" width="3" height="3">
<path d="M68.9788 73.274L70.1175 71.35L70.196 71.2322L69.0181 73.1955L68.9788 73.274Z" fill="white"/>
</mask>
<g mask="url(#mask0_8951_27437)">
<path d="M70.196 71.2322L69.0181 73.1955L68.9788 73.274L70.1175 71.35L70.196 71.2322Z" fill="#784E4A"/>
</g>
<path d="M50.9557 59.5692C50.9164 59.2944 50.8379 58.9802 50.7986 58.7446C50.7986 58.6661 50.7594 58.6268 50.7594 58.5876C50.6808 58.352 50.6416 58.1556 50.563 57.92C50.563 57.8808 50.5238 57.8415 50.5238 57.8022C50.4452 57.5666 50.3274 57.2918 50.2096 57.0954C50.0918 56.8991 49.974 56.742 49.8562 56.585C49.7777 56.5064 49.7384 56.4279 49.6599 56.3494C49.5421 56.2316 49.4243 56.1138 49.3065 55.996C49.2672 55.9567 49.228 55.9174 49.1887 55.9174C48.9924 55.7604 48.8353 55.6426 48.5997 55.5248C48.5997 55.5248 48.5997 55.5248 48.5605 55.5248C48.3249 55.407 48.0893 55.2892 47.8537 55.2106C47.5788 55.0928 47.3039 55.0536 47.0683 54.975H47.0291C46.7542 54.9358 46.5186 54.8965 46.283 54.8965C46.0474 54.8965 45.8118 54.8965 45.5369 54.9358H45.4977C45.2621 54.975 45.0265 55.0536 44.7909 55.1321C43.8092 55.4855 42.9453 56.2708 42.1993 57.4881L43.3773 55.564C44.1233 54.3468 44.9872 53.5614 45.9689 53.2081C46.0474 53.1688 46.1259 53.1688 46.2045 53.1295C46.3223 53.0902 46.4793 53.051 46.5971 53.051C46.6364 53.051 46.6364 53.051 46.6757 53.051H46.7149C46.7935 53.051 46.8327 53.0117 46.9113 53.0117C46.9898 53.0117 47.1076 53.0117 47.1861 53.0117H47.4217H47.461H47.6573L47.8929 53.051L48.1285 53.0903L48.2463 53.1295C48.2463 53.1295 48.2463 53.1295 48.2856 53.1295H48.3249C48.4034 53.1295 48.4819 53.1688 48.5605 53.1688C48.639 53.208 48.7175 53.208 48.796 53.2473C48.8746 53.2866 48.9531 53.2866 49.0317 53.3258H49.0709L49.2672 53.4044C49.3458 53.4437 49.4243 53.4829 49.4636 53.4829C49.5421 53.5222 49.6206 53.5614 49.6599 53.6007C49.6992 53.64 49.7384 53.64 49.7777 53.6793H49.817C49.8562 53.6793 49.8562 53.7185 49.8955 53.7185C49.974 53.7578 50.0526 53.7971 50.1311 53.8756C50.2096 53.9149 50.2882 53.9934 50.3667 54.0719L50.406 54.1112C50.4452 54.1504 50.4845 54.1897 50.5238 54.1897C50.6023 54.2682 50.6808 54.3075 50.7201 54.386C50.7594 54.4253 50.7986 54.5038 50.8379 54.5431C50.9164 54.6216 50.9557 54.7002 51.0342 54.7787C51.0735 54.818 51.1128 54.8572 51.152 54.8965C51.2306 55.0143 51.3091 55.1714 51.3876 55.2892L51.4662 55.4462C51.5447 55.6033 51.6232 55.7996 51.7018 55.9567V55.996C51.7018 56.0352 51.741 56.0745 51.741 56.1138C51.7803 56.2316 51.8196 56.3494 51.8588 56.4672C51.8981 56.5457 51.8981 56.6635 51.9374 56.742C51.9374 56.7813 51.9766 56.8598 51.9766 56.8991C51.9766 56.9384 52.0159 56.9776 52.0159 57.0169C52.0552 57.2132 52.0944 57.4488 52.1337 57.6844V57.7237C52.1337 57.8022 52.1337 57.8415 52.173 57.92C52.2122 58.1164 52.2122 58.2734 52.2515 58.4697C52.2515 58.5875 52.2908 58.7054 52.2908 58.8232L51.1128 60.7472C51.0735 60.4331 51.0342 60.1582 50.995 59.8834C50.9557 59.687 50.9557 59.6085 50.9557 59.5692Z" fill="url(#paint6_linear_8951_27437)"/>
<path d="M61.5574 68.0515L60.3794 69.9756L69.0181 73.1954L70.196 71.2321L61.5574 68.0515Z" fill="url(#paint7_linear_8951_27437)"/>
<mask id="mask1_8951_27437" style="mask-type:luminance" maskUnits="userSpaceOnUse" x="33" y="49" width="4" height="6">
<path d="M36.2705 49.8689L35.0925 51.7929C34.6213 52.539 34.2287 53.3636 33.836 54.2667L35.014 52.3427C35.3674 51.4396 35.7993 50.615 36.2705 49.8689Z" fill="white"/>
</mask>
<g mask="url(#mask1_8951_27437)">
<path d="M36.2705 49.8689L35.0925 51.7929C34.8962 52.1463 34.6998 52.4605 34.5035 52.8531L35.6815 50.9291C35.8386 50.5757 36.0349 50.2223 36.2705 49.8689Z" fill="#784E4A"/>
</g>
<mask id="mask2_8951_27437" style="mask-type:luminance" maskUnits="userSpaceOnUse" x="33" y="49" width="4" height="6">
<path d="M36.2705 49.8689L35.0925 51.7929C34.6213 52.539 34.2287 53.3636 33.836 54.2667L35.014 52.3427C35.3674 51.4396 35.7993 50.615 36.2705 49.8689Z" fill="white"/>
</mask>
<g mask="url(#mask2_8951_27437)">
<path d="M35.6816 50.9304L34.5036 52.8545C34.268 53.3257 34.0324 53.7969 33.8361 54.2681L35.0141 52.344C35.2104 51.8335 35.446 51.3624 35.6816 50.9304Z" fill="#7C514D"/>
</g>
<path d="M41.6887 60.7078L40.5499 62.6318L51.1911 66.5977L52.3691 64.6344L41.6887 60.7078Z" fill="url(#paint8_linear_8951_27437)"/>
<path d="M26.612 55.1316L25.4732 57.0557L32.2663 59.608L33.4443 57.6447L26.612 55.1316Z" fill="url(#paint9_linear_8951_27437)"/>
<path d="M28.0635 49.7908L26.8855 51.7148L25.4719 57.0551L26.6106 55.131L28.0635 49.7908Z" fill="#8A5A55"/>
<path d="M56.964 81.952C56.8462 81.8735 56.7677 81.795 56.6499 81.7164C56.4928 81.5986 56.3357 81.4808 56.2179 81.4023C56.2179 81.4023 56.2179 81.4023 56.1787 81.4023L56.1394 81.363C55.8253 81.1274 55.5504 80.8526 55.2755 80.5777C55.2363 80.5384 55.197 80.4992 55.1577 80.4599C55.1185 80.4206 55.1185 80.3814 55.0792 80.3814C54.8436 80.1065 54.608 79.8709 54.4117 79.596C54.2153 79.3604 54.0583 79.0856 53.8619 78.85C53.7441 78.6929 53.6656 78.5358 53.5478 78.3788C53.5085 78.3002 53.4693 78.2217 53.3907 78.1432C53.1944 77.7898 52.9981 77.4756 52.841 77.1222C52.8018 77.0437 52.8018 77.0044 52.7625 76.9259C52.7232 76.8081 52.6447 76.6903 52.6054 76.5332C52.5269 76.3762 52.4484 76.1798 52.3698 76.0228C52.2913 75.8264 52.252 75.6694 52.1735 75.4731C52.1342 75.3945 52.1342 75.316 52.095 75.2375C52.095 75.1982 52.0557 75.1589 52.0557 75.0804C51.9772 74.8055 51.8986 74.5307 51.8201 74.2558C51.7808 74.0987 51.7416 73.9417 51.7416 73.7846C51.7023 73.549 51.663 73.3134 51.6238 73.0385C51.5845 72.7637 51.5452 72.4888 51.506 72.2139V72.1747C51.4667 71.8605 51.4274 71.5071 51.3882 71.193C51.3882 71.0359 51.3489 70.8396 51.3489 70.6825C51.3489 70.5647 51.3096 70.4469 51.3096 70.2899C51.2704 69.7794 51.2311 69.3082 51.2311 68.7585C51.2311 68.7192 51.2311 68.68 51.2311 68.6407C51.2311 68.5622 51.2311 68.5229 51.2311 68.4444C51.1918 67.8554 51.1918 67.2271 51.1918 66.5596L52.3698 64.6355C52.3698 65.2638 52.3698 65.892 52.4091 66.481C52.4091 66.5596 52.4091 66.5988 52.4091 66.6774C52.4483 67.2271 52.4484 67.7768 52.4876 68.3266C52.4876 68.4444 52.5269 68.5622 52.5269 68.7192C52.5661 69.2297 52.6054 69.7401 52.684 70.2113C52.684 70.2506 52.684 70.2506 52.684 70.2899C52.7625 70.8396 52.841 71.3501 52.9195 71.8605C52.9981 72.3317 53.1552 72.8422 53.2729 73.3134C53.3122 73.3919 53.3122 73.4705 53.3515 73.549C53.4693 73.9024 53.6263 74.2558 53.7834 74.6092C53.8227 74.727 53.9012 74.8448 53.9405 75.0019C54.1368 75.3945 54.3331 75.8264 54.5687 76.2191C54.608 76.2976 54.6473 76.3762 54.7258 76.4547C55.0007 76.8867 55.2755 77.2793 55.5504 77.672C55.7467 77.9468 55.9823 78.2217 56.2179 78.4573C56.2965 78.5358 56.3357 78.5751 56.4143 78.6536C56.6891 78.9285 56.964 79.2034 57.2781 79.439C57.3174 79.4782 57.3174 79.4782 57.3567 79.5175C57.5137 79.6353 57.6708 79.7531 57.8279 79.8709C57.9064 79.9494 58.0242 80.028 58.1027 80.0672C58.142 80.1065 58.2205 80.1458 58.2598 80.185C58.4561 80.3028 58.6525 80.4599 58.8488 80.5777C58.9273 80.617 59.0059 80.6562 59.0844 80.7348C59.2807 80.8526 59.4378 80.9311 59.6341 81.0489C59.7127 81.0882 59.8305 81.1667 59.9483 81.206C60.1446 81.2845 60.3409 81.4023 60.5373 81.4808C60.6551 81.5201 60.7336 81.5594 60.8514 81.6379C61.1262 81.7557 61.4404 81.8735 61.7152 81.9913C62.1079 82.1484 62.5006 82.2662 62.8932 82.384C62.9718 82.384 63.011 82.4232 63.0896 82.4232C63.443 82.541 63.8356 82.6196 64.189 82.6981C64.2283 82.6981 64.3068 82.7374 64.3461 82.7374C64.6995 82.8159 65.0529 82.8552 65.4063 82.8944C65.4456 82.8944 65.5241 82.8944 65.5634 82.8944C65.9168 82.9337 66.2702 82.9337 66.6236 82.9337C66.7021 82.9337 66.7414 82.9337 66.8199 82.9337C67.1733 82.9337 67.4874 82.9337 67.8016 82.8944C67.8408 82.8944 67.8801 82.8944 67.9193 82.8944C68.2727 82.8552 68.6261 82.8159 68.9795 82.7374C69.1759 82.6981 69.3722 82.6588 69.5685 82.6195C69.7649 82.5803 69.9612 82.541 70.1575 82.4625C70.5895 82.3447 70.9821 82.1876 71.4141 82.0305C72.5921 81.5594 73.6915 80.8526 74.6339 79.9887C75.6156 79.1248 76.4794 78.0254 77.2648 76.7689L76.0868 78.6929C74.5554 81.2452 72.5921 83.0122 70.2361 83.9939C69.8041 84.1509 69.4115 84.308 68.9795 84.4258C68.9403 84.4258 68.901 84.4651 68.901 84.4651C68.7439 84.5043 68.5869 84.5436 68.4298 84.5829C68.2335 84.6221 68.0371 84.6614 67.8408 84.7007C67.8015 84.7007 67.7623 84.7007 67.723 84.7399C67.4089 84.7792 67.134 84.8185 66.8199 84.8577H66.7806C66.7414 84.8577 66.7021 84.8577 66.6628 84.8577C66.4665 84.8577 66.2702 84.897 66.0346 84.897C65.9168 84.897 65.7597 84.897 65.6419 84.897C65.5634 84.897 65.5241 84.897 65.4456 84.897C65.4063 84.897 65.367 84.897 65.2885 84.897C65.0529 84.897 64.8566 84.897 64.621 84.8577C64.5424 84.8577 64.4639 84.8577 64.3461 84.8185C64.3068 84.8185 64.2283 84.8185 64.189 84.8185C64.1105 84.8185 64.032 84.8185 63.9534 84.7792C63.7571 84.7399 63.5215 84.74 63.3252 84.7007C63.2466 84.7007 63.1681 84.6614 63.0896 84.6614C63.0503 84.6614 62.9718 84.6222 62.9325 84.6222C62.854 84.6222 62.7754 84.5829 62.6969 84.5829C62.4613 84.5436 62.265 84.4651 62.0294 84.4258C61.9508 84.4258 61.9116 84.3865 61.833 84.3865C61.7545 84.3865 61.7152 84.3473 61.6367 84.3473C61.5189 84.308 61.4404 84.308 61.3226 84.2687C61.087 84.1902 60.8514 84.1117 60.6158 84.0332L60.498 83.9939C60.2624 83.9153 60.0268 83.7976 59.7912 83.719C59.7519 83.6798 59.6734 83.6798 59.6341 83.6405C59.5163 83.6012 59.4378 83.562 59.32 83.5227C59.2022 83.4834 59.1237 83.4441 59.0059 83.4049C58.9273 83.3656 58.8095 83.3263 58.731 83.2871C58.6132 83.2478 58.5347 83.2086 58.4561 83.13C58.4169 83.0908 58.3383 83.0908 58.2991 83.0515C58.1813 82.973 58.0242 82.8944 57.9064 82.8159C57.8279 82.7766 57.7493 82.7374 57.6708 82.6588C57.6315 82.6588 57.6315 82.6195 57.5923 82.6195C57.3959 82.5017 57.2389 82.384 57.0425 82.2662C57.0818 82.0306 57.0425 81.9913 56.964 81.952Z" fill="url(#paint10_linear_8951_27437)"/>
<path d="M55.5881 77.6303C56.9624 79.4365 59.0436 80.8501 61.7922 81.871C65.2084 83.1276 68.4282 83.1668 71.4518 81.9103C74.4753 80.6538 76.8313 78.1407 78.4805 74.3319L85.5092 76.9235L86.962 71.5832L80.1297 69.0702C80.6794 66.3608 80.7972 63.6514 80.5223 60.9027C80.2475 58.1541 79.6585 55.8374 78.7161 53.874L70.2738 53.9918C71.0591 55.7981 71.6481 57.7221 71.923 59.8425C72.2371 61.9629 72.2371 64.0048 71.923 66.0467L61.4781 62.1985C61.4388 59.4106 61.2425 56.9368 60.8106 54.895C60.4179 52.8138 59.5148 50.8898 58.1404 49.0835C56.7661 47.2773 54.685 45.8637 51.8971 44.8035C48.4416 43.5077 45.1825 43.5077 42.1197 44.7642C39.0569 46.0207 36.7009 48.5731 35.0517 52.4604L28.1016 49.9081L26.6487 55.2484L33.4811 57.7614C32.735 62.3163 33.0099 66.4 34.3842 70.0518L42.7872 70.2089C41.727 66.8712 41.3736 63.7299 41.727 60.7849L52.3683 64.7116C52.3683 67.4602 52.5646 69.8555 52.9572 71.8973C53.3106 73.8999 54.2138 75.824 55.5881 77.6303ZM52.2112 58.7038L43.337 55.4054C44.083 54.1882 44.9469 53.4028 45.9285 53.0494C46.9102 52.696 47.9311 52.7353 49.0306 53.128C50.0908 53.5206 50.8369 54.1882 51.3473 55.0913C51.8185 56.073 52.0934 57.251 52.2112 58.7038ZM67.8 73.5465C66.8576 73.8999 65.8759 73.9 64.855 73.5073C63.8341 73.1146 63.0487 72.4864 62.5383 71.544C62.0278 70.6408 61.7137 69.4628 61.5566 68.0492L70.1952 71.2298C69.5277 72.4078 68.7031 73.1931 67.8 73.5465Z" fill="url(#paint11_linear_8951_27437)"/>
<path d="M55.5881 77.6303C56.9624 79.4365 59.0436 80.8501 61.7922 81.871C65.2084 83.1276 68.4282 83.1668 71.4518 81.9103C74.4753 80.6538 76.8313 78.1407 78.4805 74.3319L85.5092 76.9235L86.962 71.5832L80.1297 69.0702C80.6794 66.3608 80.7972 63.6514 80.5223 60.9027C80.2475 58.1541 79.6585 55.8374 78.7161 53.874L70.2738 53.9918C71.0591 55.7981 71.6481 57.7221 71.923 59.8425C72.2371 61.9629 72.2371 64.0048 71.923 66.0467L61.4781 62.1985C61.4388 59.4106 61.2425 56.9368 60.8105 54.895C60.4179 52.8138 59.5148 50.8898 58.1404 49.0835C56.7661 47.2773 54.685 45.8637 51.8971 44.8035C48.4416 43.5077 45.1825 43.5077 42.1197 44.7642C39.0569 46.0207 36.7009 48.573 35.0517 52.4604L28.1016 49.9081L26.6487 55.2484L33.4811 57.7614C32.735 62.3163 33.0099 66.4 34.3842 70.0518L42.7872 70.2089C41.727 66.8712 41.3736 63.7299 41.727 60.7849L52.3683 64.7116C52.3683 67.4602 52.5646 69.8555 52.9573 71.8973C53.3106 73.8999 54.2138 75.824 55.5881 77.6303ZM52.2112 58.7038L43.337 55.4054C44.083 54.1882 44.9469 53.4028 45.9285 53.0494C46.9102 52.696 47.9311 52.7353 49.0306 53.128C50.0908 53.5206 50.8369 54.1882 51.3473 55.0913C51.8185 56.073 52.0934 57.251 52.2112 58.7038ZM67.8 73.5465C66.8576 73.8999 65.8759 73.9 64.855 73.5073C63.8341 73.1146 63.0487 72.4864 62.5383 71.544C62.0278 70.6408 61.7137 69.4628 61.5566 68.0492L70.1952 71.2298C69.5277 72.4078 68.7031 73.1931 67.8 73.5465Z" stroke="url(#paint12_linear_8951_27437)" stroke-width="0.744497" stroke-miterlimit="10"/>
<path d="M34.347 69.9343L42.75 70.1307L41.6113 72.0547L33.169 71.8977L34.347 69.9343Z" fill="url(#paint13_linear_8951_27437)"/>
<path d="M33.0894 60.6678C33.0894 60.9427 33.0501 61.1783 33.0501 61.4531C33.0501 61.728 33.0501 62.0029 33.0108 62.2777C33.0108 62.5133 33.0108 62.7489 33.0108 62.9845C33.0108 63.2594 33.0108 63.5343 33.0501 63.8484C33.0501 64.0447 33.0894 64.2803 33.0894 64.4767C33.1286 64.7515 33.1286 65.0656 33.1679 65.3405C33.2072 65.5368 33.2072 65.7332 33.2464 65.9295C33.2857 66.2044 33.3642 66.5185 33.4035 66.7934C33.4428 66.9504 33.482 67.1468 33.5213 67.3038C33.5998 67.5787 33.6784 67.8928 33.7569 68.1677C33.7962 68.3248 33.8354 68.5211 33.8747 68.6782C33.9925 69.1101 34.1496 69.5813 34.3066 69.974L33.1286 71.898C32.9716 71.5054 32.8538 71.0734 32.6967 70.6808C32.6967 70.6415 32.6967 70.6415 32.6574 70.6022C32.6182 70.4452 32.5789 70.2881 32.5396 70.0918C32.4611 69.8562 32.4218 69.6206 32.3433 69.3457C32.3433 69.3064 32.3433 69.2672 32.304 69.1886C32.2648 69.0316 32.2255 68.8352 32.1862 68.6782C32.147 68.4818 32.1077 68.2462 32.0685 68.0499C32.0685 67.9714 32.0684 67.8929 32.0292 67.8143C31.9899 67.618 31.9899 67.4217 31.9507 67.2253C31.9114 67.0683 31.9114 66.8719 31.8721 66.7148C31.8721 66.597 31.8721 66.4793 31.8329 66.3615C31.8329 66.1651 31.7936 65.9295 31.7936 65.7332C31.7936 65.5761 31.7543 65.4583 31.7543 65.3013C31.7543 65.1442 31.7543 65.0264 31.7543 64.8693C31.7543 64.6337 31.7543 64.3981 31.7543 64.1625C31.7543 64.0447 31.7543 63.9269 31.7543 63.8091C31.7543 63.6521 31.7543 63.495 31.7936 63.3379C31.7936 63.0631 31.8329 62.8275 31.8329 62.5526C31.8329 62.4348 31.8329 62.317 31.8329 62.1992C31.8329 62.0421 31.8721 61.8851 31.8721 61.7673C31.9114 61.4531 31.9506 61.139 31.9899 60.8249C31.9899 60.7071 32.0292 60.5893 32.0292 60.4322C32.0684 60.1573 32.1077 59.8432 32.147 59.5684L33.325 57.6443C33.2464 58.0762 33.2072 58.4689 33.1679 58.9008C33.1286 59.215 33.0894 59.5291 33.0501 59.8432C33.1286 60.1181 33.1286 60.3929 33.0894 60.6678Z" fill="url(#paint14_linear_8951_27437)"/>
<path d="M47.1084 99.3055C58.8491 103.664 70.5505 103.507 80.053 99.7767C89.5162 96.0071 96.702 88.7036 99.4114 78.6513C102.121 68.5991 99.804 57.7616 93.8748 48.2983C87.9455 38.8351 78.4038 30.864 66.6631 26.5054C54.9224 22.1469 43.221 22.3039 33.7185 26.0342C24.2553 29.8038 17.0695 37.1074 14.3601 47.1596C11.6507 57.2511 13.9675 68.0494 19.8967 77.5126C25.8259 86.9758 35.3284 94.9862 47.1084 99.3055Z" stroke="url(#paint15_linear_8951_27437)" stroke-width="0.744497" stroke-miterlimit="10"/>
<path d="M47.4225 19.3583C47.2261 24.9734 51.4669 29.6853 56.8464 29.8817C62.2652 30.078 66.7808 25.6409 66.9379 20.0258C67.1342 14.4107 62.8935 9.6987 57.5139 9.50237C52.1344 9.3453 47.5795 13.7431 47.4225 19.3583Z" fill="url(#paint16_radial_8951_27437)"/>
<path d="M56.5322 39.3848C58.6133 39.4633 60.6159 30.7069 60.9693 19.8301C61.3227 8.95328 59.9091 0.0790571 57.828 0.000524145C55.7468 -0.0780088 53.7442 8.67841 53.3908 19.5552C53.0374 30.4321 54.451 39.3063 56.5322 39.3848Z" fill="url(#paint17_radial_8951_27437)"/>
<path d="M37.567 19.0444C37.4884 21.1255 46.2449 23.1281 57.0824 23.4815C67.92 23.8349 76.7549 22.4605 76.8335 20.3401C76.912 18.259 68.1556 16.2564 57.318 15.903C46.4805 15.5496 37.6455 16.9632 37.567 19.0444Z" fill="url(#paint18_radial_8951_27437)"/>
<path d="M38.509 19.0843C38.4697 20.1837 46.7942 21.3617 57.1213 21.7151C67.4484 22.0685 75.8514 21.4403 75.8514 20.3408C75.8907 19.2414 67.5662 18.0634 57.2391 17.71C46.9513 17.3566 38.5483 17.9848 38.509 19.0843Z" fill="url(#paint19_radial_8951_27437)"/>
<path d="M47.9327 19.3981C47.7757 24.0315 51.8201 27.9189 56.9248 28.076C62.0294 28.2331 66.3095 24.6598 66.4665 20.0264C66.6236 15.3929 62.5791 11.5055 57.4745 11.3485C52.3306 11.1521 48.0898 14.7646 47.9327 19.3981Z" fill="url(#paint20_radial_8951_27437)"/>
<path d="M56.5725 38.443C57.6719 38.4823 58.8499 30.1185 59.1641 19.7522C59.5175 9.3858 58.8892 0.982764 57.7897 0.943497C56.6903 0.904231 55.5123 9.26801 55.1982 19.6344C54.8448 30.0007 55.473 38.4037 56.5725 38.443Z" fill="url(#paint21_radial_8951_27437)"/>
<path d="M69.2562 102.601C69.2955 105.978 71.9263 108.726 75.1854 108.687C78.4445 108.687 81.0361 105.899 81.0361 102.522C80.9969 99.1454 78.366 96.3967 75.1069 96.436C71.8478 96.4752 69.2169 99.2239 69.2562 102.601Z" fill="url(#paint22_radial_8951_27437)"/>
<path d="M75.1867 114.42C76.4432 114.42 77.4248 109.119 77.3856 102.561C77.3463 96.0432 76.2861 90.7422 75.0296 90.7422C73.7731 90.7422 72.7914 96.0432 72.8307 102.601C72.8699 109.119 73.9301 114.42 75.1867 114.42Z" fill="url(#paint23_radial_8951_27437)"/>
<path d="M63.3256 102.641C63.3256 103.898 68.6266 104.88 75.1449 104.84C81.6631 104.801 86.9248 103.741 86.9248 102.484C86.9248 101.228 81.6238 100.246 75.1056 100.285C68.5873 100.325 63.3256 101.385 63.3256 102.641Z" fill="url(#paint24_radial_8951_27437)"/>
<path d="M63.8775 102.642C63.8775 103.31 68.9036 103.82 75.1077 103.781C81.3118 103.742 86.3379 103.192 86.3379 102.525C86.3379 101.857 81.3118 101.347 75.1077 101.386C68.9036 101.425 63.8775 101.975 63.8775 102.642Z" fill="url(#paint25_radial_8951_27437)"/>
<path d="M69.5692 102.603C69.5692 105.391 72.0823 107.629 75.1451 107.59C78.2079 107.59 80.6816 105.312 80.6816 102.524C80.6816 99.7365 78.1686 97.4984 75.1058 97.5376C72.0037 97.5769 69.53 99.8151 69.5692 102.603Z" fill="url(#paint26_radial_8951_27437)"/>
<path d="M75.1841 113.833C75.8516 113.833 76.3621 108.768 76.3228 102.563C76.2836 96.3593 75.7338 91.2939 75.0663 91.2939C74.3988 91.2939 73.8883 96.3593 73.9276 102.563C73.9668 108.807 74.5166 113.833 75.1841 113.833Z" fill="url(#paint27_radial_8951_27437)"/>
<path d="M21.3876 53.8334C21.4268 57.2103 24.097 59.9197 27.3561 59.8805C30.6152 59.8412 33.2068 57.0533 33.1675 53.6764C33.1283 50.2995 30.4581 47.5901 27.199 47.6293C23.9399 47.6686 21.3483 50.4565 21.3876 53.8334Z" fill="url(#paint28_radial_8951_27437)"/>
<path d="M27.4356 65.6132C28.6921 65.6132 29.6345 60.273 29.556 53.7548C29.4774 47.2365 28.378 41.9355 27.1214 41.9355C25.8649 41.9355 24.9225 47.2758 25.0011 53.794C25.0796 60.3515 26.179 65.6132 27.4356 65.6132Z" fill="url(#paint29_radial_8951_27437)"/>
<path d="M15.4594 53.9108C15.4594 55.1673 20.7604 56.1097 27.2786 56.0312C33.7969 55.9526 39.0586 54.8532 39.0586 53.5967C39.0586 52.3401 33.7576 51.3977 27.2394 51.4763C20.7211 51.5548 15.4594 52.6543 15.4594 53.9108Z" fill="url(#paint30_radial_8951_27437)"/>
<path d="M16.0483 53.911C16.0483 54.5785 21.0745 55.0497 27.2786 54.9712C33.4827 54.8927 38.5088 54.3037 38.5088 53.6361C38.5088 52.9686 33.4827 52.4974 27.2786 52.5759C21.0745 52.6545 16.0091 53.2435 16.0483 53.911Z" fill="url(#paint31_radial_8951_27437)"/>
<path d="M21.7026 53.8356C21.7418 56.6236 24.2549 58.8225 27.3177 58.7832C30.3804 58.744 32.8542 56.4665 32.815 53.6786C32.7757 50.8907 30.2627 48.6917 27.1999 48.731C24.1371 48.7703 21.6633 51.0477 21.7026 53.8356Z" fill="url(#paint32_radial_8951_27437)"/>
<path d="M27.3968 65.0241C28.0644 65.0241 28.5356 59.9587 28.457 53.7546C28.3785 47.5505 27.7895 42.4851 27.122 42.4851C26.4544 42.4851 25.9832 47.5505 26.0618 53.7546C26.1403 59.9979 26.7686 65.0633 27.3968 65.0241Z" fill="url(#paint33_radial_8951_27437)"/>
<defs>
<linearGradient id="paint0_linear_8951_27437" x1="-2.85362" y1="59.5447" x2="88.7843" y2="115.328" gradientUnits="userSpaceOnUse">
<stop stop-color="#D2AB5A"/>
<stop offset="0.0610851" stop-color="#BA9443"/>
<stop offset="0.1898" stop-color="#7C5808"/>
<stop offset="0.2069" stop-color="#735000"/>
<stop offset="0.2274" stop-color="#775200"/>
<stop offset="0.3376" stop-color="#8A5D00"/>
<stop offset="0.4146" stop-color="#916100"/>
<stop offset="0.4344" stop-color="#976707"/>
<stop offset="0.4986" stop-color="#D8B364"/>
<stop offset="0.5246" stop-color="#D4AE5D"/>
<stop offset="0.5617" stop-color="#CA9F4A"/>
<stop offset="0.6053" stop-color="#B9882C"/>
<stop offset="0.6414" stop-color="#A8700D"/>
<stop offset="0.6805" stop-color="#815400"/>
<stop offset="0.8029" stop-color="#B38116"/>
<stop offset="0.8267" stop-color="#A27114"/>
<stop offset="0.8802" stop-color="#815110"/>
<stop offset="0.9247" stop-color="#6C3D0E"/>
<stop offset="0.9545" stop-color="#65360D"/>
<stop offset="0.9581" stop-color="#6F3F0D"/>
<stop offset="0.9701" stop-color="#8A580C"/>
<stop offset="0.9807" stop-color="#9B670C"/>
<stop offset="0.9886" stop-color="#A16C0C"/>
</linearGradient>
<linearGradient id="paint1_linear_8951_27437" x1="102.486" y1="65.887" x2="-23.2111" y2="57.665" gradientUnits="userSpaceOnUse">
<stop stop-color="#D7AC4C"/>
<stop offset="0.1816" stop-color="#FFFFB0"/>
<stop offset="0.3268" stop-color="#F4D174"/>
<stop offset="0.3659" stop-color="#FBED99"/>
<stop offset="0.3939" stop-color="#FAEC97"/>
<stop offset="0.433" stop-color="#DEB04D"/>
<stop offset="0.5275" stop-color="#DFB24F"/>
<stop offset="0.5615" stop-color="#E2B756"/>
<stop offset="0.5858" stop-color="#E7C161"/>
<stop offset="0.6053" stop-color="#EECF72"/>
<stop offset="0.6207" stop-color="#F6DF86"/>
<stop offset="0.7529" stop-color="#F2D87E"/>
<stop offset="0.7672" stop-color="#F1D77D"/>
<stop offset="0.7716" stop-color="#EBCD71"/>
<stop offset="0.7804" stop-color="#E2BE60"/>
<stop offset="0.7913" stop-color="#DCB455"/>
<stop offset="0.8066" stop-color="#D8AE4E"/>
<stop offset="0.8492" stop-color="#D7AC4C"/>
<stop offset="1" stop-color="#966424"/>
</linearGradient>
<linearGradient id="paint2_linear_8951_27437" x1="135.935" y1="65.0238" x2="-20.1895" y2="60.8391" gradientUnits="userSpaceOnUse">
<stop stop-color="#D7AC4C"/>
<stop offset="0.1816" stop-color="#FFFFB0"/>
<stop offset="0.3268" stop-color="#F4D174"/>
<stop offset="0.3659" stop-color="#FBED99"/>
<stop offset="0.3939" stop-color="#FAEC97"/>
<stop offset="0.433" stop-color="#DEB04D"/>
<stop offset="0.5275" stop-color="#DFB24F"/>
<stop offset="0.5615" stop-color="#E2B756"/>
<stop offset="0.5858" stop-color="#E7C161"/>
<stop offset="0.6053" stop-color="#EECF72"/>
<stop offset="0.6207" stop-color="#F6DF86"/>
<stop offset="0.7529" stop-color="#F2D87E"/>
<stop offset="0.7672" stop-color="#F1D77D"/>
<stop offset="0.7716" stop-color="#EBCD71"/>
<stop offset="0.7804" stop-color="#E2BE60"/>
<stop offset="0.7913" stop-color="#DCB455"/>
<stop offset="0.8066" stop-color="#D8AE4E"/>
<stop offset="0.8492" stop-color="#D7AC4C"/>
<stop offset="1" stop-color="#966424"/>
</linearGradient>
<linearGradient id="paint3_linear_8951_27437" x1="78.031" y1="62.5601" x2="23.8425" y2="50.82" gradientUnits="userSpaceOnUse">
<stop stop-color="#A16C0C"/>
<stop offset="0.2318" stop-color="#BE9134"/>
<stop offset="0.5559" stop-color="#A8700D"/>
<stop offset="1" stop-color="#432400"/>
</linearGradient>
<linearGradient id="paint4_linear_8951_27437" x1="91.3082" y1="80.7068" x2="75.1001" y2="73.9485" gradientUnits="userSpaceOnUse">
<stop stop-color="#A16C0C"/>
<stop offset="0.2318" stop-color="#BE9134"/>
<stop offset="0.5559" stop-color="#A8700D"/>
<stop offset="1" stop-color="#432400"/>
</linearGradient>
<linearGradient id="paint5_linear_8951_27437" x1="86.751" y1="60.4656" x2="10.4511" y2="16.2675" gradientUnits="userSpaceOnUse">
<stop stop-color="#D2AB5A"/>
<stop offset="0.0610851" stop-color="#BA9443"/>
<stop offset="0.1898" stop-color="#7C5808"/>
<stop offset="0.2069" stop-color="#735000"/>
<stop offset="0.2274" stop-color="#775200"/>
<stop offset="0.3376" stop-color="#8A5D00"/>
<stop offset="0.4146" stop-color="#916100"/>
<stop offset="0.4344" stop-color="#976707"/>
<stop offset="0.4986" stop-color="#D8B364"/>
<stop offset="0.5246" stop-color="#D4AE5D"/>
<stop offset="0.5617" stop-color="#CA9F4A"/>
<stop offset="0.6053" stop-color="#B9882C"/>
<stop offset="0.6414" stop-color="#A8700D"/>
<stop offset="0.6805" stop-color="#815400"/>
<stop offset="0.8029" stop-color="#B38116"/>
<stop offset="0.8267" stop-color="#A27114"/>
<stop offset="0.8802" stop-color="#815110"/>
<stop offset="0.9247" stop-color="#6C3D0E"/>
<stop offset="0.9545" stop-color="#65360D"/>
<stop offset="0.9581" stop-color="#6F3F0D"/>
<stop offset="0.9701" stop-color="#8A580C"/>
<stop offset="0.9807" stop-color="#9B670C"/>
<stop offset="0.9886" stop-color="#A16C0C"/>
</linearGradient>
<linearGradient id="paint6_linear_8951_27437" x1="60.2649" y1="59.2654" x2="43.0909" y2="55.2608" gradientUnits="userSpaceOnUse">
<stop stop-color="#A16C0C"/>
<stop offset="0.2318" stop-color="#BE9134"/>
<stop offset="0.5559" stop-color="#A8700D"/>
<stop offset="1" stop-color="#432400"/>
</linearGradient>
<linearGradient id="paint7_linear_8951_27437" x1="74.583" y1="74.0684" x2="59.938" y2="68.6307" gradientUnits="userSpaceOnUse">
<stop stop-color="#A16C0C"/>
<stop offset="0.2318" stop-color="#BE9134"/>
<stop offset="0.4314" stop-color="#A8700D"/>
<stop offset="1" stop-color="#432400"/>
</linearGradient>
<linearGradient id="paint8_linear_8951_27437" x1="62.096" y1="70.2708" x2="40.2828" y2="61.0406" gradientUnits="userSpaceOnUse">
<stop stop-color="#A16C0C"/>
<stop offset="0.2318" stop-color="#BE9134"/>
<stop offset="0.5559" stop-color="#A8700D"/>
<stop offset="1" stop-color="#432400"/>
</linearGradient>
<linearGradient id="paint9_linear_8951_27437" x1="18.2798" y1="53.4422" x2="35.8445" y2="59.6069" gradientUnits="userSpaceOnUse">
<stop stop-color="#A16C0C"/>
<stop offset="0.2318" stop-color="#BE9134"/>
<stop offset="0.5559" stop-color="#A8700D"/>
<stop offset="1" stop-color="#432400"/>
</linearGradient>
<linearGradient id="paint10_linear_8951_27437" x1="74.633" y1="78.2455" x2="20.4423" y2="66.5049" gradientUnits="userSpaceOnUse">
<stop stop-color="#A16C0C"/>
<stop offset="0.2318" stop-color="#BE9134"/>
<stop offset="0.5559" stop-color="#A8700D"/>
<stop offset="1" stop-color="#432400"/>
</linearGradient>
<linearGradient id="paint11_linear_8951_27437" x1="-22.7593" y1="52.5455" x2="110.989" y2="70.6037" gradientUnits="userSpaceOnUse">
<stop stop-color="#D7AC4C"/>
<stop offset="0.1816" stop-color="#FFFFB0"/>
<stop offset="0.3268" stop-color="#F4D174"/>
<stop offset="0.3659" stop-color="#FBED99"/>
<stop offset="0.3939" stop-color="#FAEC97"/>
<stop offset="0.433" stop-color="#DEB04D"/>
<stop offset="0.5275" stop-color="#DFB24F"/>
<stop offset="0.5615" stop-color="#E2B756"/>
<stop offset="0.5858" stop-color="#E7C161"/>
<stop offset="0.6053" stop-color="#EECF72"/>
<stop offset="0.6207" stop-color="#F6DF86"/>
<stop offset="0.7529" stop-color="#F2D87E"/>
<stop offset="0.7672" stop-color="#F1D77D"/>
<stop offset="0.7716" stop-color="#EBCD71"/>
<stop offset="0.7804" stop-color="#E2BE60"/>
<stop offset="0.7913" stop-color="#DCB455"/>
<stop offset="0.8066" stop-color="#D8AE4E"/>
<stop offset="0.8492" stop-color="#D7AC4C"/>
<stop offset="1" stop-color="#966424"/>
</linearGradient>
<linearGradient id="paint12_linear_8951_27437" x1="68.5169" y1="46.3951" x2="46.2025" y2="78.5592" gradientUnits="userSpaceOnUse">
<stop stop-color="#D7AC4C"/>
<stop offset="0.1816" stop-color="#FFFFB0"/>
<stop offset="0.3268" stop-color="#F4D174"/>
<stop offset="0.433" stop-color="#DEB04D"/>
<stop offset="0.7067" stop-color="#F6DF86"/>
<stop offset="0.8492" stop-color="#D7AC4C"/>
<stop offset="1" stop-color="#966424"/>
</linearGradient>
<linearGradient id="paint13_linear_8951_27437" x1="29.5523" y1="68.8869" x2="43.4263" y2="72.373" gradientUnits="userSpaceOnUse">
<stop stop-color="#A16C0C"/>
<stop offset="0.2318" stop-color="#BE9134"/>
<stop offset="0.5559" stop-color="#A8700D"/>
<stop offset="1" stop-color="#432400"/>
</linearGradient>
<linearGradient id="paint14_linear_8951_27437" x1="75.5654" y1="73.9261" x2="21.3777" y2="62.1862" gradientUnits="userSpaceOnUse">
<stop stop-color="#A16C0C"/>
<stop offset="0.2318" stop-color="#BE9134"/>
<stop offset="0.5559" stop-color="#A8700D"/>
<stop offset="1" stop-color="#432400"/>
</linearGradient>
<linearGradient id="paint15_linear_8951_27437" x1="100.95" y1="64.0864" x2="12.8114" y2="61.7239" gradientUnits="userSpaceOnUse">
<stop stop-color="#D7AC4C"/>
<stop offset="0.1816" stop-color="#FFFFB0"/>
<stop offset="0.3268" stop-color="#F4D174"/>
<stop offset="0.433" stop-color="#DEB04D"/>
<stop offset="0.7067" stop-color="#F6DF86"/>
<stop offset="0.8492" stop-color="#D7AC4C"/>
<stop offset="1" stop-color="#966424"/>
</linearGradient>
<radialGradient id="paint16_radial_8951_27437" cx="0" cy="0" r="1" gradientUnits="userSpaceOnUse" gradientTransform="translate(57.1856 19.7047) rotate(-178.078) scale(9.78197 10.2016)">
<stop stop-color="white"/>
<stop offset="0.1392" stop-color="#FFF4E1" stop-opacity="0.8608"/>
<stop offset="0.4329" stop-color="#FFE0A8" stop-opacity="0.5671"/>
<stop offset="0.6847" stop-color="#FFD17E" stop-opacity="0.3153"/>
<stop offset="0.8819" stop-color="#FFC864" stop-opacity="0.1181"/>
<stop offset="1" stop-color="#FFC55B" stop-opacity="0"/>
</radialGradient>
<radialGradient id="paint17_radial_8951_27437" cx="0" cy="0" r="1" gradientUnits="userSpaceOnUse" gradientTransform="translate(57.1853 19.7059) rotate(91.8785) scale(19.6976 3.77979)">
<stop stop-color="white"/>
<stop offset="0.1392" stop-color="#FFF4E1" stop-opacity="0.8608"/>
<stop offset="0.4329" stop-color="#FFE0A8" stop-opacity="0.5671"/>
<stop offset="0.6847" stop-color="#FFD17E" stop-opacity="0.3153"/>
<stop offset="0.8819" stop-color="#FFC864" stop-opacity="0.1181"/>
<stop offset="1" stop-color="#FFC55B" stop-opacity="0"/>
</radialGradient>
<radialGradient id="paint18_radial_8951_27437" cx="0" cy="0" r="1" gradientUnits="userSpaceOnUse" gradientTransform="translate(57.1861 19.7051) rotate(-178.077) scale(19.6338 3.79211)">
<stop stop-color="white"/>
<stop offset="0.1392" stop-color="#FFF4E1" stop-opacity="0.8608"/>
<stop offset="0.4329" stop-color="#FFE0A8" stop-opacity="0.5671"/>
<stop offset="0.6847" stop-color="#FFD17E" stop-opacity="0.3153"/>
<stop offset="0.8819" stop-color="#FFC864" stop-opacity="0.1181"/>
<stop offset="1" stop-color="#FFC55B" stop-opacity="0"/>
</radialGradient>
<radialGradient id="paint19_radial_8951_27437" cx="0" cy="0" r="1" gradientUnits="userSpaceOnUse" gradientTransform="translate(57.1851 19.7057) rotate(-178.077) scale(18.6929 1.99184)">
<stop stop-color="white"/>
<stop offset="0.1594" stop-color="#FFF0D5" stop-opacity="0.8406"/>
<stop offset="0.3495" stop-color="#FFE1A9" stop-opacity="0.6505"/>
<stop offset="0.5337" stop-color="#FFD587" stop-opacity="0.4663"/>
<stop offset="0.7078" stop-color="#FFCC6F" stop-opacity="0.2922"/>
<stop offset="0.8677" stop-color="#FFC760" stop-opacity="0.1323"/>
<stop offset="1" stop-color="#FFC55B" stop-opacity="0"/>
</radialGradient>
<radialGradient id="paint20_radial_8951_27437" cx="0" cy="0" r="1" gradientUnits="userSpaceOnUse" gradientTransform="translate(57.1848 19.7053) rotate(-178.077) scale(9.2625 8.37118)">
<stop stop-color="white"/>
<stop offset="0.1594" stop-color="#FFF0D5" stop-opacity="0.8406"/>
<stop offset="0.3495" stop-color="#FFE1A9" stop-opacity="0.6505"/>
<stop offset="0.5337" stop-color="#FFD587" stop-opacity="0.4663"/>
<stop offset="0.7078" stop-color="#FFCC6F" stop-opacity="0.2922"/>
<stop offset="0.8677" stop-color="#FFC760" stop-opacity="0.1323"/>
<stop offset="1" stop-color="#FFC55B" stop-opacity="0"/>
</radialGradient>
<radialGradient id="paint21_radial_8951_27437" cx="0" cy="0" r="1" gradientUnits="userSpaceOnUse" gradientTransform="translate(57.1863 19.7054) rotate(91.8781) scale(18.7545 1.98531)">
<stop stop-color="white"/>
<stop offset="0.1123" stop-color="#FFF1D7" stop-opacity="0.8877"/>
<stop offset="0.2389" stop-color="#FFE3B1" stop-opacity="0.7611"/>
<stop offset="0.3711" stop-color="#FFD892" stop-opacity="0.6289"/>
<stop offset="0.5084" stop-color="#FFD07A" stop-opacity="0.4916"/>
<stop offset="0.6529" stop-color="#FFCA68" stop-opacity="0.3471"/>
<stop offset="0.8095" stop-color="#FFC65E" stop-opacity="0.1905"/>
<stop offset="1" stop-color="#FFC55B" stop-opacity="0"/>
</radialGradient>
<radialGradient id="paint22_radial_8951_27437" cx="0" cy="0" r="1" gradientUnits="userSpaceOnUse" gradientTransform="translate(75.1187 102.576) rotate(179.702) scale(5.87744 6.12965)">
<stop stop-color="white"/>
<stop offset="0.1392" stop-color="#FFF4E1" stop-opacity="0.8608"/>
<stop offset="0.4329" stop-color="#FFE0A8" stop-opacity="0.5671"/>
<stop offset="0.6847" stop-color="#FFD17E" stop-opacity="0.3153"/>
<stop offset="0.8819" stop-color="#FFC864" stop-opacity="0.1181"/>
<stop offset="1" stop-color="#FFC55B" stop-opacity="0"/>
</radialGradient>
<radialGradient id="paint23_radial_8951_27437" cx="0" cy="0" r="1" gradientUnits="userSpaceOnUse" gradientTransform="translate(75.12 102.575) rotate(89.656) scale(11.8351 2.2711)">
<stop stop-color="white"/>
<stop offset="0.1392" stop-color="#FFF4E1" stop-opacity="0.8608"/>
<stop offset="0.4329" stop-color="#FFE0A8" stop-opacity="0.5671"/>
<stop offset="0.6847" stop-color="#FFD17E" stop-opacity="0.3153"/>
<stop offset="0.8819" stop-color="#FFC864" stop-opacity="0.1181"/>
<stop offset="1" stop-color="#FFC55B" stop-opacity="0"/>
</radialGradient>
<radialGradient id="paint24_radial_8951_27437" cx="0" cy="0" r="1" gradientUnits="userSpaceOnUse" gradientTransform="translate(75.1165 102.577) rotate(179.701) scale(11.797 2.27843)">
<stop stop-color="white"/>
<stop offset="0.1392" stop-color="#FFF4E1" stop-opacity="0.8608"/>
<stop offset="0.4329" stop-color="#FFE0A8" stop-opacity="0.5671"/>
<stop offset="0.6847" stop-color="#FFD17E" stop-opacity="0.3153"/>
<stop offset="0.8819" stop-color="#FFC864" stop-opacity="0.1181"/>
<stop offset="1" stop-color="#FFC55B" stop-opacity="0"/>
</radialGradient>
<radialGradient id="paint25_radial_8951_27437" cx="0" cy="0" r="1" gradientUnits="userSpaceOnUse" gradientTransform="translate(75.1202 102.578) rotate(179.701) scale(11.2315 1.19678)">
<stop stop-color="white"/>
<stop offset="0.1594" stop-color="#FFF0D5" stop-opacity="0.8406"/>
<stop offset="0.3495" stop-color="#FFE1A9" stop-opacity="0.6505"/>
<stop offset="0.5337" stop-color="#FFD587" stop-opacity="0.4663"/>
<stop offset="0.7078" stop-color="#FFCC6F" stop-opacity="0.2922"/>
<stop offset="0.8677" stop-color="#FFC760" stop-opacity="0.1323"/>
<stop offset="1" stop-color="#FFC55B" stop-opacity="0"/>
</radialGradient>
<radialGradient id="paint26_radial_8951_27437" cx="0" cy="0" r="1" gradientUnits="userSpaceOnUse" gradientTransform="translate(75.1176 102.578) rotate(179.701) scale(5.56535 5.02979)">
<stop stop-color="white"/>
<stop offset="0.1594" stop-color="#FFF0D5" stop-opacity="0.8406"/>
<stop offset="0.3495" stop-color="#FFE1A9" stop-opacity="0.6505"/>
<stop offset="0.5337" stop-color="#FFD587" stop-opacity="0.4663"/>
<stop offset="0.7078" stop-color="#FFCC6F" stop-opacity="0.2922"/>
<stop offset="0.8677" stop-color="#FFC760" stop-opacity="0.1323"/>
<stop offset="1" stop-color="#FFC55B" stop-opacity="0"/>
</radialGradient>
<radialGradient id="paint27_radial_8951_27437" cx="0" cy="0" r="1" gradientUnits="userSpaceOnUse" gradientTransform="translate(75.1173 102.579) rotate(89.6562) scale(11.268 1.19287)">
<stop stop-color="white"/>
<stop offset="0.1123" stop-color="#FFF1D7" stop-opacity="0.8877"/>
<stop offset="0.2389" stop-color="#FFE3B1" stop-opacity="0.7611"/>
<stop offset="0.3711" stop-color="#FFD892" stop-opacity="0.6289"/>
<stop offset="0.5084" stop-color="#FFD07A" stop-opacity="0.4916"/>
<stop offset="0.6529" stop-color="#FFCA68" stop-opacity="0.3471"/>
<stop offset="0.8095" stop-color="#FFC65E" stop-opacity="0.1905"/>
<stop offset="1" stop-color="#FFC55B" stop-opacity="0"/>
</radialGradient>
<radialGradient id="paint28_radial_8951_27437" cx="0" cy="0" r="1" gradientUnits="userSpaceOnUse" gradientTransform="translate(27.2605 53.7685) rotate(179.274) scale(5.87734 6.12959)">
<stop stop-color="white"/>
<stop offset="0.1392" stop-color="#FFF4E1" stop-opacity="0.8608"/>
<stop offset="0.4329" stop-color="#FFE0A8" stop-opacity="0.5671"/>
<stop offset="0.6847" stop-color="#FFD17E" stop-opacity="0.3153"/>
<stop offset="0.8819" stop-color="#FFC864" stop-opacity="0.1181"/>
<stop offset="1" stop-color="#FFC55B" stop-opacity="0"/>
</radialGradient>
<radialGradient id="paint29_radial_8951_27437" cx="0" cy="0" r="1" gradientUnits="userSpaceOnUse" gradientTransform="translate(27.2613 53.7685) rotate(89.2297) scale(11.8352 2.27106)">
<stop stop-color="white"/>
<stop offset="0.1392" stop-color="#FFF4E1" stop-opacity="0.8608"/>
<stop offset="0.4329" stop-color="#FFE0A8" stop-opacity="0.5671"/>
<stop offset="0.6847" stop-color="#FFD17E" stop-opacity="0.3153"/>
<stop offset="0.8819" stop-color="#FFC864" stop-opacity="0.1181"/>
<stop offset="1" stop-color="#FFC55B" stop-opacity="0"/>
</radialGradient>
<radialGradient id="paint30_radial_8951_27437" cx="0" cy="0" r="1" gradientUnits="userSpaceOnUse" gradientTransform="translate(27.2612 53.7673) rotate(179.274) scale(11.7964 2.2785)">
<stop stop-color="white"/>
<stop offset="0.1392" stop-color="#FFF4E1" stop-opacity="0.8608"/>
<stop offset="0.4329" stop-color="#FFE0A8" stop-opacity="0.5671"/>
<stop offset="0.6847" stop-color="#FFD17E" stop-opacity="0.3153"/>
<stop offset="0.8819" stop-color="#FFC864" stop-opacity="0.1181"/>
<stop offset="1" stop-color="#FFC55B" stop-opacity="0"/>
</radialGradient>
<radialGradient id="paint31_radial_8951_27437" cx="0" cy="0" r="1" gradientUnits="userSpaceOnUse" gradientTransform="translate(27.2604 53.7675) rotate(179.275) scale(11.2315 1.19677)">
<stop stop-color="white"/>
<stop offset="0.1594" stop-color="#FFF0D5" stop-opacity="0.8406"/>
<stop offset="0.3495" stop-color="#FFE1A9" stop-opacity="0.6505"/>
<stop offset="0.5337" stop-color="#FFD587" stop-opacity="0.4663"/>
<stop offset="0.7078" stop-color="#FFCC6F" stop-opacity="0.2922"/>
<stop offset="0.8677" stop-color="#FFC760" stop-opacity="0.1323"/>
<stop offset="1" stop-color="#FFC55B" stop-opacity="0"/>
</radialGradient>
<radialGradient id="paint32_radial_8951_27437" cx="0" cy="0" r="1" gradientUnits="userSpaceOnUse" gradientTransform="translate(27.2609 53.7707) rotate(179.275) scale(5.56519 5.02963)">
<stop stop-color="white"/>
<stop offset="0.1594" stop-color="#FFF0D5" stop-opacity="0.8406"/>
<stop offset="0.3495" stop-color="#FFE1A9" stop-opacity="0.6505"/>
<stop offset="0.5337" stop-color="#FFD587" stop-opacity="0.4663"/>
<stop offset="0.7078" stop-color="#FFCC6F" stop-opacity="0.2922"/>
<stop offset="0.8677" stop-color="#FFC760" stop-opacity="0.1323"/>
<stop offset="1" stop-color="#FFC55B" stop-opacity="0"/>
</radialGradient>
<radialGradient id="paint33_radial_8951_27437" cx="0" cy="0" r="1" gradientUnits="userSpaceOnUse" gradientTransform="translate(27.2619 53.768) rotate(89.2298) scale(11.268 1.19285)">
<stop stop-color="white"/>
<stop offset="0.1123" stop-color="#FFF1D7" stop-opacity="0.8877"/>
<stop offset="0.2389" stop-color="#FFE3B1" stop-opacity="0.7611"/>
<stop offset="0.3711" stop-color="#FFD892" stop-opacity="0.6289"/>
<stop offset="0.5084" stop-color="#FFD07A" stop-opacity="0.4916"/>
<stop offset="0.6529" stop-color="#FFCA68" stop-opacity="0.3471"/>
<stop offset="0.8095" stop-color="#FFC65E" stop-opacity="0.1905"/>
<stop offset="1" stop-color="#FFC55B" stop-opacity="0"/>
</radialGradient>
</defs>
</svg>
