<svg width="58" height="16" viewBox="0 0 58 16" fill="none" xmlns="http://www.w3.org/2000/svg">
<path d="M16.4163 6.93076C16.3854 6.35185 16.2661 5.79904 16.0751 5.28769C15.8434 4.67038 15.5078 4.11297 15.0879 3.64461C14.9489 3.48798 14.8 3.3421 14.6427 3.20543C14.5023 3.08412 14.3549 2.97049 14.2018 2.86761C13.4969 2.39157 12.6698 2.1167 11.7823 2.1167C11.4439 2.1167 11.1139 2.15663 10.7979 2.23341L10.6954 2.25951L8.28715 2.86761H8.23379C8.09337 2.86761 7.96839 2.78776 7.89958 2.66644C7.89958 2.66644 7.89958 2.66644 7.89958 2.66491C7.88694 2.64341 7.87571 2.62038 7.86728 2.59581L7.69877 2.23648C7.69877 2.23648 7.69456 2.22727 7.69175 2.22266C7.62435 2.08906 7.49516 2 7.3449 2C7.31963 2 7.29435 2.00307 7.27048 2.00768L7.22274 2.0215L7.14129 2.04607L4.33421 2.86914L4 2.96742V13.7764L4.93242 13.5031L7.14269 12.8566L10.0481 12.0059L10.5452 11.86L11.677 11.5298C11.6896 11.5252 11.7023 11.5222 11.7149 11.5191C11.7402 11.513 11.7683 11.5114 11.7949 11.5114C11.9452 11.5114 12.0758 11.6035 12.1432 11.7387L12.2022 11.8615L12.2878 12.0443C12.2878 12.0443 12.2935 12.055 12.2949 12.0596C12.3623 12.1932 12.4929 12.2823 12.6417 12.2823C12.6642 12.2823 12.6852 12.2807 12.7063 12.2761C12.7091 12.2761 12.7119 12.2761 12.7133 12.2746C12.7189 12.2746 12.7232 12.2731 12.7288 12.2715C13.1107 12.184 13.4744 12.0443 13.8171 11.86C14.4448 11.5222 14.9938 11.0308 15.4235 10.4319C15.4741 10.3613 15.5232 10.2891 15.5695 10.2169C15.8855 9.72553 16.1256 9.17272 16.2689 8.57538C16.3587 8.20837 16.4107 7.82601 16.4233 7.42983C16.4261 7.36994 16.4261 7.30852 16.4261 7.24709C16.4261 7.14114 16.4233 7.03518 16.4163 6.93076ZM12.7203 8.51242C12.7077 8.53392 12.6937 8.55388 12.681 8.57538C12.3847 9.01916 11.955 9.34931 11.4551 9.48598C11.4439 9.48905 11.4327 9.49212 11.4214 9.49519C11.42 9.49673 11.4172 9.49826 11.4144 9.49673H11.4116C11.3877 9.50133 11.3624 9.5044 11.3372 9.5044C11.2066 9.5044 11.09 9.4353 11.0198 9.32781L11.0296 9.34931C11.0226 9.33703 11.0156 9.32474 11.0086 9.31246C11.0058 9.30939 11.003 9.30478 11.0016 9.30017C10.9285 9.19268 10.8134 9.12358 10.6814 9.12358C10.6561 9.12358 10.6308 9.12665 10.607 9.13126C10.5915 9.13433 10.5747 9.13894 10.5592 9.14508L9.96803 9.3186L7.83639 9.94358L7.1441 10.1463V5.40286L7.48954 5.30151L7.53307 5.28922L8.62276 4.96982C8.6354 4.96522 8.64804 4.96214 8.66208 4.95907C8.68736 4.95293 8.71404 4.95139 8.74072 4.95139C8.86149 4.95139 8.96961 5.00975 9.04263 5.10342C9.04263 5.10342 9.04263 5.10393 9.04263 5.10495C9.05246 5.11724 9.06089 5.12952 9.06791 5.14181C9.12548 5.21705 9.20552 5.2708 9.2968 5.28922C9.32067 5.29383 9.34454 5.2969 9.37123 5.2969C9.39791 5.2969 9.42178 5.29383 9.44565 5.28922C9.50744 5.27694 9.56361 5.24776 9.61135 5.20784C9.97645 4.90533 10.43 4.7272 10.9201 4.7272C11.4537 4.7272 11.9424 4.93757 12.3229 5.28922C12.7569 5.69001 13.0489 6.27353 13.0995 6.9323C13.1051 7.0014 13.1079 7.07204 13.1079 7.14267C13.1079 7.65249 12.9647 8.12391 12.7217 8.51242H12.7203Z" fill="white"/>
<mask id="mask0_336_185" style="mask-type:alpha" maskUnits="userSpaceOnUse" x="4" y="2" width="13" height="12">
<path d="M16.4163 6.93076C16.3854 6.35185 16.2661 5.79904 16.0751 5.28769C15.8434 4.67038 15.5078 4.11297 15.0879 3.64461C14.9489 3.48798 14.8 3.3421 14.6427 3.20543C14.5023 3.08412 14.3549 2.97049 14.2018 2.86761C13.4969 2.39157 12.6698 2.1167 11.7823 2.1167C11.4439 2.1167 11.1139 2.15663 10.7979 2.23341L10.6954 2.25951L8.28715 2.86761H8.23379C8.09337 2.86761 7.96839 2.78776 7.89958 2.66644C7.89958 2.66644 7.89958 2.66644 7.89958 2.66491C7.88694 2.64341 7.87571 2.62038 7.86728 2.59581L7.69877 2.23648C7.69877 2.23648 7.69456 2.22727 7.69175 2.22266C7.62435 2.08906 7.49516 2 7.3449 2C7.31963 2 7.29435 2.00307 7.27048 2.00768L7.22274 2.0215L7.14129 2.04607L4.33421 2.86914L4 2.96742V13.7764L4.93242 13.5031L7.14269 12.8566L10.0481 12.0059L10.5452 11.86L11.677 11.5298C11.6896 11.5252 11.7023 11.5222 11.7149 11.5191C11.7402 11.513 11.7683 11.5114 11.7949 11.5114C11.9452 11.5114 12.0758 11.6035 12.1432 11.7387L12.2022 11.8615L12.2878 12.0443C12.2878 12.0443 12.2935 12.055 12.2949 12.0596C12.3623 12.1932 12.4929 12.2823 12.6417 12.2823C12.6642 12.2823 12.6852 12.2807 12.7063 12.2761C12.7091 12.2761 12.7119 12.2761 12.7133 12.2746C12.7189 12.2746 12.7232 12.2731 12.7288 12.2715C13.1107 12.184 13.4744 12.0443 13.8171 11.86C14.4448 11.5222 14.9938 11.0308 15.4235 10.4319C15.4741 10.3613 15.5232 10.2891 15.5695 10.2169C15.8855 9.72553 16.1256 9.17272 16.2689 8.57538C16.3587 8.20837 16.4107 7.82601 16.4233 7.42983C16.4261 7.36994 16.4261 7.30852 16.4261 7.24709C16.4261 7.14114 16.4233 7.03518 16.4163 6.93076ZM12.7203 8.51242C12.7077 8.53392 12.6937 8.55388 12.681 8.57538C12.3847 9.01916 11.955 9.34931 11.4551 9.48598C11.4439 9.48905 11.4327 9.49212 11.4214 9.49519C11.42 9.49673 11.4172 9.49826 11.4144 9.49673H11.4116C11.3877 9.50133 11.3624 9.5044 11.3372 9.5044C11.2066 9.5044 11.09 9.4353 11.0198 9.32781L11.0296 9.34931C11.0226 9.33703 11.0156 9.32474 11.0086 9.31246C11.0058 9.30939 11.003 9.30478 11.0016 9.30017C10.9285 9.19268 10.8134 9.12358 10.6814 9.12358C10.6561 9.12358 10.6308 9.12665 10.607 9.13126C10.5915 9.13433 10.5747 9.13894 10.5592 9.14508L9.96803 9.3186L7.83639 9.94358L7.1441 10.1463V5.40286L7.48954 5.30151L7.53307 5.28922L8.62276 4.96982C8.6354 4.96522 8.64804 4.96214 8.66208 4.95907C8.68736 4.95293 8.71404 4.95139 8.74072 4.95139C8.86149 4.95139 8.96961 5.00975 9.04263 5.10342C9.04263 5.10342 9.04263 5.10393 9.04263 5.10495C9.05246 5.11724 9.06089 5.12952 9.06791 5.14181C9.12548 5.21705 9.20552 5.2708 9.2968 5.28922C9.32067 5.29383 9.34454 5.2969 9.37123 5.2969C9.39791 5.2969 9.42178 5.29383 9.44565 5.28922C9.50744 5.27694 9.56361 5.24776 9.61135 5.20784C9.97645 4.90533 10.43 4.7272 10.9201 4.7272C11.4537 4.7272 11.9424 4.93757 12.3229 5.28922C12.7569 5.69001 13.0489 6.27353 13.0995 6.9323C13.1051 7.0014 13.1079 7.07204 13.1079 7.14267C13.1079 7.65249 12.9647 8.12391 12.7217 8.51242H12.7203Z" fill="white"/>
</mask>
<g mask="url(#mask0_336_185)">
<g style="mix-blend-mode:multiply">
<path d="M12.4613 12.4769L7.32988 1.48161L14.9706 0.294453L18.2129 10.5831L12.4613 12.4769Z" fill="url(#paint0_linear_336_185)"/>
</g>
</g>
<path d="M19.0424 10.7382C18.9938 10.7382 18.9708 10.7075 18.9785 10.6589L19.6588 7.94308L20.2266 5.2733C20.2342 5.22471 20.2649 5.20936 20.3058 5.20936H22.3186C23.8506 5.20936 24.9554 6.07116 24.9554 7.60297C24.9554 9.21405 23.7406 10.7382 21.7406 10.7382H19.0424ZM21.3646 7.94308L21.0245 9.51325H21.7994C22.9375 9.51325 23.2674 8.27297 23.2674 7.55438C23.2674 6.77186 22.8736 6.4343 22.2419 6.4343H21.7355L21.3646 7.94308Z" fill="white"/>
<path d="M28.4234 5.2119H25.9605C25.9222 5.2119 25.8889 5.22725 25.8812 5.27583L25.2649 8.06326L24.6332 10.6614C24.6255 10.71 24.6485 10.7407 24.6971 10.7407H26.3237C26.362 10.7407 26.3953 10.7254 26.403 10.6768L26.7892 8.90716H27.27L27.3799 9.18334L27.9886 10.6845C28.004 10.7151 28.0372 10.7407 28.0756 10.7407H29.7814C29.83 10.7407 29.8607 10.7177 29.8377 10.6614L29.0167 8.74349C29.9656 8.43662 30.4848 7.73337 30.4848 6.83321C30.4848 5.93305 29.8914 5.21446 28.4234 5.21446V5.2119ZM27.9733 7.70524H27.0654L27.3723 6.41126H28.2086C28.6587 6.41126 28.8096 6.64909 28.8096 6.95596C28.8096 7.37535 28.5564 7.70524 27.9733 7.70524Z" fill="white"/>
<path d="M35.3415 5.2119H33.1139C33.0755 5.2119 33.0423 5.22724 33.0269 5.26049L29.963 10.6538C29.94 10.7024 29.9553 10.7407 30.0116 10.7407H31.7635C31.8019 10.7407 31.8274 10.7254 31.8428 10.6845L32.3952 9.60273H34.1803L34.2443 10.6691C34.2443 10.7075 34.2827 10.7407 34.3236 10.7407H35.8555C35.9041 10.7407 35.9271 10.7177 35.9195 10.6691L35.4207 5.28351C35.4207 5.24515 35.3824 5.2119 35.3415 5.2119ZM33.0602 8.27551L33.9757 6.46752L34.0934 8.27551H33.0602Z" fill="white"/>
<path d="M41.39 5.21192H37.4105C37.3722 5.21192 37.3389 5.22726 37.3312 5.27585L36.7558 7.96865L36.0857 10.6615C36.0781 10.71 36.1011 10.7407 36.1497 10.7407H37.7762C37.8146 10.7407 37.8479 10.7254 37.8555 10.6768L38.2826 8.71026H40.5026C40.5409 8.71026 40.5742 8.69491 40.5818 8.64633L40.835 7.5646C40.8427 7.51601 40.8197 7.48533 40.7711 7.48533H38.5691L38.8376 6.43429H41.1266C41.165 6.43429 41.1982 6.41895 41.2059 6.37036L41.4591 5.28863C41.4667 5.24004 41.4437 5.20936 41.3951 5.20936L41.39 5.21192Z" fill="white"/>
<path d="M46.4821 5.2119H41.8146C41.7762 5.2119 41.743 5.22725 41.7353 5.27583L41.4821 6.35756C41.4744 6.40615 41.4974 6.43683 41.546 6.43683H42.991L42.6739 7.94562L41.9936 10.6614C41.9859 10.71 42.0013 10.7407 42.0499 10.7407H43.7148C43.7532 10.7407 43.7864 10.7254 43.7941 10.6768L44.3695 7.94562L44.7481 6.43683H46.2084C46.2468 6.43683 46.28 6.42149 46.2877 6.3729L46.5409 5.29118C46.5485 5.24259 46.5255 5.2119 46.4769 5.2119H46.4821Z" fill="white"/>
<path d="M51.0319 5.21192H48.3209H46.9168C46.8785 5.21192 46.8452 5.22726 46.8375 5.27585L46.2365 8.07094L45.5895 10.6615C45.5818 10.71 45.6048 10.7407 45.6534 10.7407H49.8298C49.8682 10.7407 49.9015 10.7254 49.9091 10.6768L50.1623 9.5874C50.17 9.53881 50.147 9.50813 50.0984 9.50813H47.6278L47.8401 8.46476H50.0191C50.0575 8.46476 50.0907 8.44942 50.0984 8.40083L50.3516 7.31911C50.3592 7.27052 50.3362 7.23983 50.2876 7.23983H48.124L48.3363 6.43429H50.7608C50.7991 6.43429 50.8324 6.41895 50.8401 6.37036L51.0933 5.28863C51.1009 5.24004 51.0779 5.20936 51.0293 5.20936L51.0319 5.21192Z" fill="white"/>
<path d="M55.4998 5.28096L55.9986 10.6666C56.0062 10.7152 55.9832 10.7382 55.9346 10.7382H54.4027C54.3643 10.7382 54.3234 10.7075 54.3234 10.6666L54.2595 9.60019H52.4743L51.9219 10.6819C51.9065 10.7203 51.8835 10.7382 51.8426 10.7382H50.0907C50.0344 10.7382 50.0191 10.6998 50.0421 10.6512L53.106 5.25795C53.1214 5.22726 53.1546 5.20936 53.193 5.20936H55.4206C55.4589 5.20936 55.4998 5.24005 55.4998 5.28096ZM54.0548 6.46753L53.1393 8.27552H54.1725L54.0548 6.46753Z" fill="white"/>
<defs>
<linearGradient id="paint0_linear_336_185" x1="14.0401" y1="5.60839" x2="9.63702" y2="7.91702" gradientUnits="userSpaceOnUse">
<stop stop-color="#D9D9D9" stop-opacity="0"/>
<stop offset="1" stop-color="#737373"/>
</linearGradient>
</defs>
</svg>
